<svg width="817" height="827" viewBox="0 0 817 827" fill="none" xmlns="http://www.w3.org/2000/svg">
<mask id="mask0_1_1151" style="mask-type:alpha" maskUnits="userSpaceOnUse" x="0" y="0" width="817" height="827">
<rect width="817" height="827" fill="#D9D9D9"/>
</mask>
<g mask="url(#mask0_1_1151)">
<path opacity="0.4" d="M499.906 319.252C478.734 306.237 456.817 292.805 443.775 277.021C432.727 263.678 423.585 246.762 413.877 228.863C391.008 186.661 367.364 143 316.324 143H316.265C271.091 143.03 245.899 186.333 221.511 228.207C209.034 249.68 197.212 269.962 183.216 283.603C170.65 295.843 152.634 305.969 133.546 316.721C95.1918 338.283 55.5571 360.56 56.0037 403.03C56.6886 467.777 85.6925 533.566 135.571 583.541C185.568 633.605 251.438 662.583 316.235 663H317.515C396.547 663 417.57 616.569 444.162 557.898L447.914 549.648C459.289 524.691 485.434 504.2 510.686 484.365C542.995 459.021 573.518 435.105 573.994 403.03C574.53 365.057 536.593 341.767 499.906 319.252ZM508.75 481.923C483.171 501.967 456.758 522.695 445.055 548.338L441.303 556.588C414.175 616.51 394.522 659.873 317.545 659.873H316.235C252.242 659.486 187.176 630.835 137.745 581.307C88.4321 531.898 59.7856 466.913 59.1007 402.97C58.654 362.347 97.5145 340.517 135.065 319.401C154.331 308.56 172.526 298.345 185.39 285.806C199.683 271.868 211.594 251.408 224.191 229.756C248.102 188.656 272.848 146.127 316.235 146.097H316.294C365.488 146.097 388.685 188.924 411.108 230.322C420.875 248.37 430.106 265.405 441.333 278.986C454.703 295.158 476.828 308.739 498.239 321.873C534.181 343.942 571.374 366.755 570.838 402.94C570.391 433.497 540.434 456.995 508.721 481.864L508.75 481.923ZM437.521 278.688C430.464 268.979 423.883 257.99 416.885 246.375C393.956 208.194 368.019 164.95 319.123 164.95H318.141C276.898 165.426 249.8 205.573 225.888 240.954C214.87 257.275 204.478 272.672 193.34 283.751C182.71 294.324 168.178 304.093 152.783 314.427C117.823 337.926 81.6427 362.198 81.4343 401.422C81.1067 459.586 110.408 522.725 159.84 570.288C204.865 613.621 259.686 638.072 311.262 638.072C313.585 638.072 315.907 638.013 318.23 637.923C379.93 635.273 403.544 592.505 430.91 543.007C432.578 539.969 434.275 536.901 436.003 533.804C444.102 519.27 457.77 503.694 472.242 487.254C497.345 458.693 523.282 429.149 522.746 401.422C522.151 370.09 494.695 341.321 468.163 313.504C456.549 301.323 445.591 289.827 437.491 278.688H437.521ZM469.95 485.199C455.358 501.788 441.601 517.483 433.323 532.315C431.595 535.412 429.898 538.48 428.23 541.518C401.311 590.212 378.084 632.265 318.141 634.826C265.404 637.149 208.498 612.757 162.044 568.054C113.208 521.057 84.2632 458.782 84.5907 401.422C84.7992 363.866 120.265 340.04 154.569 316.989C170.084 306.565 184.735 296.737 195.574 285.926C206.919 274.638 217.401 259.092 228.508 242.652C253.135 206.168 278.595 168.464 318.2 168.017H319.153C366.262 168.017 390.65 208.64 414.235 247.923C421.233 259.598 427.873 270.617 435.02 280.475C443.239 291.793 454.286 303.348 465.959 315.619C492.075 343.018 519.113 371.341 519.679 401.451C520.185 427.958 494.636 457.055 469.95 485.169V485.199ZM433.739 280.058C430.762 275.561 427.724 270.826 424.627 265.942C401.49 229.637 372.754 184.546 324.335 184.546H322.995C284.73 185.202 257.006 220.821 232.529 252.271C223.297 264.125 214.602 275.293 205.847 284.079C196.646 293.312 185.42 301.948 173.538 311.121C142.688 334.888 110.796 359.488 109.843 397.52C108.562 448.954 135.541 506.047 181.995 550.244C222.404 588.663 271.151 610.881 314.21 610.881C317.218 610.881 320.195 610.762 323.143 610.553C372.813 606.86 400.537 566.624 429.154 518.347C433.59 510.842 439.04 502.473 444.787 493.628C465.632 461.552 489.246 425.218 488.472 397.49C487.459 361.186 458.485 317.435 435.228 282.262L433.739 280.029V280.058ZM442.167 491.96C436.39 500.835 430.94 509.234 426.474 516.798C398.303 564.301 371.086 603.912 322.935 607.486C278.595 610.792 226.752 588.544 184.169 548.04C138.311 504.439 111.719 448.21 112.969 397.639C113.892 361.096 145.189 336.943 175.444 313.623C187.415 304.391 198.73 295.664 208.081 286.313C216.984 277.378 225.739 266.12 235.03 254.207C259.061 223.323 286.338 188.329 323.084 187.703H324.394C371.027 187.703 398.125 230.173 422.007 267.669C425.104 272.553 428.141 277.289 431.149 281.816L432.638 284.049C455.686 318.895 484.392 362.258 485.375 397.639C486.119 424.384 461.761 461.88 442.196 491.99L442.167 491.96ZM330.171 202.386C293.693 203.279 266.833 233.241 240.837 262.249C233.809 270.081 227.168 277.497 220.409 284.228C213.947 290.661 206.651 297.064 198.879 303.855C171.602 327.71 140.693 354.753 140.484 391.891C140.216 439.245 164.515 490.56 205.52 529.158C241.283 562.812 283.509 581.664 322.578 581.664C325.168 581.664 327.729 581.575 330.29 581.426C357.954 579.639 391.276 551.793 421.709 505.064C447.556 465.394 466.466 418.874 467.716 391.981C469.562 352.072 433.948 277.646 392.973 235.802C371.116 213.465 349.289 201.909 330.141 202.386H330.171ZM445.531 335.126C446.574 339.296 447.467 343.554 448.212 347.932C448.331 350.047 448.39 352.221 448.36 354.485C447.765 393.857 417.391 423.431 377.578 423.431H377.191C339.283 423.252 308.314 392.338 308.195 354.485C308.135 336.168 316.92 317.048 331.72 303.318C344.107 291.822 359.115 285.419 373.439 285.419C374.66 285.419 375.851 285.479 377.072 285.568C396.04 287.027 424.002 293.282 438.623 316.065C441.214 322.439 443.536 328.842 445.502 335.126H445.531ZM434.96 299C434.841 298.851 434.692 298.702 434.573 298.553C434.275 298.047 433.948 297.541 433.62 297.005C432.757 295.307 431.834 293.609 430.94 291.942C432.31 294.294 433.65 296.617 434.96 299ZM431.059 299.298C431.953 301.115 432.846 302.931 433.68 304.778C422.602 293.431 405.033 284.615 377.31 282.471C361.051 281.22 343.661 287.981 329.605 301.055C314.18 315.38 305.009 335.364 305.068 354.514C305.217 394.036 337.556 426.349 377.161 426.558H377.548C414.801 426.558 444.132 401.719 450.266 366.934C450.296 367.499 450.356 368.095 450.356 368.661C445.323 411.786 414.801 453.868 368.823 453.868H368.466C344.762 453.749 320.791 443.087 302.656 424.592C285.295 406.872 275.558 383.88 275.945 361.483C276.332 338.253 290.626 310.704 312.364 291.316C328.771 276.663 346.698 268.801 363.374 268.801C365.041 268.801 366.679 268.89 368.317 269.039C391.871 271.302 415.158 281.309 431.03 299.357L431.059 299.298ZM422.334 286.521C408.22 275.234 389.966 267.937 368.674 265.882C349.765 264.065 329.069 272.255 310.369 288.934C288.005 308.888 273.325 337.33 272.908 361.394C272.521 384.624 282.586 408.42 300.512 426.737C319.213 445.827 343.988 456.846 368.525 456.936H368.883C408.1 456.936 436.479 427.63 448.241 392.487C438.802 437.339 402.681 483.174 358.728 485.05C330.737 486.271 301.941 474.746 279.786 453.481C256.172 430.846 242.683 400.081 242.772 369.137C242.832 342.84 259.448 311.032 286.129 286.194C308.612 265.257 334.102 253.105 355.155 253.105C356.346 253.105 357.537 253.135 358.698 253.225C385.737 255.071 407.058 267.937 422.334 286.521ZM358.907 250.097C336.365 248.549 308.403 261.206 284.015 283.9C256.708 309.305 239.735 341.976 239.675 369.108C239.616 400.915 253.433 432.455 277.672 455.715C299.351 476.533 327.253 488.237 354.798 488.237C356.167 488.237 357.537 488.207 358.907 488.148C396.308 486.539 428.23 454.255 443.745 417.147C438.371 434.093 430.707 450.226 420.965 465.096C400.239 496.606 374.57 514.892 348.663 516.53C316.83 518.556 282.943 504.915 255.636 479.124C226.245 451.337 208.914 413.215 209.212 377.149C209.48 348.617 231.457 309.96 265.195 278.659C294.497 251.497 325.675 236.159 348.663 237.708C370.729 239.167 393.45 251.318 411.823 271.332C397.648 259.36 379.96 251.527 358.937 250.068L358.907 250.097ZM348.842 234.611C324.99 233.062 292.978 248.668 263.051 276.365C228.717 308.203 206.354 347.724 206.086 377.089C205.758 414.019 223.476 453.005 253.463 481.357C279.578 506.047 311.619 519.836 342.35 519.836C344.524 519.836 346.668 519.777 348.842 519.628C375.732 517.9 402.234 499.137 423.525 466.794C442.047 438.62 453.631 404.281 453.691 377.119C453.691 376.315 453.661 375.481 453.661 374.677C453.661 374.528 453.691 374.379 453.691 374.23C454.018 377.953 454.197 381.527 454.137 384.863C453.661 410.982 439.159 450.741 418.017 483.859C393.628 522.04 364.773 545.36 338.836 547.802C305.009 550.989 269.066 537.229 237.531 509.055C200.249 475.729 176.635 428.136 175.92 384.863C175.474 357.88 198.701 318.269 236.519 281.488C273.116 245.898 313.346 222.549 339.015 221.983C339.462 221.983 339.909 221.953 340.325 221.953C359.443 221.953 378.144 230.947 395.981 248.698C400.567 253.284 404.944 258.317 409.113 263.708C391.693 246.196 370.878 236.04 348.812 234.581L348.842 234.611ZM398.214 246.494C379.365 227.701 359.383 218.469 338.956 218.856C283.747 220.047 171.781 322.826 172.823 384.892C173.568 429 197.569 477.456 235.477 511.348C264.6 537.378 297.504 551.346 329.188 551.346C332.523 551.346 335.859 551.197 339.164 550.869C401.073 545.002 456.341 435.939 457.294 384.892C457.443 376.434 456.371 366.636 454.286 356.152C454.286 348.856 453.542 341.827 452.112 335.156C460.569 356.569 465.364 376.702 464.649 391.772C462.177 444.904 390.353 574.308 330.111 578.239C289.792 580.83 245.184 562.127 207.694 526.835C167.314 488.833 143.373 438.381 143.641 391.861C143.849 356.152 174.193 329.586 200.964 306.148C208.766 299.328 216.121 292.895 222.642 286.372C229.461 279.582 236.132 272.136 243.189 264.244C268.739 235.742 295.122 206.288 330.26 205.424H331.332C349.438 205.424 369.955 216.622 390.799 237.916C394.998 242.205 399.137 246.851 403.187 251.765C401.549 249.948 399.911 248.162 398.214 246.464V246.494ZM384.248 300.31C370.252 300.102 357.388 305.195 348.187 314.785C339.402 323.898 334.936 336.049 335.65 348.945C337.199 377.208 357.12 397.401 383.206 397.401H384.278C401.222 397.044 419.505 389.032 430.881 377.03C438.861 368.572 442.881 358.803 442.524 348.796C441.482 320.771 410.989 300.757 384.278 300.31H384.248ZM439.367 348.915C439.725 358.058 435.973 367.053 428.588 374.885C417.778 386.322 400.358 393.946 384.189 394.304C359.264 394.84 340.206 375.69 338.747 348.796C338.092 336.764 342.231 325.447 350.42 316.959C358.847 308.233 370.491 303.438 383.325 303.438H384.218C409.53 303.855 438.385 322.647 439.397 348.915H439.367ZM363.85 345.192C364.416 359.518 375.017 370.18 388.566 370.18H388.953C399.078 370.031 411.733 364.611 418.433 357.552C422.126 353.651 424.002 349.332 423.823 345.073C423.258 330.301 402.443 320.235 388.953 320.086C381.955 320.056 375.344 322.647 370.58 327.531C365.964 332.237 363.582 338.521 363.85 345.192ZM388.596 323.183H388.894C401.073 323.332 420.22 332.833 420.697 345.192C420.816 348.647 419.297 352.102 416.141 355.408C409.976 361.9 398.244 366.904 388.864 367.053H388.536C376.684 367.053 367.423 357.641 366.947 345.044C366.709 339.236 368.793 333.756 372.784 329.676C376.863 325.477 382.461 323.183 388.566 323.183H388.596Z" fill="#3AB59A"/>
<path opacity="0.5" d="M582.84 681.877C575.106 679.544 567.104 677.143 561.682 673.253C557.092 669.967 552.797 665.392 548.241 660.555C537.506 649.148 526.405 637.345 510.415 641.63L510.397 641.635C496.248 645.436 492.02 661.225 487.923 676.496C485.831 684.324 483.843 691.721 480.613 697.203C477.712 702.123 472.925 706.833 467.855 711.83C457.664 721.859 447.133 732.221 450.866 745.594C456.559 765.983 471.212 784.324 491.066 795.918C510.965 807.53 534.052 811.152 554.387 805.845L554.788 805.737C579.546 799.103 582.204 782.676 585.57 761.917L586.047 758.997C587.499 750.161 593.956 741.496 600.188 733.112C608.165 722.397 615.703 712.283 613.139 702.114C610.094 690.078 596.238 685.908 582.84 681.877ZM599.375 732.504C593.058 740.98 586.537 749.743 585.041 758.823L584.563 761.743C581.135 782.943 578.647 798.286 554.533 804.747L554.122 804.857C534.042 810.107 511.234 806.521 491.558 795.03C471.929 783.567 457.456 765.45 451.831 745.316C448.254 732.525 458.581 722.369 468.558 712.549C473.676 707.509 478.511 702.756 481.481 697.716C484.779 692.115 486.779 684.654 488.893 676.76C492.907 661.774 497.06 646.267 510.649 642.615L510.668 642.61C526.079 638.481 536.97 650.058 547.497 661.248C552.084 666.128 556.418 670.732 561.084 674.079C566.641 678.063 574.721 680.494 582.54 682.845C595.667 686.797 609.248 690.879 612.142 702.35C614.588 712.037 607.192 721.972 599.361 732.487L599.375 732.504ZM559.864 674.304C556.832 671.831 553.84 668.913 550.665 665.833C540.252 655.7 528.467 644.222 513.15 648.326L512.842 648.409C499.962 652.021 494.87 666.973 490.372 680.153C488.302 686.232 486.349 691.967 483.797 696.4C481.362 700.631 477.636 704.936 473.687 709.492C464.724 719.846 455.443 730.548 458.697 742.952C463.516 761.347 478.038 778.825 497.548 789.696C515.319 799.6 534.562 802.72 550.72 798.39C551.447 798.195 552.17 797.981 552.89 797.758C571.995 791.742 575.774 776.255 580.158 758.327C580.424 757.227 580.696 756.116 580.975 754.993C582.283 749.724 585.246 743.658 588.389 737.252C593.837 726.125 599.462 714.618 596.948 705.908C594.11 696.064 583.075 689.283 572.409 682.727C567.741 679.855 563.335 677.144 559.855 674.307L559.864 674.304ZM587.497 736.795C584.33 743.258 581.348 749.37 580.009 754.748C579.73 755.871 579.458 756.982 579.193 758.081C574.88 775.718 571.162 790.947 552.6 796.788C536.275 801.948 516.384 799.022 498.049 788.805C478.773 778.064 464.436 760.828 459.686 742.687C456.573 730.81 465.668 720.309 474.464 710.15C478.442 705.556 482.2 701.223 484.681 696.899C487.28 692.382 489.248 686.593 491.337 680.469C495.965 666.881 500.751 652.838 513.12 649.372L513.418 649.292C528.176 645.338 539.254 656.119 549.966 666.544C553.146 669.643 556.159 672.566 559.232 675.079C562.764 677.963 567.203 680.684 571.898 683.579C582.398 690.039 593.265 696.714 595.99 706.174C598.391 714.502 592.849 725.835 587.494 736.786L587.497 736.795ZM558.795 675.055C557.482 673.884 556.13 672.644 554.746 671.362C544.426 661.839 531.609 650.013 516.44 654.077L516.02 654.189C504.089 657.608 498.417 671.184 493.41 683.17C491.521 687.688 489.742 691.944 487.743 695.454C485.642 699.142 482.856 702.811 479.91 706.705C472.256 716.8 464.347 727.245 467.266 739.335C471.217 755.685 484.5 771.449 502.792 781.506C518.702 790.247 535.853 793.171 549.342 789.556C550.284 789.304 551.207 789.016 552.113 788.703C567.361 783.367 572.641 768.334 577.521 750.687C578.276 747.945 579.275 744.844 580.327 741.569C584.143 729.69 588.467 716.234 585.878 707.543C582.489 696.164 569.71 684.78 559.448 675.626L558.793 675.045L558.795 675.055ZM579.365 741.262C578.307 744.55 577.31 747.659 576.551 750.423C571.745 767.788 566.57 782.581 551.788 787.752C538.178 792.518 520.054 789.844 503.287 780.628C485.231 770.709 472.143 755.185 468.256 739.11C465.453 727.493 473.214 717.239 480.718 707.335C483.687 703.415 486.494 699.71 488.632 695.972C490.665 692.403 492.455 688.113 494.358 683.571C499.273 671.801 504.857 658.461 516.316 655.179L516.726 655.069C531.335 651.155 543.417 662.291 554.072 672.127C555.455 673.409 556.807 674.65 558.133 675.827L558.788 676.407C568.957 685.476 581.619 696.76 584.92 707.85C587.417 716.233 582.958 730.119 579.377 741.269L579.365 741.262ZM519.778 659.221C508.426 662.565 502.547 674.281 496.857 685.623C495.318 688.686 493.866 691.586 492.318 694.278C490.838 696.852 489.094 699.487 487.234 702.283C480.707 712.106 473.312 723.24 476.389 734.986C480.312 749.962 492.266 764.127 508.378 772.873C522.429 780.498 537.252 782.907 549.492 779.628C550.303 779.41 551.098 779.167 551.888 778.905C560.403 776.019 568.485 764.428 574.065 747.117C578.806 732.421 580.793 716.143 578.91 707.546C576.111 694.788 558.657 674.275 542.28 664.501C533.543 659.282 525.727 657.465 519.769 659.223L519.778 659.221ZM567.149 691.454C567.828 692.683 568.469 693.953 569.072 695.273C569.289 695.931 569.491 696.612 569.673 697.33C572.818 709.813 565.805 721.701 553.333 725.043L553.212 725.076C541.321 728.201 529.003 721.039 525.763 709.095C524.195 703.317 525.329 696.541 528.804 690.963C531.712 686.293 535.871 683.011 540.358 681.809C540.741 681.707 541.119 681.625 541.509 681.551C547.575 680.42 556.864 680.048 563.372 686.015C564.723 687.81 565.992 689.637 567.14 691.457L567.149 691.454ZM560.781 680.933C560.731 680.896 560.672 680.862 560.622 680.825C560.485 680.69 560.34 680.558 560.192 680.416C559.778 679.952 559.345 679.494 558.924 679.042C559.552 679.67 560.169 680.291 560.781 680.933ZM559.584 681.355C560.017 681.854 560.451 682.352 560.868 682.865C556.438 680.212 550.188 678.903 541.322 680.553C536.122 681.523 531.247 685.118 527.95 690.426C524.33 696.245 523.147 703.325 524.786 709.367C528.177 721.835 541.042 729.325 553.467 726.066L553.588 726.033C565.258 722.906 572.345 712.601 571.324 701.101C571.381 701.277 571.45 701.46 571.498 701.639C573.57 715.679 567.569 731.531 553.166 735.39L553.054 735.42C545.618 737.372 537.206 736.017 529.96 731.699C523.022 727.561 518.026 721.118 516.252 714.013C514.408 706.644 516.555 696.745 521.724 688.798C525.625 682.794 530.575 678.806 535.799 677.406C536.322 677.266 536.842 677.157 537.368 677.066C544.938 675.804 553.08 677.009 559.58 681.376L559.584 681.355ZM555.769 678.053C550.393 675.673 544.057 674.901 537.213 676.04C531.135 677.053 525.345 681.377 520.898 688.213C515.58 696.391 513.388 706.605 515.293 714.239C517.138 721.608 522.304 728.277 529.47 732.556C536.944 737.015 545.638 738.415 553.332 736.384L553.444 736.354C565.73 733.062 572.14 721.425 572.852 709.34C573.689 724.296 566.252 741.802 552.642 746.084C543.976 748.819 533.98 747.597 525.24 742.742C515.927 737.576 509.098 728.993 506.508 719.214C504.301 710.905 506.815 699.466 513.072 689.383C518.344 680.884 525.301 674.907 531.896 673.14C532.27 673.04 532.645 672.949 533.017 672.88C541.643 671.193 549.411 673.466 555.769 678.053ZM532.817 671.875C525.624 673.278 517.936 679.622 512.216 688.836C505.811 699.15 503.258 710.892 505.535 719.465C508.208 729.514 515.205 738.314 524.767 743.624C533.32 748.379 543.051 749.733 551.68 747.42C552.109 747.305 552.536 747.181 552.96 747.047C564.54 743.4 571.809 730.525 573.529 717.505C573.28 723.307 572.244 729.045 570.45 734.559C566.624 746.249 560.13 754.178 552.152 756.87C542.351 760.181 530.581 758.719 519.844 752.866C508.286 746.559 499.631 735.975 496.672 724.561C494.342 715.529 497.956 701.477 505.877 688.76C512.758 677.724 521.227 670.263 528.56 668.822C535.596 667.431 543.742 669.361 551.191 674.139C545.738 671.548 539.534 670.559 532.824 671.863L532.817 671.875ZM528.354 667.829C520.751 669.342 512.043 676.958 505.011 688.216C496.949 701.152 493.287 715.509 495.688 724.805C498.71 736.494 507.559 747.318 519.352 753.754C529.623 759.358 540.827 761.023 550.454 758.444C551.135 758.261 551.802 758.062 552.47 757.833C560.748 755.03 567.463 746.881 571.396 734.88C574.815 724.428 575.538 712.612 573.258 704.03C573.19 703.776 573.11 703.515 573.042 703.261C573.03 703.214 573.027 703.165 573.014 703.118C573.432 704.266 573.79 705.379 574.054 706.438C576.114 714.726 574.935 728.498 571.114 740.731C566.705 754.835 559.638 764.621 551.72 767.57C541.392 771.416 528.968 770.088 516.705 763.838C502.206 756.443 490.781 743.397 486.896 729.792C484.472 721.308 488.397 706.85 497.133 692.061C505.586 677.75 516.213 667 524.207 664.666C524.347 664.629 524.484 664.582 524.615 664.547C530.604 662.942 537.223 664.213 544.313 668.321C546.138 669.384 547.935 670.606 549.697 671.958C542.758 667.891 535.378 666.431 528.342 667.822L528.354 667.829ZM544.826 667.437C537.331 663.085 530.29 661.847 523.924 663.684C506.729 668.694 480.35 710.549 485.928 730.061C489.893 743.927 501.512 757.214 516.255 764.734C527.581 770.51 539.071 772.158 548.997 769.499C550.042 769.219 551.074 768.892 552.082 768.511C570.98 761.461 579.066 722.382 575.045 706.182C574.376 703.499 573.211 700.495 571.671 697.359C571.053 695.055 570.226 692.898 569.213 690.911C573.675 696.963 576.88 702.918 577.931 707.737C581.653 724.723 570.101 771.616 551.562 777.914C539.15 782.116 523.593 779.955 508.862 771.957C492.997 763.346 481.228 749.424 477.375 734.711C474.419 723.417 481.677 712.481 488.081 702.833C489.948 700.024 491.708 697.375 493.199 694.768C494.76 692.051 496.22 689.14 497.763 686.056C503.355 674.911 509.128 663.395 520.063 660.172L520.399 660.082C526.071 658.563 533.446 660.377 541.778 665.351C543.456 666.353 545.146 667.473 546.83 668.685C546.163 668.248 545.499 667.822 544.824 667.428L544.826 667.437ZM545.005 685.604C540.603 686.713 537.004 689.401 534.932 693.202C532.952 696.817 532.58 701.029 533.896 705.042C536.772 713.837 544.722 718.541 552.893 716.351L553.229 716.261C558.507 714.726 563.557 710.661 566.105 705.916C567.889 702.576 568.322 699.153 567.364 696.023C564.666 687.261 553.42 683.501 545.014 685.602L545.005 685.604ZM566.385 696.326C567.27 699.183 566.856 702.338 565.205 705.432C562.787 709.951 557.975 713.82 552.939 715.291C545.177 717.552 537.586 713.105 534.853 704.735C533.63 700.99 533.969 697.069 535.816 693.701C537.718 690.238 540.96 687.746 544.98 686.669L545.26 686.594C553.225 684.601 563.854 688.113 566.394 696.323L566.385 696.326ZM542.412 701.489C543.802 705.966 548.025 708.443 552.269 707.305L552.391 707.273C555.55 706.376 559.056 703.602 560.558 700.811C561.384 699.269 561.607 697.747 561.19 696.418C559.763 691.8 552.391 690.369 548.152 691.454C545.957 692.032 544.106 693.405 543.026 695.347C541.978 697.221 541.764 699.405 542.412 701.489ZM548.302 692.462L548.395 692.437C552.223 691.462 559.026 692.855 560.221 696.718C560.55 697.799 560.367 699.017 559.658 700.326C558.276 702.894 555.024 705.458 552.098 706.293L551.995 706.32C548.283 707.315 544.585 705.121 543.37 701.182C542.804 699.368 542.993 697.463 543.898 695.84C544.821 694.171 546.38 692.977 548.293 692.465L548.302 692.462Z" fill="#3AB59A"/>
<path opacity="0.4" d="M120.691 165.385C115.459 162.181 110.044 158.875 106.821 154.99C104.091 151.705 101.832 147.541 99.433 143.135C93.7818 132.747 87.9393 122 75.3272 122H75.3125C64.15 122.007 57.9248 132.667 51.8984 142.974C48.8152 148.26 45.894 153.252 42.4356 156.61C39.3304 159.623 34.8786 162.115 30.1619 164.762C20.6845 170.07 10.8905 175.553 11.0009 186.007C11.1702 201.945 18.3372 218.139 30.6623 230.441C43.0169 242.764 59.2935 249.897 75.3051 250H75.6216C95.1505 250 100.345 238.571 106.916 224.129L107.844 222.098C110.654 215.955 117.115 210.911 123.355 206.028C131.339 199.79 138.881 193.903 138.999 186.007C139.131 176.66 129.757 170.927 120.691 165.385ZM122.877 205.427C116.556 210.361 110.029 215.463 107.137 221.775L106.21 223.806C99.5066 238.556 94.6501 249.23 75.6289 249.23H75.3051C59.4921 249.135 43.4143 242.082 31.1995 229.891C19.0141 217.729 11.9354 201.732 11.7662 185.993C11.6558 175.993 21.2584 170.619 30.5372 165.422C35.298 162.753 39.794 160.239 42.9728 157.152C46.5047 153.721 49.4481 148.685 52.5606 143.355C58.4693 133.238 64.5841 122.77 75.3051 122.762H75.3199C87.4758 122.762 93.2079 133.304 98.7487 143.495C101.162 147.937 103.443 152.131 106.217 155.474C109.521 159.454 114.988 162.797 120.279 166.03C129.161 171.463 138.351 177.078 138.219 185.985C138.108 193.507 130.706 199.291 122.869 205.413L122.877 205.427ZM105.276 155.4C103.532 153.01 101.905 150.305 100.176 147.446C94.5103 138.048 88.1012 127.403 76.0189 127.403H75.7761C65.5848 127.52 58.8888 137.403 52.98 146.112C50.2575 150.129 47.6894 153.919 44.9374 156.647C42.3105 159.249 38.7197 161.654 34.9154 164.197C26.2768 169.982 17.3364 175.956 17.2849 185.611C17.204 199.929 24.4445 215.471 36.6593 227.178C47.7851 237.845 61.3317 243.864 74.0763 243.864C74.6503 243.864 75.2242 243.849 75.7981 243.827C91.0445 243.175 96.8797 232.647 103.642 220.463C104.054 219.715 104.473 218.96 104.9 218.198C106.902 214.62 110.279 210.786 113.855 206.74C120.058 199.709 126.467 192.437 126.335 185.611C126.188 177.899 119.403 170.817 112.847 163.97C109.977 160.972 107.27 158.142 105.268 155.4H105.276ZM113.289 206.234C109.683 210.317 106.284 214.181 104.238 217.831C103.811 218.594 103.392 219.349 102.98 220.097C96.3278 232.083 90.5883 242.434 75.7761 243.065C62.7445 243.637 48.6828 237.633 37.2038 226.629C25.1362 215.06 17.984 199.731 18.0649 185.611C18.1164 176.367 26.8801 170.502 35.3569 164.828C39.1906 162.262 42.8109 159.843 45.4893 157.182C48.2928 154.403 50.8829 150.576 53.6276 146.53C59.7129 137.549 66.0042 128.268 75.7908 128.158H76.0263C87.6671 128.158 93.6935 138.158 99.5213 147.827C101.251 150.701 102.891 153.414 104.657 155.84C106.688 158.626 109.418 161.47 112.303 164.491C118.756 171.235 125.437 178.207 125.577 185.619C125.702 192.143 119.389 199.306 113.289 206.226V206.234ZM104.341 155.737C103.605 154.63 102.855 153.465 102.089 152.263C96.372 143.326 89.2712 132.227 77.3066 132.227H76.9755C67.5201 132.388 60.6695 141.156 54.6209 148.898C52.3399 151.815 50.1912 154.564 48.0279 156.727C45.7542 159 42.9801 161.126 40.0441 163.384C32.4209 169.234 24.5402 175.289 24.3047 184.651C23.9883 197.312 30.655 211.365 42.1339 222.245C52.1191 231.702 64.1647 237.171 74.8048 237.171C75.548 237.171 76.2838 237.141 77.0123 237.09C89.2859 236.181 96.1365 226.277 103.208 214.393C104.304 212.546 105.651 210.486 107.071 208.308C112.222 200.413 118.057 191.469 117.866 184.644C117.615 175.707 110.456 164.938 104.709 156.28L104.341 155.73V155.737ZM106.423 207.898C104.996 210.082 103.649 212.15 102.546 214.012C95.5846 225.705 88.8591 235.455 76.9608 236.335C66.0042 237.149 53.1934 231.672 42.6711 221.702C31.3393 210.97 24.7683 197.129 25.0774 184.68C25.3055 175.685 33.039 169.74 40.5151 164C43.4731 161.727 46.2693 159.579 48.5798 157.277C50.7799 155.078 52.9433 152.307 55.239 149.374C61.1772 141.772 67.9174 133.158 76.9976 133.004H77.3213C88.8444 133.004 95.5405 143.458 101.442 152.688C102.207 153.89 102.958 155.056 103.701 156.17L104.069 156.72C109.764 165.297 116.857 175.971 117.1 184.68C117.284 191.264 111.265 200.493 106.431 207.905L106.423 207.898ZM78.7488 136.618C69.7349 136.838 63.0977 144.213 56.6739 151.353C54.9374 153.282 53.2965 155.107 51.6261 156.764C50.0294 158.347 48.2266 159.923 46.3061 161.595C39.5659 167.467 31.9279 174.124 31.8764 183.266C31.8102 194.922 37.8146 207.553 47.947 217.054C56.7843 225.338 67.2184 229.979 76.8725 229.979C77.5126 229.979 78.1454 229.957 78.7783 229.92C85.6141 229.48 93.8481 222.626 101.368 211.123C107.755 201.359 112.428 189.907 112.737 183.288C113.193 173.464 104.393 155.144 94.2675 144.844C88.8665 139.345 83.4729 136.501 78.7415 136.618H78.7488ZM107.255 169.293C107.512 170.319 107.733 171.367 107.917 172.445C107.947 172.965 107.961 173.501 107.954 174.058C107.807 183.749 100.301 191.029 90.4632 191.029H90.3676C81.0005 190.985 73.3478 183.375 73.3184 174.058C73.3037 169.549 75.4744 164.843 79.1315 161.463C82.1925 158.633 85.9011 157.057 89.4404 157.057C89.7421 157.057 90.0365 157.072 90.3382 157.094C95.0254 157.453 101.935 158.992 105.548 164.601C106.188 166.17 106.762 167.746 107.248 169.293H107.255ZM104.643 160.4C104.613 160.363 104.576 160.327 104.547 160.29C104.473 160.165 104.393 160.041 104.312 159.909C104.098 159.491 103.87 159.073 103.649 158.663C103.988 159.242 104.319 159.814 104.643 160.4ZM103.679 160.473C103.9 160.921 104.12 161.368 104.326 161.822C101.589 159.029 97.2476 156.859 90.397 156.331C86.3794 156.023 82.0821 157.688 78.609 160.906C74.7974 164.432 72.5311 169.351 72.5458 174.065C72.5826 183.793 80.5737 191.748 90.3602 191.799H90.4559C99.6611 191.799 106.909 185.685 108.425 177.122C108.432 177.261 108.447 177.408 108.447 177.547C107.203 188.163 99.6611 198.521 88.2999 198.521H88.2116C82.3544 198.492 76.431 195.868 71.9498 191.315C67.6599 186.953 65.2537 181.293 65.3494 175.781C65.445 170.062 68.977 163.281 74.3486 158.509C78.403 154.902 82.8327 152.966 86.9533 152.966C87.3654 152.966 87.7701 152.988 88.1748 153.025C93.9952 153.582 99.7494 156.045 103.671 160.488L103.679 160.473ZM101.523 157.328C98.0349 154.55 93.5243 152.754 88.2631 152.248C83.5906 151.801 78.4766 153.817 73.8556 157.922C68.3295 162.834 64.7018 169.835 64.5988 175.759C64.5032 181.477 66.9903 187.334 71.42 191.843C76.041 196.542 82.1631 199.255 88.2263 199.277H88.3146C98.0055 199.277 105.018 192.063 107.924 183.412C105.592 194.453 96.6663 205.735 85.8054 206.197C78.8886 206.498 71.7732 203.66 66.2986 198.426C60.4634 192.855 57.1301 185.282 57.1522 177.665C57.1669 171.191 61.2729 163.362 67.8659 157.248C73.4214 152.094 79.7201 149.103 84.9224 149.103C85.2168 149.103 85.5111 149.11 85.7981 149.132C92.4794 149.587 97.748 152.754 101.523 157.328ZM85.8496 148.362C80.2794 147.981 73.3699 151.097 67.3435 156.683C60.5959 162.937 56.4017 170.979 56.3869 177.657C56.3722 185.487 59.7865 193.25 65.7761 198.976C71.133 204.1 78.0277 206.981 84.8341 206.981C85.1726 206.981 85.5111 206.974 85.8496 206.959C95.0916 206.564 102.98 198.617 106.813 189.482C105.486 193.654 103.592 197.625 101.184 201.285C96.0629 209.041 89.7201 213.543 83.3183 213.946C75.4523 214.444 67.0786 211.087 60.331 204.738C53.0683 197.898 48.7858 188.515 48.8594 179.637C48.9256 172.614 54.3561 163.098 62.693 155.393C69.9336 148.707 77.6377 144.931 83.3183 145.313C88.7708 145.672 94.3852 148.663 98.9253 153.589C95.4227 150.642 91.0519 148.714 85.8569 148.355L85.8496 148.362ZM83.3625 144.55C77.4685 144.169 69.5583 148.011 62.1632 154.828C53.6791 162.665 48.153 172.394 48.0868 179.622C48.0058 188.712 52.384 198.309 59.7938 205.288C66.2471 211.365 74.1646 214.76 81.7584 214.76C82.2955 214.76 82.8253 214.745 83.3625 214.708C90.007 214.283 96.5559 209.665 101.817 201.703C106.394 194.768 109.256 186.315 109.271 179.629C109.271 179.431 109.264 179.226 109.264 179.028C109.264 178.992 109.271 178.955 109.271 178.918C109.352 179.835 109.396 180.714 109.381 181.535C109.264 187.965 105.68 197.752 100.456 205.904C94.4294 215.302 87.2992 221.042 80.8901 221.644C72.5311 222.428 63.6496 219.041 55.8571 212.106C46.6445 203.902 40.8094 192.187 40.6328 181.535C40.5224 174.893 46.2619 165.143 55.607 156.089C64.6503 147.329 74.5914 141.581 80.9342 141.442C81.0446 141.442 81.155 141.435 81.258 141.435C85.982 141.435 90.6031 143.649 95.0107 148.018C96.1439 149.147 97.2255 150.386 98.2557 151.713C93.9511 147.402 88.8076 144.902 83.3551 144.543L83.3625 144.55ZM95.5626 147.475C90.9047 142.849 85.9673 140.577 80.9195 140.672C67.2772 140.965 39.61 166.265 39.8675 181.543C40.0515 192.4 45.9823 204.328 55.3494 212.67C62.5458 219.078 70.6768 222.516 78.506 222.516C79.3301 222.516 80.1543 222.479 80.971 222.399C96.269 220.954 109.926 194.108 110.161 181.543C110.198 179.461 109.933 177.049 109.418 174.468C109.418 172.672 109.234 170.942 108.881 169.3C110.971 174.571 112.156 179.527 111.979 183.236C111.368 196.315 93.62 228.168 78.7341 229.136C68.771 229.774 57.7482 225.17 48.4841 216.482C38.5063 207.128 32.5902 194.709 32.6564 183.258C32.7079 174.468 40.206 167.929 46.8211 162.159C48.749 160.481 50.5665 158.897 52.178 157.292C53.863 155.62 55.5113 153.787 57.2552 151.845C63.5686 144.829 70.0881 137.578 78.7709 137.366H79.0358C83.5097 137.366 88.5795 140.122 93.7303 145.364C94.7679 146.42 95.7907 147.563 96.7914 148.773C96.3867 148.326 95.982 147.886 95.5626 147.468V147.475ZM92.1115 160.723C88.6531 160.671 85.4743 161.925 83.2006 164.285C81.0299 166.529 79.9262 169.52 80.1028 172.694C80.4854 179.651 85.4081 184.622 91.854 184.622H92.1189C96.3057 184.534 100.824 182.562 103.635 179.607C105.607 177.525 106.6 175.121 106.512 172.658C106.254 165.759 98.7193 160.833 92.1189 160.723H92.1115ZM105.732 172.687C105.82 174.937 104.893 177.151 103.068 179.079C100.397 181.895 96.0923 183.771 92.0968 183.859C85.9379 183.991 81.2286 179.277 80.868 172.658C80.7061 169.696 81.7289 166.91 83.7525 164.821C85.8349 162.673 88.712 161.492 91.8834 161.492H92.1041C98.3587 161.595 105.489 166.221 105.739 172.687H105.732ZM87.0711 171.77C87.2109 175.297 89.8304 177.921 93.1785 177.921H93.2741C95.7759 177.885 98.9032 176.55 100.559 174.813C101.471 173.852 101.935 172.789 101.891 171.741C101.751 168.105 96.6074 165.627 93.2741 165.59C91.5449 165.583 89.9114 166.221 88.734 167.423C87.5935 168.581 87.0048 170.128 87.0711 171.77ZM93.1858 166.353H93.2594C96.269 166.389 101 168.728 101.118 171.77C101.148 172.621 100.772 173.471 99.9923 174.285C98.4691 175.883 95.5699 177.115 93.252 177.151H93.1711C90.2425 177.151 87.9541 174.835 87.8363 171.734C87.7775 170.304 88.2925 168.955 89.2786 167.951C90.2866 166.917 91.67 166.353 93.1785 166.353H93.1858Z" fill="#3AB59A"/>
<path opacity="0.4" d="M555.913 169.185C560.018 162.523 564.254 155.626 569.232 151.522C573.44 148.045 578.775 145.169 584.42 142.114C597.73 134.918 611.5 127.477 611.5 111.417L611.5 111.398C611.491 97.1831 597.833 89.2558 584.627 81.5815C577.855 77.6554 571.458 73.9353 567.156 69.5313C563.296 65.577 560.102 59.9079 556.711 53.9015C549.911 41.8325 542.885 29.3606 529.491 29.5012C509.07 29.7167 488.322 38.8434 472.56 54.5387C456.771 70.2715 447.631 90.9987 447.5 111.389L447.5 111.791C447.5 136.66 462.144 143.276 480.648 151.644L483.249 152.824C491.121 156.404 497.583 164.631 503.839 172.577C511.832 182.744 519.374 192.348 529.491 192.498C541.467 192.667 548.812 180.729 555.913 169.185ZM504.609 171.968C498.287 163.919 491.75 155.607 483.663 151.925L481.061 150.744C462.162 142.208 448.486 136.023 448.486 111.801L448.486 111.389C448.608 91.2517 457.644 70.7775 473.265 55.2228C488.848 39.7055 509.343 30.6912 529.509 30.4757C542.321 30.3351 549.206 42.5634 555.866 54.3794C559.285 60.442 562.507 66.1673 566.461 70.2153C570.857 74.7131 577.31 78.4612 584.138 82.4249C597.101 89.9492 610.514 97.736 610.523 111.389L610.523 111.407C610.523 126.887 597.016 134.187 583.96 141.242C578.268 144.316 572.895 147.221 568.612 150.753C563.512 154.961 559.229 161.923 555.086 168.66C548.126 179.97 540.931 191.674 529.519 191.505C519.882 191.364 512.471 181.938 504.628 171.958L504.609 171.968ZM568.706 149.554C571.768 147.333 575.234 145.262 578.897 143.06C590.939 135.845 604.577 127.684 604.577 112.298L604.577 111.988C604.427 99.0104 591.766 90.4833 580.607 82.959C575.459 79.4919 570.603 76.2217 567.109 72.7172C563.775 69.372 560.694 64.7992 557.434 59.9548C550.023 48.954 542.368 37.569 529.998 37.5034C511.654 37.4004 491.741 46.6208 476.74 62.1755C463.073 76.3435 455.362 93.5943 455.362 109.824C455.362 110.555 455.381 111.285 455.409 112.016C456.245 131.432 469.733 138.862 485.344 147.474C486.302 147.998 487.27 148.533 488.246 149.076C492.83 151.625 497.743 155.926 502.927 160.48C511.935 168.379 521.253 176.541 529.998 176.372C539.879 176.184 548.953 167.545 557.726 159.196C561.567 155.542 565.193 152.093 568.706 149.545L568.706 149.554ZM503.576 159.758C498.344 155.167 493.394 150.838 488.716 148.233C487.739 147.689 486.772 147.155 485.814 146.63C470.456 138.16 457.193 130.851 456.386 111.988C455.653 95.3934 463.346 77.4867 477.445 62.8689C492.267 47.5016 511.907 38.3936 529.998 38.4967C541.842 38.5623 549.357 49.7224 556.627 60.517C559.914 65.3989 563.014 70.0091 566.423 73.42C569.983 76.9901 574.886 80.2884 580.071 83.7836C591.578 91.5328 603.469 99.5445 603.61 112.007L603.61 112.307C603.61 127.131 590.798 134.805 578.409 142.226C574.727 144.428 571.251 146.518 568.142 148.767C564.573 151.353 560.929 154.829 557.059 158.503C548.417 166.72 539.485 175.229 529.988 175.407C521.629 175.566 512.452 167.526 503.585 159.758L503.576 159.758ZM568.274 148.364C569.692 147.427 571.186 146.471 572.726 145.497C584.176 138.216 598.397 129.173 598.397 113.937L598.397 113.516C598.19 101.475 586.956 92.751 577.037 85.0485C573.299 82.1437 569.777 79.4076 567.006 76.6527C564.094 73.7573 561.37 70.2247 558.477 66.4859C550.982 56.7782 543.223 46.7426 531.228 46.4427C515.007 46.0398 497.001 54.5293 483.062 69.1471C470.945 81.8626 463.938 97.2019 463.938 110.751C463.938 111.698 463.975 112.635 464.041 113.562C465.206 129.192 477.895 137.916 493.121 146.921C495.488 148.317 498.128 150.032 500.917 151.84C511.034 158.4 522.493 165.83 531.238 165.587C542.688 165.268 556.486 156.151 567.579 148.832L568.283 148.364L568.274 148.364ZM501.443 151.016C498.644 149.198 495.996 147.483 493.61 146.078C478.628 137.213 466.136 128.649 465.008 113.497C463.966 99.5445 470.982 83.2307 483.757 69.8311C497.508 55.4008 515.242 47.0331 531.191 47.4266C542.716 47.7171 550.333 57.5653 557.688 67.0856C560.6 70.8525 563.352 74.4132 566.301 77.3555C569.119 80.1572 572.67 82.9121 576.427 85.8357C586.167 93.3975 597.204 101.981 597.401 113.544L597.401 113.956C597.401 128.63 584.007 137.157 572.181 144.672C570.641 145.647 569.147 146.602 567.72 147.549L567.015 148.017C556.026 155.27 542.349 164.303 531.191 164.612C522.756 164.846 510.93 157.181 501.434 151.025L501.443 151.016ZM592.771 115.774C592.489 104.295 583.04 95.8432 573.891 87.6629C571.421 85.4515 569.082 83.3619 566.959 81.2348C564.93 79.2015 562.911 76.9057 560.769 74.4601C553.245 65.8768 544.716 56.1504 533.004 56.0848C518.069 56.0005 501.885 63.6467 489.712 76.5496C479.098 87.8034 473.152 101.091 473.152 113.384C473.152 114.2 473.18 115.006 473.227 115.811C473.791 124.516 482.573 135.002 497.311 144.578C509.822 152.712 524.494 158.662 532.975 159.055C545.562 159.636 569.035 148.43 582.232 135.536C589.276 128.658 592.921 121.79 592.771 115.765L592.771 115.774ZM550.906 152.075C549.591 152.403 548.248 152.684 546.867 152.918C546.201 152.955 545.515 152.974 544.801 152.965C532.384 152.777 523.056 143.22 523.056 130.691L523.056 130.57C523.113 118.641 532.863 108.896 544.801 108.859C550.578 108.84 556.608 111.604 560.938 116.261C564.564 120.159 566.583 124.882 566.583 129.389C566.583 129.773 566.564 130.148 566.536 130.532C566.076 136.501 564.103 145.3 556.918 149.901C554.908 150.716 552.888 151.447 550.906 152.065L550.906 152.075ZM562.3 148.748C562.347 148.711 562.394 148.664 562.441 148.626C562.601 148.533 562.76 148.43 562.929 148.326C563.465 148.055 564 147.764 564.526 147.483C563.784 147.914 563.051 148.336 562.3 148.748ZM562.206 147.521C561.633 147.802 561.06 148.083 560.478 148.345C564.056 144.859 566.837 139.331 567.513 130.607C567.908 125.491 565.775 120.019 561.652 115.596C557.134 110.742 550.831 107.856 544.792 107.875C532.327 107.922 522.136 118.098 522.07 130.56L522.07 130.682C522.07 142.404 529.904 151.634 540.875 153.564C540.696 153.574 540.508 153.593 540.33 153.593C526.729 152.009 513.457 142.404 513.457 127.937L513.457 127.824C513.495 120.365 516.857 112.822 522.69 107.116C528.279 101.653 535.53 98.5887 542.594 98.7105C549.92 98.8323 558.609 103.33 564.723 110.17C569.345 115.333 571.824 120.974 571.824 126.222C571.824 126.747 571.796 127.262 571.749 127.777C571.035 135.189 567.879 142.517 562.187 147.511L562.206 147.521ZM566.236 144.775C569.796 140.334 572.097 134.59 572.745 127.89C573.318 121.94 570.735 115.427 565.475 109.543C559.182 102.505 550.211 97.8859 542.622 97.7547C535.295 97.6329 527.791 100.8 522.014 106.441C515.993 112.326 512.518 120.122 512.489 127.843L512.489 127.955C512.489 140.296 521.732 149.226 532.816 152.927C518.67 149.957 504.214 138.591 503.623 124.76C503.237 115.952 506.873 106.891 513.579 99.9193C520.718 92.4886 530.421 88.2438 540.18 88.2719C548.474 88.2907 558.505 93.5193 566.339 101.915C572.942 108.99 576.774 117.011 576.774 123.636C576.774 124.01 576.765 124.385 576.737 124.751C576.155 133.259 572.097 139.968 566.236 144.775ZM577.723 124.816C578.212 117.723 574.22 108.924 567.062 101.25C559.05 92.6573 548.746 87.3162 540.189 87.2974C530.158 87.2787 520.21 91.6265 512.875 99.254C506.309 106.076 502.618 114.856 502.618 123.523C502.618 123.954 502.627 124.385 502.646 124.816C503.153 136.585 513.335 146.63 525.038 151.512C519.694 149.821 514.606 147.41 509.916 144.344C499.978 137.822 494.211 129.745 493.694 121.593C493.056 111.576 497.358 100.913 505.492 92.3199C514.255 83.0714 526.278 77.6179 537.653 77.7116C546.651 77.7959 558.843 84.7112 568.715 95.3278C577.282 104.548 582.119 114.359 581.631 121.593C581.17 128.536 577.338 135.686 571.026 141.467C574.802 137.007 577.272 131.441 577.733 124.826L577.723 124.816ZM582.607 121.649C583.096 114.143 578.174 104.07 569.439 94.6532C559.398 83.8491 546.933 76.812 537.672 76.7277C526.025 76.6246 513.729 82.2 504.787 91.6359C497.001 99.8537 492.652 109.936 492.652 119.606C492.652 120.29 492.67 120.965 492.717 121.649C493.262 130.111 499.18 138.45 509.38 145.15C518.266 150.978 529.096 154.623 537.662 154.642C537.916 154.642 538.179 154.633 538.433 154.633C538.48 154.633 538.527 154.642 538.574 154.642C537.399 154.745 536.272 154.801 535.22 154.783C526.983 154.633 514.443 150.069 503.998 143.416C491.957 135.742 484.602 126.662 483.832 118.501C482.827 107.856 487.166 96.5459 496.052 86.6228C506.563 74.8911 521.572 67.4604 535.22 67.2355C543.73 67.095 556.223 74.4038 567.823 86.3042C579.048 97.8203 586.412 110.48 586.59 118.557C586.59 118.697 586.599 118.838 586.599 118.969C586.599 124.985 583.763 130.87 578.165 136.482C576.718 137.925 575.131 139.303 573.431 140.615C578.954 135.133 582.157 128.583 582.617 121.64L582.607 121.649ZM578.86 137.185C584.787 131.254 587.698 124.966 587.576 118.538C587.201 101.166 554.786 65.9331 535.211 66.261C521.3 66.4953 506.018 74.0478 495.329 85.9762C487.119 95.1404 482.714 105.495 482.714 115.465C482.714 116.514 482.761 117.564 482.864 118.604C484.715 138.085 519.111 155.476 535.211 155.776C537.878 155.823 540.969 155.485 544.275 154.829C546.576 154.829 548.793 154.595 550.897 154.145C544.144 156.807 537.794 158.315 533.041 158.09C516.284 157.313 475.472 134.711 474.232 115.755C473.415 103.068 479.314 89.0309 490.444 77.2337C502.43 64.5275 518.341 56.9937 533.013 57.0781C544.275 57.1437 552.653 66.6921 560.046 75.116C562.197 77.571 564.226 79.8855 566.283 81.9376C568.424 84.0834 570.772 86.1824 573.262 88.4031C582.251 96.4429 591.54 104.745 591.812 115.802L591.812 116.139C591.812 121.837 588.281 128.293 581.565 134.852C580.212 136.173 578.747 137.476 577.197 138.75C577.77 138.235 578.334 137.719 578.869 137.185L578.86 137.185ZM561.887 132.79C561.952 128.386 560.346 124.338 557.322 121.443C554.448 118.679 550.615 117.273 546.548 117.498C537.634 117.985 531.266 124.254 531.266 132.462L531.266 132.8C531.379 138.132 533.905 143.885 537.691 147.464C540.358 149.976 543.439 151.241 546.595 151.128C555.434 150.8 561.746 141.205 561.887 132.8L561.887 132.79ZM546.558 150.135C543.674 150.247 540.837 149.067 538.367 146.743C534.76 143.341 532.355 137.86 532.243 132.772C532.074 124.929 538.113 118.932 546.595 118.473C550.39 118.266 553.959 119.569 556.636 122.146C559.388 124.798 560.9 128.461 560.9 132.5L560.9 132.781C560.769 140.746 554.842 149.826 546.558 150.144L546.558 150.135ZM547.732 126.372C543.214 126.55 539.851 129.886 539.851 134.149L539.851 134.271C539.898 137.457 541.607 141.439 543.834 143.548C545.064 144.71 546.426 145.3 547.769 145.244C552.428 145.066 555.603 138.516 555.65 134.271C555.659 132.069 554.842 129.989 553.302 128.489C551.818 127.037 549.836 126.287 547.732 126.372ZM554.673 134.158L554.673 134.252C554.626 138.085 551.63 144.11 547.732 144.26C546.642 144.297 545.552 143.819 544.51 142.826C542.462 140.886 540.884 137.194 540.837 134.243L540.837 134.14C540.837 130.41 543.805 127.496 547.779 127.346C549.61 127.271 551.338 127.927 552.625 129.183C553.95 130.467 554.673 132.228 554.673 134.149L554.673 134.158Z" fill="#3AB59A"/>
</g>
</svg>
