<svg width="629" height="646" viewBox="0 0 629 646" fill="none" xmlns="http://www.w3.org/2000/svg">
<mask id="mask0_1_1157" style="mask-type:alpha" maskUnits="userSpaceOnUse" x="0" y="0" width="629" height="646">
<rect width="629" height="646" fill="#D9D9D9"/>
</mask>
<g mask="url(#mask0_1_1157)">
<g opacity="0.5">
<path d="M537.644 163.923V228.557L481.689 260.873L425.73 228.557V163.923L481.688 131.612L537.644 163.923ZM416.206 158.423V234.061L481.689 271.877L547.173 234.061V158.424L481.689 120.608L416.205 158.424" fill="#154D3F"/>
<path d="M468.032 284.538V349.165L412.074 381.485L356.118 349.165V284.538L412.073 252.216L468.032 284.538ZM346.589 279.031V354.669L412.073 392.486L477.556 354.669V279.031L412.073 241.215L346.589 279.031Z" fill="white"/>
<path d="M398.414 163.923V228.557L342.459 260.873L286.505 228.557V163.923L342.459 131.612L398.414 163.923ZM276.976 158.423V234.061L342.459 271.877L407.944 234.061V158.424L342.459 120.608L276.976 158.423Z" fill="#60CCB6"/>
<path d="M332.222 284.538V349.169L276.268 381.481L220.308 349.169V284.537L276.266 252.221L332.222 284.538ZM210.784 279.031V354.669L276.268 392.486L341.747 354.669V279.031L276.268 241.215L210.784 279.031ZM328.804 43.3156V107.949L272.85 140.265L216.89 107.949V43.3218L272.849 11.0044L328.804 43.3156ZM207.366 37.8152V113.453L272.85 151.27L338.33 113.453V37.8165L272.85 0L207.365 37.8165" fill="#154D3F"/>
<path d="M280.813 386.985V632.765H271.718V386.985H280.813Z" fill="#154D3F"/>
<path d="M262.592 632.079C262.592 639.636 268.712 645.758 276.267 645.758C283.817 645.758 289.938 639.636 289.938 632.079C289.938 624.525 283.817 618.402 276.267 618.402C268.712 618.402 262.591 624.525 262.591 632.079M215.544 312.301V321.401H129.257V312.301H215.544Z" fill="#154D3F"/>
<path d="M129.936 303.173C122.386 303.173 116.26 309.296 116.26 316.849C116.26 324.406 122.386 330.529 129.936 330.529C137.487 330.529 143.613 324.406 143.613 316.849C143.613 309.296 137.487 303.173 129.936 303.173ZM629.351 191.693V200.792H547.362V191.693H629.351Z" fill="#154D3F"/>
</g>
<g opacity="0.5">
<path d="M277 192V201H233V192H277Z" fill="#60CCB6"/>
<path d="M233.276 182.565C225.725 182.565 219.604 188.687 219.604 196.241C219.604 203.798 225.725 209.921 233.276 209.921C240.826 209.921 246.952 203.798 246.952 196.241C246.952 188.687 240.826 182.565 233.276 182.565Z" fill="#60CCB6"/>
<path d="M477.5 354.5L477 416H468V360L477.5 354.5Z" fill="white"/>
<path d="M459.121 415.022C459.121 422.574 465.242 428.697 472.792 428.697C480.347 428.697 486.468 422.574 486.468 415.022C486.468 407.465 480.348 401.342 472.792 401.342C465.242 401.342 459.121 407.465 459.121 415.022Z" fill="white"/>
<path d="M407.727 60.7313V158L402.5 155L396.5 151.5L398.635 60.7313H407.727ZM575.844 238.769L582.47 234.941L589.098 238.769V246.424L582.47 250.251L575.844 246.424V238.769Z" fill="#60CCB6"/>
<path d="M215.545 445.816L187.817 461.831V493.86L215.545 509.874L243.276 493.86V461.831L215.545 445.816ZM215.545 448.029L241.361 462.934V492.756L215.545 507.662L189.729 492.756V462.934L215.545 448.029ZM307.379 428.766L295.448 435.657V449.439L307.379 456.336L319.315 449.439V435.657L307.379 428.766ZM307.379 429.719L318.489 436.134V448.968L307.379 455.382L296.27 448.968V436.134L307.379 429.719ZM189.023 406.322L205.271 396.935L221.519 406.322V425.089L205.271 434.47L189.023 425.089V406.322ZM419.667 428.766L407.731 435.657V449.439L419.667 456.336L431.599 449.439V435.657L419.667 428.766ZM419.667 429.719L430.776 436.134V448.968L419.668 455.382L408.558 448.968V436.134L419.667 429.719Z" fill="#154D3F"/>
<path d="M365.672 438.083L381.915 428.697L398.163 438.084V456.846L381.917 466.231L365.674 456.844V438.082" fill="#60CCB6"/>
<path d="M73.0891 198.434L59 206.569V222.841L73.0891 230.978L87.1733 222.842V206.57L73.0891 198.433V198.434ZM73.0891 199.557L86.2013 207.134V222.282L73.0891 229.854L59.9708 222.282V207.133L73.0891 199.557Z" fill="#154D3F"/>
<path d="M149.302 229.145L172.596 215.692L195.889 229.145V256.049L172.596 269.5L149.302 256.049V229.145ZM126.267 127.47L139.521 119.813L152.774 127.47V142.779L139.521 150.434L126.267 142.779V127.47ZM122.869 167.703L129.496 163.875L136.122 167.703V175.357L129.496 179.184L122.869 175.357V167.703Z" fill="#60CCB6"/>
<path d="M189.73 134.997L175.645 143.133V159.405L189.73 167.543L203.819 159.407V143.135L189.73 134.997ZM189.73 136.12L202.847 143.692V158.841L189.729 166.418L176.617 158.841V143.692L189.73 136.12Z" fill="#154D3F"/>
<path d="M505.688 95.5912L526.628 107.68L547.563 95.5912V71.4061L526.628 59.311L505.688 71.4061V95.5912Z" fill="#60CCB6"/>
<path d="M547.346 119.309L569.602 106.455V80.7533L547.346 67.9L525.088 80.7533V106.455L547.346 119.309ZM547.346 117.539L526.629 105.57V81.6385L547.346 69.6692L568.066 81.6385V105.57L547.346 117.539Z" fill="#154D3F"/>
</g>
</g>
</svg>
