<svg width="19" height="19" viewBox="0 0 19 19" fill="none" xmlns="http://www.w3.org/2000/svg">
    <g clip-path="url(#clip0_335_2119)">
        <path
            d="M12.1207 6.88373C11.875 6.88373 11.6758 7.08292 11.6758 7.32869V15.7385C11.6758 15.9841 11.875 16.1835 12.1207 16.1835C12.3665 16.1835 12.5657 15.9841 12.5657 15.7385V7.32869C12.5657 7.08292 12.3665 6.88373 12.1207 6.88373Z"
            fill="#3AB59A" />
        <path
            d="M6.87026 6.88373C6.62448 6.88373 6.42529 7.08292 6.42529 7.32869V15.7385C6.42529 15.9841 6.62448 16.1835 6.87026 16.1835C7.11603 16.1835 7.31522 15.9841 7.31522 15.7385V7.32869C7.31522 7.08292 7.11603 6.88373 6.87026 6.88373Z"
            fill="#3AB59A" />
        <mask id="path-3-inside-1_335_2119" fill="white">
            <path
                d="M3.04355 5.65642V16.6194C3.04355 17.2674 3.28116 17.8759 3.69623 18.3125C4.10938 18.7503 4.68436 18.9989 5.2861 18.9999H13.7049C14.3069 18.9989 14.8818 18.7503 15.2948 18.3125C15.7099 17.8759 15.9475 17.2674 15.9475 16.6194V5.65642C16.7726 5.43742 17.3072 4.64031 17.1969 3.79366C17.0863 2.94719 16.3652 2.31398 15.5114 2.31381H13.2332V1.7576C13.2358 1.28987 13.0509 0.840735 12.7198 0.510315C12.3887 0.180069 11.9388 -0.00382648 11.4711 -2.5706e-06H7.51996C7.05222 -0.00382648 6.60239 0.180069 6.27128 0.510315C5.94016 0.840735 5.75522 1.28987 5.75783 1.7576V2.31381H3.47965C2.62588 2.31398 1.90473 2.94719 1.79418 3.79366C1.68381 4.64031 2.21846 5.43742 3.04355 5.65642ZM13.7049 18.11H5.2861C4.52532 18.11 3.93348 17.4565 3.93348 16.6194V5.69553H15.0576V16.6194C15.0576 17.4565 14.4657 18.11 13.7049 18.11ZM6.64776 1.7576C6.6448 1.52591 6.73588 1.30291 6.90031 1.13935C7.06456 0.975788 7.28809 0.885927 7.51996 0.889924H11.4711C11.703 0.885927 11.9265 0.975788 12.0907 1.13935C12.2552 1.30273 12.3462 1.52591 12.3433 1.7576V2.31381H6.64776V1.7576ZM3.47965 3.20373H15.5114C15.9538 3.20373 16.3123 3.56231 16.3123 4.00467C16.3123 4.44703 15.9538 4.8056 15.5114 4.8056H3.47965C3.0373 4.8056 2.67872 4.44703 2.67872 4.00467C2.67872 3.56231 3.0373 3.20373 3.47965 3.20373Z" />
        </mask>
        <path
            d="M3.04355 5.65642V16.6194C3.04355 17.2674 3.28116 17.8759 3.69623 18.3125C4.10938 18.7503 4.68436 18.9989 5.2861 18.9999H13.7049C14.3069 18.9989 14.8818 18.7503 15.2948 18.3125C15.7099 17.8759 15.9475 17.2674 15.9475 16.6194V5.65642C16.7726 5.43742 17.3072 4.64031 17.1969 3.79366C17.0863 2.94719 16.3652 2.31398 15.5114 2.31381H13.2332V1.7576C13.2358 1.28987 13.0509 0.840735 12.7198 0.510315C12.3887 0.180069 11.9388 -0.00382648 11.4711 -2.5706e-06H7.51996C7.05222 -0.00382648 6.60239 0.180069 6.27128 0.510315C5.94016 0.840735 5.75522 1.28987 5.75783 1.7576V2.31381H3.47965C2.62588 2.31398 1.90473 2.94719 1.79418 3.79366C1.68381 4.64031 2.21846 5.43742 3.04355 5.65642ZM13.7049 18.11H5.2861C4.52532 18.11 3.93348 17.4565 3.93348 16.6194V5.69553H15.0576V16.6194C15.0576 17.4565 14.4657 18.11 13.7049 18.11ZM6.64776 1.7576C6.6448 1.52591 6.73588 1.30291 6.90031 1.13935C7.06456 0.975788 7.28809 0.885927 7.51996 0.889924H11.4711C11.703 0.885927 11.9265 0.975788 12.0907 1.13935C12.2552 1.30273 12.3462 1.52591 12.3433 1.7576V2.31381H6.64776V1.7576ZM3.47965 3.20373H15.5114C15.9538 3.20373 16.3123 3.56231 16.3123 4.00467C16.3123 4.44703 15.9538 4.8056 15.5114 4.8056H3.47965C3.0373 4.8056 2.67872 4.44703 2.67872 4.00467C2.67872 3.56231 3.0373 3.20373 3.47965 3.20373Z"
            fill="#3AB59A" />
        <path
            d="M3.04355 5.65642H5.04355V4.11803L3.55665 3.72336L3.04355 5.65642ZM3.69623 18.3125L5.15085 16.9399L5.14576 16.9345L3.69623 18.3125ZM5.2861 18.9999L5.28263 20.9999H5.2861V18.9999ZM13.7049 18.9999V20.9999L13.7084 20.9999L13.7049 18.9999ZM15.2948 18.3125L13.8453 16.9345L13.8399 16.9402L15.2948 18.3125ZM15.9475 5.65642L15.4344 3.72336L13.9475 4.11803V5.65642H15.9475ZM17.1969 3.79366L19.1801 3.53512L19.18 3.53467L17.1969 3.79366ZM15.5114 2.31381L15.5118 0.313808H15.5114V2.31381ZM13.2332 2.31381H11.2332V4.31381H13.2332V2.31381ZM13.2332 1.7576L11.2332 1.74646V1.7576H13.2332ZM12.7198 0.510315L14.1325 -0.905384L14.1321 -0.905756L12.7198 0.510315ZM11.4711 -2.5706e-06V2H11.4793L11.4874 1.99993L11.4711 -2.5706e-06ZM7.51996 -2.5706e-06L7.50361 1.99993L7.51178 2H7.51996V-2.5706e-06ZM6.27128 0.510315L4.85892 -0.905756L4.85855 -0.905384L6.27128 0.510315ZM5.75783 1.7576H7.75786L7.7578 1.74646L5.75783 1.7576ZM5.75783 2.31381V4.31381H7.75783V2.31381H5.75783ZM3.47965 2.31381V0.313808L3.47925 0.313808L3.47965 2.31381ZM1.79418 3.79366L-0.18898 3.53467L-0.189039 3.53512L1.79418 3.79366ZM3.93348 5.69553V3.69553H1.93348V5.69553H3.93348ZM15.0576 5.69553H17.0576V3.69553H15.0576V5.69553ZM6.64776 1.7576H8.64776V1.74485L8.6476 1.7321L6.64776 1.7576ZM6.90031 1.13935L8.31077 2.5573L8.31152 2.55656L6.90031 1.13935ZM7.51996 0.889924L7.48548 2.88963L7.50272 2.88992H7.51996V0.889924ZM11.4711 0.889924V2.88992H11.4883L11.5056 2.88963L11.4711 0.889924ZM12.0907 1.13935L10.6795 2.55656L10.681 2.55805L12.0907 1.13935ZM12.3433 1.7576L10.3435 1.7321L10.3433 1.74485V1.7576H12.3433ZM12.3433 2.31381V4.31381H14.3433V2.31381H12.3433ZM6.64776 2.31381H4.64776V4.31381H6.64776V2.31381ZM1.04355 5.65642V16.6194H5.04355V5.65642H1.04355ZM1.04355 16.6194C1.04355 17.7483 1.45681 18.8596 2.24669 19.6905L5.14576 16.9345C5.10551 16.8922 5.04355 16.7864 5.04355 16.6194H1.04355ZM2.24161 19.6851C3.03174 20.5225 4.13148 20.9979 5.28263 20.9999L5.28957 16.9999C5.23724 16.9999 5.18702 16.9782 5.15084 16.9399L2.24161 19.6851ZM5.2861 20.9999H13.7049V16.9999H5.2861V20.9999ZM13.7084 20.9999C14.8596 20.9979 15.9595 20.5226 16.7497 19.6848L13.8399 16.9402C13.8041 16.9781 13.7541 16.9999 13.7015 16.9999L13.7084 20.9999ZM16.7444 19.6905C17.5342 18.8596 17.9475 17.7483 17.9475 16.6194H13.9475C13.9475 16.7864 13.8855 16.8922 13.8453 16.9345L16.7444 19.6905ZM17.9475 16.6194V5.65642H13.9475V16.6194H17.9475ZM16.4606 7.58949C18.2567 7.11273 19.4203 5.37763 19.1801 3.53512L15.2137 4.0522C15.1942 3.90298 15.2884 3.7621 15.4344 3.72336L16.4606 7.58949ZM19.18 3.53467C18.9394 1.69223 17.3698 0.314186 15.5118 0.313808L15.511 4.31381C15.3606 4.31378 15.2332 4.20214 15.2137 4.05265L19.18 3.53467ZM15.5114 0.313808H13.2332V4.31381H15.5114V0.313808ZM15.2332 2.31381V1.7576H11.2332V2.31381H15.2332ZM15.2332 1.76875C15.2388 0.765717 14.8421 -0.197242 14.1325 -0.905384L11.307 1.92601C11.2596 1.87871 11.2329 1.81402 11.2332 1.74646L15.2332 1.76875ZM14.1321 -0.905756C13.4222 -1.61385 12.4578 -2.00814 11.4547 -1.99994L11.4874 1.99993C11.4199 2.00048 11.3551 1.97399 11.3074 1.92639L14.1321 -0.905756ZM11.4711 -2H7.51996V2H11.4711V-2ZM7.53631 -1.99994C6.53327 -2.00814 5.56888 -1.61385 4.85892 -0.905756L7.68363 1.92639C7.63591 1.97398 7.57118 2.00048 7.50361 1.99993L7.53631 -1.99994ZM4.85855 -0.905384C4.14892 -0.19724 3.75227 0.765719 3.75786 1.76875L7.7578 1.74646C7.75818 1.81402 7.73141 1.87871 7.684 1.92601L4.85855 -0.905384ZM3.75783 1.7576V2.31381H7.75783V1.7576H3.75783ZM5.75783 0.313808H3.47965V4.31381H5.75783V0.313808ZM3.47925 0.313808C1.6213 0.314186 0.0516341 1.69223 -0.18898 3.53467L3.77734 4.05265C3.75782 4.20214 3.63046 4.31378 3.48006 4.31381L3.47925 0.313808ZM-0.189039 3.53512C-0.429235 5.37763 0.734305 7.11273 2.53046 7.58949L3.55665 3.72336C3.70261 3.7621 3.79685 3.90298 3.7774 4.0522L-0.189039 3.53512ZM13.7049 16.11H5.2861V20.11H13.7049V16.11ZM5.2861 16.11C5.50477 16.11 5.69394 16.2115 5.80602 16.3351C5.91237 16.4523 5.93348 16.5652 5.93348 16.6194H1.93348C1.93348 18.3726 3.24125 20.11 5.2861 20.11V16.11ZM5.93348 16.6194V5.69553H1.93348V16.6194H5.93348ZM3.93348 7.69553H15.0576V3.69553H3.93348V7.69553ZM13.0576 5.69553V16.6194H17.0576V5.69553H13.0576ZM13.0576 16.6194C13.0576 16.5652 13.0787 16.4523 13.185 16.3351C13.2971 16.2115 13.4863 16.11 13.7049 16.11V20.11C15.7498 20.11 17.0576 18.3726 17.0576 16.6194H13.0576ZM8.6476 1.7321C8.65155 2.04188 8.5297 2.33954 8.31077 2.5573L5.48985 -0.278609C4.94207 0.266276 4.63806 1.00994 4.64792 1.78311L8.6476 1.7321ZM8.31152 2.55656C8.09155 2.7756 7.79314 2.89493 7.48548 2.88963L7.55443 -1.10978C6.78304 -1.12308 6.03758 -0.82402 5.4891 -0.277862L8.31152 2.55656ZM7.51996 2.88992H11.4711V-1.11008H7.51996V2.88992ZM11.5056 2.88963C11.1979 2.89493 10.8995 2.7756 10.6795 2.55656L13.502 -0.277862C12.9535 -0.824021 12.208 -1.12308 11.4366 -1.10978L11.5056 2.88963ZM10.681 2.55805C10.4609 2.33937 10.3395 2.04127 10.3435 1.7321L14.3431 1.78311C14.353 1.01055 14.0494 0.266099 13.5004 -0.279358L10.681 2.55805ZM10.3433 1.7576V2.31381H14.3433V1.7576H10.3433ZM12.3433 0.313808H6.64776V4.31381H12.3433V0.313808ZM8.64776 2.31381V1.7576H4.64776V2.31381H8.64776ZM3.47965 5.20373H15.5114V1.20373H3.47965V5.20373ZM15.5114 5.20373C14.8492 5.20373 14.3123 4.66688 14.3123 4.00467H18.3123C18.3123 2.45774 17.0583 1.20373 15.5114 1.20373V5.20373ZM14.3123 4.00467C14.3123 3.34246 14.8492 2.8056 15.5114 2.8056V6.8056C17.0583 6.8056 18.3123 5.55159 18.3123 4.00467H14.3123ZM15.5114 2.8056H3.47965V6.8056H15.5114V2.8056ZM3.47965 2.8056C4.14187 2.8056 4.67872 3.34246 4.67872 4.00467H0.678719C0.678719 5.55159 1.93273 6.8056 3.47965 6.8056V2.8056ZM4.67872 4.00467C4.67872 4.66688 4.14187 5.20373 3.47965 5.20373V1.20373C1.93273 1.20373 0.678719 2.45774 0.678719 4.00467H4.67872Z"
            fill="#3AB59A" mask="url(#path-3-inside-1_335_2119)" />
        <path
            d="M9.4955 6.88373C9.24973 6.88373 9.05054 7.08292 9.05054 7.32869V15.7385C9.05054 15.9841 9.24973 16.1835 9.4955 16.1835C9.74127 16.1835 9.94046 15.9841 9.94046 15.7385V7.32869C9.94046 7.08292 9.74127 6.88373 9.4955 6.88373Z"
            fill="#3AB59A" />
    </g>
    <defs>
        <clipPath id="clip0_335_2119">
            <rect width="19" height="19" fill="white" />
        </clipPath>
    </defs>
</svg>
