<svg xmlns="http://www.w3.org/2000/svg" xmlns:xlink="http://www.w3.org/1999/xlink" width="500" zoomAndPan="magnify" viewBox="0 0 375 374.999991" height="500" preserveAspectRatio="xMidYMid meet" version="1.0"><defs><g/><clipPath id="e9730217d4"><path d="M 81.714844 178 L 89 178 L 89 185 L 81.714844 185 Z M 81.714844 178 " clip-rule="nonzero"/></clipPath><clipPath id="d7c8c6b878"><path d="M 86 162.324219 L 139.464844 162.324219 L 139.464844 196.074219 L 86 196.074219 Z M 86 162.324219 " clip-rule="nonzero"/></clipPath></defs><g clip-path="url(#e9730217d4)"><path fill="#3ab59a" d="M 84.992188 178.605469 C 86.804688 178.605469 88.269531 179.976562 88.269531 181.664062 C 88.269531 183.351562 86.804688 184.71875 84.992188 184.71875 C 83.183594 184.71875 81.714844 183.351562 81.714844 181.664062 C 81.714844 179.976562 83.183594 178.605469 84.992188 178.605469 Z M 84.992188 178.605469 " fill-opacity="1" fill-rule="evenodd"/></g><path fill="#3ab59a" d="M 93.628906 179.414062 C 95.285156 179.414062 96.625 180.664062 96.625 182.207031 C 96.625 183.746094 95.285156 184.996094 93.628906 184.996094 C 91.976562 184.996094 90.636719 183.746094 90.636719 182.207031 C 90.636719 180.664062 91.976562 179.414062 93.628906 179.414062 Z M 93.628906 179.414062 " fill-opacity="1" fill-rule="evenodd"/><path fill="#3ab59a" d="M 84.359375 188.167969 C 85.410156 188.167969 86.257812 188.960938 86.257812 189.9375 C 86.257812 190.914062 85.410156 191.707031 84.359375 191.707031 C 83.3125 191.707031 82.464844 190.914062 82.464844 189.9375 C 82.464844 188.960938 83.3125 188.167969 84.359375 188.167969 Z M 84.359375 188.167969 " fill-opacity="1" fill-rule="evenodd"/><g clip-path="url(#d7c8c6b878)"><path fill="#3ab59a" d="M 127.753906 162.335938 C 134.675781 182.582031 133.035156 178.140625 139.464844 196.066406 L 128.667969 196.066406 L 123.058594 179.589844 L 117.234375 196.066406 L 108.921875 196.066406 L 103.09375 179.589844 L 97.488281 196.066406 L 86.691406 196.066406 L 90.386719 185.757812 C 91.273438 186.441406 92.414062 186.851562 93.660156 186.851562 C 96.488281 186.851562 98.777344 184.738281 98.777344 182.136719 C 98.777344 179.535156 96.488281 177.425781 93.660156 177.425781 C 93.515625 177.425781 93.375 177.429688 93.234375 177.441406 L 95.402344 171.101562 C 95.585938 171.128906 95.769531 171.140625 95.960938 171.140625 C 98.058594 171.140625 99.757812 169.523438 99.757812 167.527344 C 99.757812 166.132812 98.929688 164.925781 97.722656 164.320312 L 98.398438 162.335938 L 108.015625 162.335938 L 113.078125 178.140625 L 118.140625 162.335938 L 127.757812 162.335938 Z M 93.5 190.074219 C 94.546875 190.074219 95.394531 190.867188 95.394531 191.84375 C 95.394531 192.820312 94.546875 193.613281 93.5 193.613281 C 92.449219 193.613281 91.601562 192.820312 91.601562 191.84375 C 91.601562 190.867188 92.449219 190.074219 93.5 190.074219 Z M 93.5 190.074219 " fill-opacity="1" fill-rule="evenodd"/></g><path fill="#3ab59a" d="M 95.867188 165.410156 C 97.167969 165.410156 98.226562 166.394531 98.226562 167.605469 C 98.226562 168.820312 97.167969 169.804688 95.867188 169.804688 C 94.566406 169.804688 93.507812 168.820312 93.507812 167.605469 C 93.507812 166.390625 94.566406 165.410156 95.867188 165.410156 Z M 95.867188 165.410156 " fill-opacity="1" fill-rule="evenodd"/><g fill="#3ab59a" fill-opacity="1"><g transform="translate(141.947676, 196.02175)"><g><path d="M 23.109375 -14.3125 L 23.109375 -16.84375 L 8.046875 -16.84375 L 8.046875 -6.171875 L 29.6875 -6.171875 L 29.6875 0 L 5.125 0 C 4.695312 0 4.257812 -0.101562 3.8125 -0.3125 C 3.375 -0.53125 2.976562 -0.8125 2.625 -1.15625 C 2.28125 -1.507812 2 -1.90625 1.78125 -2.34375 C 1.570312 -2.789062 1.46875 -3.242188 1.46875 -3.703125 L 1.46875 -19.3125 C 1.46875 -19.769531 1.570312 -20.21875 1.78125 -20.65625 C 2 -21.09375 2.28125 -21.488281 2.625 -21.84375 C 2.976562 -22.195312 3.375 -22.476562 3.8125 -22.6875 C 4.257812 -22.90625 4.695312 -23.015625 5.125 -23.015625 L 26.03125 -23.015625 C 26.457031 -23.015625 26.890625 -22.90625 27.328125 -22.6875 C 27.773438 -22.476562 28.171875 -22.195312 28.515625 -21.84375 C 28.867188 -21.488281 29.148438 -21.09375 29.359375 -20.65625 C 29.578125 -20.21875 29.6875 -19.769531 29.6875 -19.3125 L 29.6875 -12.390625 C 29.6875 -11.941406 29.578125 -11.492188 29.359375 -11.046875 C 29.148438 -10.609375 28.867188 -10.210938 28.515625 -9.859375 C 28.171875 -9.503906 27.773438 -9.21875 27.328125 -9 C 26.890625 -8.789062 26.457031 -8.6875 26.03125 -8.6875 L 10.5625 -8.6875 L 10.5625 -14.3125 Z M 23.109375 -14.3125 "/></g></g></g><g fill="#3ab59a" fill-opacity="1"><g transform="translate(173.102086, 196.02175)"><g/></g></g><g fill="#3ab59a" fill-opacity="1"><g transform="translate(189.618894, 196.02175)"><g/></g></g><g fill="#3ab59a" fill-opacity="1"><g transform="translate(206.133267, 196.02175)"><g><path d="M 23.109375 -14.3125 L 23.109375 -16.84375 L 8.046875 -16.84375 L 8.046875 -6.171875 L 29.6875 -6.171875 L 29.6875 0 L 5.125 0 C 4.695312 0 4.257812 -0.101562 3.8125 -0.3125 C 3.375 -0.53125 2.976562 -0.8125 2.625 -1.15625 C 2.28125 -1.507812 2 -1.90625 1.78125 -2.34375 C 1.570312 -2.789062 1.46875 -3.242188 1.46875 -3.703125 L 1.46875 -19.3125 C 1.46875 -19.769531 1.570312 -20.21875 1.78125 -20.65625 C 2 -21.09375 2.28125 -21.488281 2.625 -21.84375 C 2.976562 -22.195312 3.375 -22.476562 3.8125 -22.6875 C 4.257812 -22.90625 4.695312 -23.015625 5.125 -23.015625 L 26.03125 -23.015625 C 26.457031 -23.015625 26.890625 -22.90625 27.328125 -22.6875 C 27.773438 -22.476562 28.171875 -22.195312 28.515625 -21.84375 C 28.867188 -21.488281 29.148438 -21.09375 29.359375 -20.65625 C 29.578125 -20.21875 29.6875 -19.769531 29.6875 -19.3125 L 29.6875 -12.390625 C 29.6875 -11.941406 29.578125 -11.492188 29.359375 -11.046875 C 29.148438 -10.609375 28.867188 -10.210938 28.515625 -9.859375 C 28.171875 -9.503906 27.773438 -9.21875 27.328125 -9 C 26.890625 -8.789062 26.457031 -8.6875 26.03125 -8.6875 L 10.5625 -8.6875 L 10.5625 -14.3125 Z M 23.109375 -14.3125 "/></g></g></g><g fill="#3ab59a" fill-opacity="1"><g transform="translate(237.291015, 196.02175)"><g><path d="M 8.046875 -23.015625 L 1.46875 -23.015625 L 1.46875 0 L 8.046875 0 L 8.046875 -8.6875 L 14.28125 -8.6875 L 21.875 0 L 30.0625 0 L 20.078125 -11.484375 L 30.0625 -23.015625 L 21.875 -23.015625 L 14.28125 -14.3125 L 8.046875 -14.3125 Z M 8.046875 -23.015625 "/></g></g></g><g fill="#3ab59a" fill-opacity="1"><g transform="translate(267.991234, 196.02175)"><g><path d="M 5.125 0 L 26.21875 0 C 26.644531 0 27.078125 -0.101562 27.515625 -0.3125 C 27.960938 -0.53125 28.359375 -0.8125 28.703125 -1.15625 C 29.054688 -1.507812 29.335938 -1.90625 29.546875 -2.34375 C 29.765625 -2.789062 29.875 -3.242188 29.875 -3.703125 L 29.875 -8.921875 L 23.28125 -8.921875 L 23.28125 -6.171875 L 8.046875 -6.171875 L 8.046875 -16.84375 L 23.28125 -16.84375 L 23.28125 -14.09375 L 29.875 -14.09375 L 29.875 -19.3125 C 29.875 -19.769531 29.765625 -20.21875 29.546875 -20.65625 C 29.335938 -21.09375 29.054688 -21.488281 28.703125 -21.84375 C 28.359375 -22.195312 27.960938 -22.476562 27.515625 -22.6875 C 27.078125 -22.90625 26.644531 -23.015625 26.21875 -23.015625 L 5.125 -23.015625 C 4.695312 -23.015625 4.257812 -22.90625 3.8125 -22.6875 C 3.375 -22.476562 2.976562 -22.195312 2.625 -21.84375 C 2.28125 -21.488281 2 -21.09375 1.78125 -20.65625 C 1.570312 -20.21875 1.46875 -19.769531 1.46875 -19.3125 L 1.46875 -3.703125 C 1.46875 -3.242188 1.570312 -2.789062 1.78125 -2.34375 C 2 -1.90625 2.28125 -1.507812 2.625 -1.15625 C 2.976562 -0.8125 3.375 -0.53125 3.8125 -0.3125 C 4.257812 -0.101562 4.695312 0 5.125 0 Z M 5.125 0 "/></g></g></g><g fill="#3ab59a" fill-opacity="1"><g transform="translate(174.576643, 196.321774)"><g><path d="M 27.257812 0 C 28.015625 0 28.59375 -0.578125 28.59375 -1.335938 L 28.59375 -22.492188 C 28.59375 -23.25 28.015625 -23.828125 27.257812 -23.828125 L 17.371094 -23.828125 C 12.46875 -23.828125 7.792969 -22.582031 6.457031 -17.234375 L 3.472656 -5.253906 L 1.78125 -5.253906 C 1.023438 -5.253906 0.445312 -4.675781 0.445312 -3.917969 L 0.445312 -1.335938 C 0.445312 -0.578125 1.023438 0 1.78125 0 Z M 10.601562 -5.253906 L 13.136719 -15.367188 C 13.761719 -17.726562 15.1875 -18.570312 17.148438 -18.570312 L 21.066406 -18.570312 L 21.066406 -5.253906 Z M 10.601562 -5.253906 "/></g></g></g><path stroke-linecap="butt" transform="matrix(0.750662, 0, 0, 0.75, 135.145294, 165.888241)" fill="none" stroke-linejoin="miter" d="M -0.00101614 1.99797 L 123.900019 1.99797 " stroke="#3ab59a" stroke-width="4" stroke-opacity="1" stroke-miterlimit="4"/><path stroke-linecap="butt" transform="matrix(0.750662, 0, 0, 0.75, 204.838863, 165.888241)" fill="none" stroke-linejoin="miter" d="M 0.00130645 1.99797 L 123.897138 1.99797 " stroke="#3ab59a" stroke-width="4" stroke-opacity="1" stroke-miterlimit="4"/><path stroke-linecap="butt" transform="matrix(0.750662, 0, 0, 0.75, 72.974193, 201.749372)" fill="none" stroke-linejoin="miter" d="M -0.0020476 2.000837 L 123.898987 2.000837 " stroke="#3ab59a" stroke-width="4" stroke-opacity="1" stroke-miterlimit="4"/><path stroke-linecap="butt" transform="matrix(0.750662, 0, 0, 0.75, 136.72958, 201.749372)" fill="none" stroke-linejoin="miter" d="M 0.00118459 2.000837 L 123.90222 2.000837 " stroke="#3ab59a" stroke-width="4" stroke-opacity="1" stroke-miterlimit="4"/><path stroke-linecap="butt" transform="matrix(0.750662, 0, 0, 0.75, 206.423137, 201.749372)" fill="none" stroke-linejoin="miter" d="M -0.00168058 2.000837 L 123.899354 2.000837 " stroke="#3ab59a" stroke-width="4" stroke-opacity="1" stroke-miterlimit="4"/><g fill="#3ab59a" fill-opacity="1"><g transform="translate(74.637745, 217.618629)"><g><path d="M 7.148438 -6.878906 L 6.796875 -6.878906 L 4.730469 -3.726562 C 4.578125 -3.496094 4.429688 -3.253906 4.289062 -3.011719 C 4.148438 -3.253906 3.996094 -3.496094 3.847656 -3.726562 L 1.789062 -6.878906 L 1.4375 -6.878906 L 0.433594 0 L 1.597656 0 L 2.117188 -3.683594 C 2.148438 -3.925781 2.1875 -4.148438 2.199219 -4.410156 C 2.328125 -4.175781 2.46875 -3.957031 2.621094 -3.746094 L 4.167969 -1.375 L 4.410156 -1.375 L 5.964844 -3.746094 C 6.105469 -3.957031 6.246094 -4.167969 6.367188 -4.386719 C 6.386719 -4.15625 6.417969 -3.9375 6.445312 -3.695312 L 6.988281 0 L 8.152344 0 Z M 7.148438 -6.878906 "/></g></g></g><g fill="#3ab59a" fill-opacity="1"><g transform="translate(86.463523, 217.618629)"><g><path d="M 2.019531 -1.042969 L 2.019531 -2.960938 L 4.738281 -2.960938 L 4.738281 -3.976562 L 2.019531 -3.976562 L 2.019531 -5.785156 L 5.132812 -5.785156 L 5.132812 -6.828125 L 0.832031 -6.828125 L 0.832031 0 L 5.222656 0 L 5.222656 -1.042969 Z M 2.019531 -1.042969 "/></g></g></g><g fill="#3ab59a" fill-opacity="1"><g transform="translate(95.348573, 217.618629)"><g><path d="M 6.085938 -1.09375 L 6.085938 -6.828125 L 1.847656 -6.828125 L 1.496094 -3.445312 C 1.40625 -2.5 1.203125 -1.796875 0.84375 -1.09375 L 0.0507812 -1.09375 L 0.0507812 1.527344 L 1.164062 1.527344 L 1.164062 0 L 5.792969 0 L 5.792969 1.527344 L 6.917969 1.527344 L 6.917969 -1.09375 Z M 2.640625 -3.222656 L 2.910156 -5.734375 L 4.921875 -5.734375 L 4.921875 -1.09375 L 2.097656 -1.09375 C 2.378906 -1.757812 2.550781 -2.410156 2.640625 -3.222656 Z M 2.640625 -3.222656 "/></g></g></g><g fill="#3ab59a" fill-opacity="1"><g transform="translate(105.719045, 217.618629)"><g><path d="M 6.335938 -6.867188 L 2.78125 -3.082031 C 2.5 -2.792969 2.230469 -2.480469 1.988281 -2.1875 C 2.007812 -2.511719 2.019531 -2.832031 2.019531 -3.152344 L 2.019531 -6.828125 L 0.832031 -6.828125 L 0.832031 0.0390625 L 1.183594 0.0390625 L 4.75 -3.785156 C 5 -4.058594 5.273438 -4.347656 5.53125 -4.648438 C 5.511719 -4.316406 5.503906 -3.988281 5.503906 -3.675781 L 5.503906 0 L 6.6875 0 L 6.6875 -6.867188 Z M 6.335938 -6.867188 "/></g></g></g><g fill="#3ab59a" fill-opacity="1"><g transform="translate(116.490981, 217.618629)"><g><path d="M 6.265625 -1.09375 L 6.265625 -6.828125 L 5.082031 -6.828125 L 5.082031 -1.09375 L 2.019531 -1.09375 L 2.019531 -6.828125 L 0.832031 -6.828125 L 0.832031 0 L 6.023438 0 L 6.023438 1.527344 L 7.140625 1.527344 L 7.140625 -1.09375 Z M 6.265625 -1.09375 "/></g></g></g><g fill="#3ab59a" fill-opacity="1"><g transform="translate(127.082256, 217.618629)"><g><path d="M 6.335938 -6.867188 L 2.78125 -3.082031 C 2.5 -2.792969 2.230469 -2.480469 1.988281 -2.1875 C 2.007812 -2.511719 2.019531 -2.832031 2.019531 -3.152344 L 2.019531 -6.828125 L 0.832031 -6.828125 L 0.832031 0.0390625 L 1.183594 0.0390625 L 4.75 -3.785156 C 5 -4.058594 5.273438 -4.347656 5.53125 -4.648438 C 5.511719 -4.316406 5.503906 -3.988281 5.503906 -3.675781 L 5.503906 0 L 6.6875 0 L 6.6875 -6.867188 Z M 6.335938 -6.867188 "/></g></g></g><g fill="#3ab59a" fill-opacity="1"><g transform="translate(137.854191, 217.618629)"><g><path d="M 0.832031 0 L 2.019531 0 L 2.019531 -2.890625 L 5.34375 -2.890625 L 5.34375 0 L 6.527344 0 L 6.527344 -6.828125 L 5.34375 -6.828125 L 5.34375 -3.988281 L 2.019531 -3.988281 L 2.019531 -6.828125 L 0.832031 -6.828125 Z M 0.832031 0 "/></g></g></g><g fill="#3ab59a" fill-opacity="1"><g transform="translate(148.465539, 217.618629)"><g><path d="M 3.976562 0.128906 C 5.140625 0.128906 6.066406 -0.332031 6.726562 -1.144531 L 5.984375 -1.90625 C 5.53125 -1.316406 4.871094 -0.945312 3.996094 -0.945312 C 2.609375 -0.945312 1.675781 -2.027344 1.675781 -3.425781 C 1.675781 -4.859375 2.640625 -5.882812 4.035156 -5.882812 C 4.871094 -5.882812 5.472656 -5.601562 5.964844 -5.152344 L 6.578125 -5.953125 C 5.8125 -6.648438 5.039062 -6.957031 4.007812 -6.957031 C 1.9375 -6.957031 0.460938 -5.472656 0.460938 -3.425781 C 0.460938 -1.457031 1.867188 0.128906 3.976562 0.128906 Z M 3.976562 0.128906 "/></g></g></g><g fill="#3ab59a" fill-opacity="1"><g transform="translate(158.665384, 217.618629)"><g><path d="M 3.121094 -3.445312 L 5.8125 -6.796875 L 5.8125 -6.828125 L 4.46875 -6.828125 L 2.019531 -3.765625 L 2.019531 -6.828125 L 0.832031 -6.828125 L 0.832031 0 L 2.019531 0 L 2.019531 -3.050781 L 4.628906 0 L 6.023438 0 L 6.023438 -0.0390625 Z M 3.121094 -3.445312 "/></g></g></g><g fill="#3ab59a" fill-opacity="1"><g transform="translate(168.00208, 217.618629)"><g><path d="M 3.636719 -6.867188 L 3.273438 -6.867188 L 0.0507812 -0.0195312 L 0.0507812 0 L 1.296875 0 L 1.859375 -1.234375 L 5.050781 -1.234375 L 5.613281 0 L 6.847656 0 L 6.847656 -0.03125 Z M 3.453125 -4.960938 C 3.613281 -4.519531 3.753906 -4.15625 3.917969 -3.796875 L 4.660156 -2.167969 L 2.25 -2.167969 L 2.992188 -3.796875 C 3.152344 -4.167969 3.292969 -4.519531 3.453125 -4.960938 Z M 3.453125 -4.960938 "/></g></g></g><g fill="#3ab59a" fill-opacity="1"><g transform="translate(178.151749, 217.618629)"><g><path d="M 2.792969 -6.828125 C 1.335938 -6.828125 0.472656 -5.882812 0.472656 -4.710938 C 0.472656 -3.824219 0.984375 -3.011719 1.949219 -2.730469 L 0.191406 -0.0390625 L 0.191406 0 L 1.507812 0 L 3.171875 -2.621094 L 4.347656 -2.621094 L 4.347656 0 L 5.53125 0 L 5.53125 -6.828125 Z M 4.347656 -3.585938 L 2.902344 -3.585938 C 2.128906 -3.585938 1.65625 -4.027344 1.65625 -4.699219 C 1.65625 -5.363281 2.128906 -5.804688 2.902344 -5.804688 L 4.347656 -5.804688 Z M 4.347656 -3.585938 "/></g></g></g><g fill="#3ab59a" fill-opacity="1"><g transform="translate(187.769476, 217.618629)"><g/></g></g><g fill="#3ab59a" fill-opacity="1"><g transform="translate(193.282221, 217.618629)"><g><path d="M 0.242188 0.0820312 C 1.71875 0 2.46875 -0.832031 2.730469 -3.113281 L 3.023438 -5.734375 L 5.101562 -5.734375 L 5.101562 0 L 6.285156 0 L 6.285156 -6.828125 L 2 -6.828125 L 1.625 -3.496094 C 1.414062 -1.65625 1.085938 -0.992188 0.0820312 -0.914062 Z M 0.242188 0.0820312 "/></g></g></g><g fill="#3ab59a" fill-opacity="1"><g transform="translate(203.652696, 217.618629)"><g><path d="M 3.636719 -6.867188 L 3.273438 -6.867188 L 0.0507812 -0.0195312 L 0.0507812 0 L 1.296875 0 L 1.859375 -1.234375 L 5.050781 -1.234375 L 5.613281 0 L 6.847656 0 L 6.847656 -0.03125 Z M 3.453125 -4.960938 C 3.613281 -4.519531 3.753906 -4.15625 3.917969 -3.796875 L 4.660156 -2.167969 L 2.25 -2.167969 L 2.992188 -3.796875 C 3.152344 -4.167969 3.292969 -4.519531 3.453125 -4.960938 Z M 3.453125 -4.960938 "/></g></g></g><g fill="#3ab59a" fill-opacity="1"><g transform="translate(213.802364, 217.618629)"><g><path d="M 0.832031 0 L 3.574219 0 C 5.019531 0 5.875 -0.972656 5.875 -2.070312 C 5.875 -3.144531 5.019531 -4.128906 3.574219 -4.128906 L 2.019531 -4.128906 L 2.019531 -5.773438 L 5.28125 -5.773438 L 5.28125 -6.828125 L 0.832031 -6.828125 Z M 2.019531 -0.992188 L 2.019531 -3.144531 L 3.445312 -3.144531 C 4.21875 -3.144531 4.691406 -2.730469 4.691406 -2.070312 C 4.691406 -1.394531 4.21875 -0.992188 3.445312 -0.992188 Z M 2.019531 -0.992188 "/></g></g></g><g fill="#3ab59a" fill-opacity="1"><g transform="translate(223.299648, 217.618629)"><g><path d="M 4.015625 0.128906 C 6.125 0.128906 7.570312 -1.425781 7.570312 -3.425781 C 7.570312 -5.472656 6.125 -6.957031 4.015625 -6.957031 C 1.929688 -6.957031 0.460938 -5.472656 0.460938 -3.425781 C 0.460938 -1.425781 1.929688 0.128906 4.015625 0.128906 Z M 4.015625 -0.945312 C 2.589844 -0.945312 1.675781 -2.046875 1.675781 -3.425781 C 1.675781 -4.839844 2.589844 -5.882812 4.015625 -5.882812 C 5.453125 -5.882812 6.367188 -4.839844 6.367188 -3.425781 C 6.367188 -2.046875 5.453125 -0.945312 4.015625 -0.945312 Z M 4.015625 -0.945312 "/></g></g></g><g fill="#3ab59a" fill-opacity="1"><g transform="translate(234.583448, 217.618629)"><g><path d="M 0.832031 0 L 2.019531 0 L 2.019531 -2.492188 L 3.433594 -2.492188 C 4.941406 -2.492188 5.742188 -3.515625 5.742188 -4.628906 C 5.742188 -5.753906 4.921875 -6.828125 3.453125 -6.828125 L 0.832031 -6.828125 Z M 2.019531 -3.503906 L 2.019531 -5.792969 L 3.332031 -5.792969 C 4.085938 -5.792969 4.550781 -5.28125 4.550781 -4.640625 C 4.550781 -4.058594 4.167969 -3.503906 3.304688 -3.503906 Z M 2.019531 -3.503906 "/></g></g></g><g fill="#3ab59a" fill-opacity="1"><g transform="translate(243.839855, 217.618629)"><g><path d="M 3.636719 -6.867188 L 3.273438 -6.867188 L 0.0507812 -0.0195312 L 0.0507812 0 L 1.296875 0 L 1.859375 -1.234375 L 5.050781 -1.234375 L 5.613281 0 L 6.847656 0 L 6.847656 -0.03125 Z M 3.453125 -4.960938 C 3.613281 -4.519531 3.753906 -4.15625 3.917969 -3.796875 L 4.660156 -2.167969 L 2.25 -2.167969 L 2.992188 -3.796875 C 3.152344 -4.167969 3.292969 -4.519531 3.453125 -4.960938 Z M 3.453125 -4.960938 "/></g></g></g><g fill="#3ab59a" fill-opacity="1"><g transform="translate(253.989515, 217.618629)"><g><path d="M 5.242188 -6.828125 L 0.191406 -6.828125 L 0.191406 -5.734375 L 2.128906 -5.734375 L 2.128906 0 L 3.3125 0 L 3.3125 -5.734375 L 5.242188 -5.734375 Z M 5.242188 -6.828125 "/></g></g></g><g fill="#3ab59a" fill-opacity="1"><g transform="translate(262.683858, 217.618629)"><g><path d="M 4.015625 0.128906 C 6.125 0.128906 7.570312 -1.425781 7.570312 -3.425781 C 7.570312 -5.472656 6.125 -6.957031 4.015625 -6.957031 C 1.929688 -6.957031 0.460938 -5.472656 0.460938 -3.425781 C 0.460938 -1.425781 1.929688 0.128906 4.015625 0.128906 Z M 4.015625 -0.945312 C 2.589844 -0.945312 1.675781 -2.046875 1.675781 -3.425781 C 1.675781 -4.839844 2.589844 -5.882812 4.015625 -5.882812 C 5.453125 -5.882812 6.367188 -4.839844 6.367188 -3.425781 C 6.367188 -2.046875 5.453125 -0.945312 4.015625 -0.945312 Z M 4.015625 -0.945312 "/></g></g></g><g fill="#3ab59a" fill-opacity="1"><g transform="translate(273.967658, 217.618629)"><g><path d="M 0.832031 0 L 2.019531 0 L 2.019531 -2.492188 L 3.433594 -2.492188 C 4.941406 -2.492188 5.742188 -3.515625 5.742188 -4.628906 C 5.742188 -5.753906 4.921875 -6.828125 3.453125 -6.828125 L 0.832031 -6.828125 Z M 2.019531 -3.503906 L 2.019531 -5.792969 L 3.332031 -5.792969 C 4.085938 -5.792969 4.550781 -5.28125 4.550781 -4.640625 C 4.550781 -4.058594 4.167969 -3.503906 3.304688 -3.503906 Z M 2.019531 -3.503906 "/></g></g></g><g fill="#3ab59a" fill-opacity="1"><g transform="translate(283.224064, 217.618629)"><g><path d="M 6.335938 -6.867188 L 2.78125 -3.082031 C 2.5 -2.792969 2.230469 -2.480469 1.988281 -2.1875 C 2.007812 -2.511719 2.019531 -2.832031 2.019531 -3.152344 L 2.019531 -6.828125 L 0.832031 -6.828125 L 0.832031 0.0390625 L 1.183594 0.0390625 L 4.75 -3.785156 C 5 -4.058594 5.273438 -4.347656 5.53125 -4.648438 C 5.511719 -4.316406 5.503906 -3.988281 5.503906 -3.675781 L 5.503906 0 L 6.6875 0 L 6.6875 -6.867188 Z M 6.335938 -6.867188 "/></g></g></g><g fill="#3ab59a" fill-opacity="1"><g transform="translate(293.995995, 217.618629)"><g><path d="M 2.792969 -6.828125 C 1.335938 -6.828125 0.472656 -5.882812 0.472656 -4.710938 C 0.472656 -3.824219 0.984375 -3.011719 1.949219 -2.730469 L 0.191406 -0.0390625 L 0.191406 0 L 1.507812 0 L 3.171875 -2.621094 L 4.347656 -2.621094 L 4.347656 0 L 5.53125 0 L 5.53125 -6.828125 Z M 4.347656 -3.585938 L 2.902344 -3.585938 C 2.128906 -3.585938 1.65625 -4.027344 1.65625 -4.699219 C 1.65625 -5.363281 2.128906 -5.804688 2.902344 -5.804688 L 4.347656 -5.804688 Z M 4.347656 -3.585938 "/></g></g></g></svg>