<svg width="191" height="62" viewBox="0 0 191 62" fill="none" xmlns="http://www.w3.org/2000/svg">
    <path d="M189.151 8.66386H56.2666V6.26904H189.151V8.66386Z" fill="#3AB59A" />
    <path d="M125.008 47.7254H1.35254V45.3042H125.008V47.7254Z" fill="#3AB59A" />
    <path d="M189.192 47.8017H162.77V45.3042H189.192V47.8017Z" fill="#3AB59A" />
    <path
        d="M33.6718 0V23.5567C33.6718 25.1705 33.5578 26.5523 33.3316 27.7022C33.1056 28.8521 32.7489 29.7899 32.2624 30.5175C31.7749 31.247 31.1489 31.7783 30.3833 32.1114C29.6176 32.4444 28.6869 32.6111 27.591 32.6111C26.5119 32.6111 25.5949 32.4484 24.8381 32.1233C24.0813 31.8001 23.4543 31.2728 22.959 30.5452C22.4626 29.8176 22.102 28.8779 21.8759 27.7281C21.6498 26.5801 21.5367 25.1884 21.5367 23.5567V1.49062e-05H11.9898L12.0664 3.67148C14.3822 3.71293 16.3902 5.58 16.2486 7.87586C16.1327 9.75857 14.8071 12.0433 12.2978 11.8983V11.8988C11.7457 11.7424 8.96594 11.1599 7.03469 14.6156C5.28654 17.7439 7.83588 20.6486 9.97663 21.2049C9.97663 21.2049 10.7038 19.3972 12.3747 19.0875C12.6495 19.0222 13.0087 18.9655 13.3039 18.9655C15.323 18.9655 16.8945 20.4975 16.8945 22.4943C16.8945 24.4913 15.2577 26.1102 13.2386 26.1102C13.014 26.1102 12.5984 26.0658 12.385 26.0274C12.7127 30.3474 13.9699 33.9053 16.0692 36.2009C18.5568 38.921 22.4931 40.0595 27.591 40.0595C32.688 40.0595 36.4807 38.6994 38.9692 35.9795C41.4568 33.2593 42.7011 29.1198 42.7011 23.5568V6.73887H49.747V4.47187e-05H33.6718L33.6718 0Z"
        fill="#3AB59A" />
    <path
        d="M14.6676 7.92935C14.6676 9.3827 13.4895 10.5609 12.0361 10.5609C10.5829 10.5609 9.40479 9.38268 9.40479 7.92935C9.40479 6.47601 10.5829 5.29785 12.0361 5.29785C13.4895 5.29785 14.6676 6.47603 14.6676 7.92935Z"
        fill="#3AB59A" />
    <path
        d="M15.5069 22.5657C15.5069 23.6963 14.5853 24.6128 13.4483 24.6128C12.3114 24.6128 11.3896 23.6963 11.3896 22.5657C11.3896 21.4351 12.3114 20.5186 13.4483 20.5186C14.5853 20.5186 15.5069 21.4351 15.5069 22.5657Z"
        fill="#3AB59A" />
    <path
        d="M9.48051 34.015C9.48051 34.971 8.72414 35.7459 7.79098 35.7459C6.85794 35.7459 6.10156 34.971 6.10156 34.015C6.10156 33.0591 6.85793 32.2842 7.79098 32.2842C8.72413 32.2842 9.48051 33.0591 9.48051 34.015Z"
        fill="#3AB59A" />
    <path
        d="M6.59852 24.9374C6.59852 26.75 5.12134 28.2195 3.2992 28.2195C1.47706 28.2195 0 26.75 0 24.9374C0 23.1248 1.47706 21.6553 3.2992 21.6553C5.12134 21.6553 6.59852 23.1248 6.59852 24.9374Z"
        fill="#3AB59A" />
    <path
        d="M64.5603 27.0753C64.5603 28.1467 64.4571 29.111 64.2497 29.9678C64.0424 30.8263 63.7384 31.5548 63.3384 32.1548C62.9385 32.7547 62.4522 33.2197 61.8808 33.5481C61.3093 33.8767 60.6589 34.0409 59.9305 34.0409C59.1442 34.0409 58.533 33.888 58.0972 33.5807C57.6615 33.2734 57.3395 32.8051 57.133 32.1759C56.9257 31.5483 56.8006 30.7581 56.7574 29.8085C56.7143 28.8573 56.6932 27.7387 56.6932 26.4525V23.3766V20.7081V15.2205V13.4367V6.26904L49.748 6.34396V29.8833C49.748 33.1271 50.387 35.6001 51.6666 37.2993C52.9454 39.0016 54.8567 39.8504 57.4005 39.8504C58.8297 39.8504 60.1191 39.5154 61.2702 38.8439C62.4206 38.1725 63.5173 37.1432 64.5603 35.7562V39.2293H71.4632V23.7941H64.5603V27.0753L64.5603 27.0753Z"
        fill="#3AB59A" />
    <path d="M59.7749 21.0287H71.4626V15.5342H59.7749V21.0287Z" fill="#3AB59A" />
    <path
        d="M123.3 27.0753C123.3 28.1467 123.196 29.111 122.989 29.9678C122.782 30.8263 122.478 31.5548 122.078 32.1548C121.678 32.7547 121.192 33.2197 120.62 33.5481C120.049 33.8767 119.398 34.0409 118.67 34.0409C117.884 34.0409 117.272 33.888 116.836 33.5807C116.401 33.2734 116.079 32.8051 115.872 32.1759C115.665 31.5483 115.54 30.7581 115.497 29.8085C115.454 28.8573 115.433 27.7387 115.433 26.4525V23.3766V20.7081V15.2205V13.4367V6.26904L108.487 6.34396V29.8833C108.487 33.1271 109.126 35.6001 110.406 37.2993C111.685 39.0016 113.596 39.8504 116.14 39.8504C117.569 39.8504 118.858 39.5154 120.01 38.8439C121.16 38.1725 122.257 37.1432 123.3 35.7562V39.2293H130.203V23.7941H123.3V27.0753L123.3 27.0753Z"
        fill="#3AB59A" />
    <path d="M117.766 21.0287H129.803V15.5342H117.766V21.0287Z" fill="#3AB59A" />
    <path
        d="M99.3842 39.2724L99.4383 47.3845H92.6053V28.2741C92.6053 27.197 92.5981 26.3173 92.5838 25.6351C92.5693 24.953 92.5407 24.3928 92.4975 23.9548C92.4545 23.5167 92.397 23.1685 92.3253 22.91C92.2534 22.6515 92.16 22.4217 92.0451 22.2207C91.7579 21.718 91.3881 21.3266 90.9357 21.0465C90.4833 20.7665 89.9555 20.6264 89.3524 20.6264C88.6343 20.6264 87.9879 20.788 87.4135 21.1111C86.839 21.4343 86.3507 21.8974 85.9486 22.5006C85.5464 23.1039 85.2376 23.8399 85.0222 24.7087C84.8068 25.5777 84.6991 26.5579 84.6991 27.6495L84.5515 39.235L77.8804 39.3081L77.954 15.6095L84.6991 15.5091L84.7492 19.0305C85.7976 17.623 86.9752 16.6015 88.1457 15.9337C89.3162 15.2659 90.3185 14.9971 91.948 14.9971C94.4901 14.9971 96.5184 15.9898 97.4923 17.3947C98.6438 19.0556 99.4216 21.5376 99.4216 24.8122L99.3841 33.803L105.135 33.8591L105.097 39.2536L99.3841 39.2724H99.3842Z"
        fill="#3AB59A" />
    <path
        d="M144.288 22.2278C143.499 23.4108 143.262 25.3773 143.262 27.5762C143.262 29.8029 143.653 31.5009 144.435 32.6699C145.217 33.839 146.333 34.4235 147.785 34.4235C149.25 34.4235 150.366 33.8459 151.134 32.6908C151.902 31.5357 152.286 29.8307 152.286 27.5762C152.286 25.3355 151.949 23.29 151.181 22.1279C150.413 20.9658 149.239 20.4297 147.774 20.4297C146.323 20.4297 145.063 21.0448 144.288 22.2278ZM136.458 41.6674V15.5596L143.262 15.5221V18.8937C144.22 17.5298 145.271 16.6563 146.398 16.0091C147.525 15.362 148.988 15.0352 150.482 15.0352C151.792 15.0352 153.129 15.3788 154.228 15.9842C155.327 16.5896 156.079 17.3961 156.875 18.4816C157.671 19.5672 158.196 21.1255 158.647 22.6286C159.097 24.1317 159.323 25.7808 159.323 27.5762C159.323 29.3715 159.097 31.0208 158.647 32.5237C158.196 34.0269 157.572 35.3211 156.776 36.4067C155.98 37.4922 155.033 38.3377 153.934 38.9432C152.835 39.5486 151.631 39.8513 150.32 39.8513C148.827 39.8513 147.517 39.5277 146.39 38.8806C145.263 38.2334 144.22 37.2278 143.262 35.864V41.6674H157.865V47.0117H143.262V52.5339L136.458 52.5584V47.0117H130.752V41.6674H136.458H136.458Z"
        fill="#3AB59A" />
    <path
        d="M164.192 29.8633V15.4844H171.127V26.4907C171.127 27.5446 171.134 28.4095 171.149 29.0833C171.164 29.7588 171.191 30.3102 171.235 30.7389C171.277 31.1677 171.334 31.5046 171.405 31.7515C171.476 31.9965 171.57 32.218 171.685 32.4144C171.97 32.9063 172.336 33.29 172.786 33.564C173.236 33.8377 173.761 33.9747 174.359 33.9747C175.073 33.9747 175.717 33.8197 176.287 33.5116C176.858 33.2018 177.343 32.7513 177.742 32.1622C178.142 31.5713 178.45 30.8506 178.664 30.0002C178.878 29.1499 178.984 28.1842 178.984 27.1014V15.4844H185.92V39.0985H178.984V35.6412C177.943 37.0321 176.84 38.0517 175.676 38.6985C174.513 39.3435 173.218 39.6678 171.791 39.6678C169.28 39.6678 167.384 38.839 166.108 37.1797C164.831 35.5223 164.192 33.0829 164.192 29.8633L164.192 29.8633Z"
        fill="#3AB59A" />
    <path
        d="M4.75166 61.0349C5.39505 61.0349 5.82804 60.877 6.0511 60.5608C6.27394 60.2449 6.38547 59.7539 6.38547 59.0879V55.5918H7.18958V60.6371L7.92612 61.4243L7.42671 61.9999L6.65627 61.145C6.47559 61.3481 6.19347 61.5005 5.80978 61.6021C5.42598 61.7037 5.09579 61.7544 4.81943 61.7544C3.91073 61.7544 3.28427 61.5344 2.94013 61.0941C2.59587 60.654 2.42383 59.9882 2.42383 59.0964V55.5918H3.21943V59.0879C3.21943 59.6073 3.26306 59.9894 3.35068 60.235C3.43809 60.4805 3.61445 60.6767 3.87968 60.8232C4.12225 60.9532 4.41299 61.0237 4.75166 61.035V61.0349Z"
        fill="#3AB59A" />
    <path
        d="M15.9599 61.035C16.1009 61.035 16.2152 61.0266 16.3028 61.0097C16.3902 60.9928 16.4974 60.9533 16.6243 60.8911C16.7513 60.8291 16.8572 60.7163 16.9418 60.5525C17.0265 60.3889 17.0913 60.1772 17.1366 59.9176C17.1366 59.8668 17.145 59.7766 17.162 59.6467C17.162 59.6074 17.1647 59.5114 17.1705 59.3588C17.1759 59.2065 17.1789 59.1164 17.1789 59.088V57.1918H17.9831V59.0965C17.9831 60.0503 17.8137 60.7317 17.4752 61.1409C17.1366 61.5501 16.6541 61.7545 16.0277 61.7545C15.6156 61.7545 15.2628 61.7065 14.9695 61.6107C14.676 61.5147 14.4432 61.3878 14.2711 61.2297C14.099 61.0719 13.9635 60.8615 13.8648 60.5991C13.766 60.3367 13.701 60.0714 13.67 59.8034C13.639 59.5353 13.6235 59.2095 13.6235 58.8255C13.6235 58.7185 13.6248 58.5547 13.6277 58.3347C13.6305 58.1146 13.632 57.9538 13.632 57.8521L12.7178 57.8606V61.653H11.9136V55.5327H12.7178V57.1833L14.4362 57.1918V59.088C14.4362 59.4097 14.4531 59.6764 14.4869 59.888C14.5208 60.0997 14.5898 60.2973 14.6944 60.4806C14.7988 60.6641 14.9538 60.801 15.1599 60.8911C15.3659 60.9814 15.6325 61.0295 15.9599 61.035V61.035Z"
        fill="#3AB59A" />
    <path
        d="M26.4907 60.0106C26.4907 59.785 26.4229 59.6001 26.2874 59.4562C26.152 59.3123 25.9756 59.2037 25.7584 59.1302C25.5412 59.057 25.2998 58.9935 25.0347 58.9398C24.7694 58.8862 24.5014 58.8227 24.2305 58.7494C23.9596 58.676 23.7126 58.5843 23.4898 58.4742C23.2667 58.3642 23.0792 58.1978 22.9269 57.9748C22.7745 57.7519 22.6898 57.4795 22.6729 57.1579C22.6729 56.6387 22.8774 56.231 23.2866 55.9346C23.6957 55.6384 24.2022 55.4902 24.8061 55.4902C25.0601 55.4902 25.2942 55.5113 25.5087 55.5537C25.7231 55.5961 25.9024 55.6483 26.0462 55.7104C26.1902 55.7725 26.3213 55.8542 26.4399 55.9559C26.5585 56.0574 26.65 56.1478 26.715 56.2268C26.7798 56.3058 26.839 56.4073 26.8928 56.5315C26.9463 56.6556 26.9802 56.7473 26.9943 56.8066C27.0084 56.8657 27.0267 56.9462 27.0494 57.0479L27.0832 57.2086V57.3018L26.313 57.3609C26.2452 56.5991 25.7542 56.2097 24.84 56.1928C24.4223 56.1928 24.0866 56.2705 23.8327 56.4256C23.5786 56.581 23.4517 56.8081 23.4517 57.1071C23.4517 57.3272 23.5461 57.5064 23.7353 57.6446C23.9243 57.783 24.167 57.8887 24.4633 57.9621C24.7595 58.0355 25.0656 58.1074 25.3818 58.1779C25.6977 58.2485 26.0095 58.3587 26.3172 58.5081C26.6247 58.6576 26.8575 58.8481 27.0155 59.0795C27.0775 59.1698 27.1268 59.2657 27.1636 59.3673C27.2003 59.4688 27.2229 59.5522 27.2314 59.617C27.2398 59.6819 27.2525 59.7905 27.2695 59.9429C27.2695 60.4622 27.0549 60.894 26.6261 61.2381C26.1972 61.5824 25.6639 61.7544 25.0262 61.7544C24.5352 61.7544 24.1119 61.688 23.7564 61.5556C23.4009 61.423 23.1328 61.2496 22.9522 61.035C22.7716 60.8205 22.6418 60.6031 22.5628 60.3831C22.4838 60.163 22.4443 59.9374 22.4443 59.706L23.1978 59.6382C23.2655 60.4396 23.7734 60.9024 24.7214 61.0265L24.9923 61.035C25.3987 61.035 25.7499 60.946 26.0462 60.7683C26.3425 60.5905 26.4907 60.338 26.4907 60.0107V60.0106Z"
        fill="#3AB59A" />
    <path
        d="M36.4706 56.9718L36.5297 57.285C36.5692 57.4882 36.589 57.7733 36.589 58.14V61.6445H35.7848V58.1485C35.7848 57.8267 35.765 57.5601 35.7256 57.3486C35.6861 57.1369 35.6113 56.938 35.5013 56.7517C35.3912 56.5655 35.2246 56.4288 35.0018 56.3411C34.7788 56.2538 34.4952 56.2072 34.1511 56.2015C33.8294 56.2015 33.5655 56.2452 33.3596 56.3326C33.1535 56.4202 32.9983 56.5557 32.894 56.739C32.7896 56.9225 32.719 57.1215 32.6824 57.3359C32.6456 57.5504 32.6244 57.8213 32.6189 58.1485V61.6445H31.8232V58.14C31.8232 57.8071 31.8428 57.5136 31.8824 57.2596C31.9219 57.0057 31.9952 56.7631 32.1025 56.5317C32.2097 56.3003 32.3508 56.1112 32.5258 55.9643C32.7006 55.8178 32.9306 55.7007 33.2157 55.6132C33.5006 55.5257 33.835 55.4819 34.2189 55.4819C34.5067 55.4819 34.7676 55.5088 35.0018 55.5623C35.236 55.616 35.4306 55.6908 35.5859 55.7866C35.741 55.8827 35.8738 55.9801 35.9837 56.0787C36.0938 56.1776 36.1826 56.2903 36.2504 56.4174C36.3181 56.5444 36.366 56.6473 36.3942 56.7263C36.4225 56.8054 36.4479 56.8871 36.4705 56.9718H36.4706Z"
        fill="#3AB59A" />
    <path
        d="M46.0702 56.9718L46.1293 57.285C46.1688 57.4882 46.1886 57.7733 46.1886 58.14V59.1642H45.3844V58.1485C45.3844 57.8267 45.3646 57.5601 45.3252 57.3486C45.2857 57.1369 45.211 56.938 45.1009 56.7517C44.9909 56.5655 44.8242 56.4287 44.6014 56.3411C44.3784 56.2537 44.0948 56.2072 43.7507 56.2015C43.429 56.2015 43.1651 56.2452 42.9592 56.3326C42.7531 56.4202 42.5979 56.5557 42.4936 56.739C42.3892 56.9225 42.3187 57.1215 42.282 57.3359C42.2452 57.5503 42.224 57.8213 42.2186 58.1485V61.6445H41.4229V58.14C41.4229 57.8071 41.4425 57.5136 41.482 57.2596C41.5215 57.0057 41.5948 56.7631 41.7021 56.5317C41.8093 56.3003 41.9504 56.1112 42.1254 55.9643C42.3002 55.8178 42.5303 55.7007 42.8154 55.6132C43.1002 55.5257 43.4346 55.4819 43.8185 55.4819C44.1063 55.4819 44.3672 55.5088 44.6014 55.5623C44.8356 55.616 45.0302 55.6908 45.1855 55.7866C45.3407 55.8827 45.4734 55.9801 45.5833 56.0787C45.6934 56.1775 45.7822 56.2903 45.85 56.4174C45.9177 56.5444 45.9657 56.6473 45.9939 56.7263C46.0221 56.8054 46.0475 56.8871 46.0701 56.9718L46.0702 56.9718Z"
        fill="#3AB59A" />
    <path
        d="M55.475 56.9718L55.5341 57.285C55.5736 57.4882 55.5934 57.7733 55.5934 58.14V61.6445H54.7892V58.1485C54.7892 57.8267 54.7693 57.5601 54.73 57.3486C54.6905 57.1369 54.6158 56.938 54.5057 56.7517C54.3956 56.5655 54.229 56.4288 54.0062 56.3411C53.7832 56.2538 53.4996 56.2072 53.1555 56.2015C52.8338 56.2015 52.57 56.2452 52.364 56.3326C52.1579 56.4202 52.0027 56.5557 51.8985 56.739C51.794 56.9225 51.7234 57.1215 51.6868 57.3359C51.65 57.5504 51.6288 57.8213 51.6234 58.1485V61.6445H50.8276V58.14C50.8276 57.8071 50.8473 57.5136 50.8868 57.2596C50.9263 57.0057 50.9996 56.7631 51.1069 56.5317C51.2141 56.3003 51.3552 56.1112 51.5302 55.9643C51.705 55.8178 51.9351 55.7007 52.2201 55.6132C52.505 55.5257 52.8394 55.4819 53.2233 55.4819C53.5111 55.4819 53.772 55.5088 54.0062 55.5623C54.2403 55.616 54.435 55.6908 54.5903 55.7866C54.7454 55.8827 54.8782 55.9801 54.9881 56.0787C55.0982 56.1776 55.187 56.2903 55.2548 56.4174C55.3225 56.5444 55.3704 56.6473 55.3987 56.7263C55.4269 56.8054 55.4523 56.8871 55.475 56.9718H55.475Z"
        fill="#3AB59A" />
    <path
        d="M60.1382 58.8338C60.1382 58.1849 60.2933 57.6516 60.6037 57.2339C60.9141 56.8163 61.3007 56.5258 61.7635 56.362L60.5784 56.1081V55.397L64.1507 56.2181V56.9207C64.0603 56.9037 63.8911 56.8629 63.6427 56.798C63.3944 56.7332 63.1913 56.695 63.0332 56.6837L62.847 56.6752C62.7454 56.6752 62.6101 56.6895 62.4407 56.7175C62.3899 56.7175 62.3222 56.7317 62.2375 56.7598L62.0259 56.836C61.7212 56.9377 61.4686 57.155 61.2683 57.4879C61.0679 57.8209 60.9678 58.2696 60.9678 58.8338V59.6042C60.9678 59.988 61.0495 60.2941 61.2133 60.5226C61.3769 60.7511 61.5801 60.9107 61.8228 61.0008L62.1106 61.094L62.2375 61.1109L62.3476 61.1194C62.6072 61.1194 62.8949 61.0235 63.2111 60.8316C63.5328 60.6454 63.6936 60.2956 63.6936 59.7819V59.2402H64.5062V59.8328C64.5062 60.3011 64.3255 60.7272 63.9644 61.1109C63.5637 61.5399 63.0248 61.7543 62.3476 61.7543C62.0146 61.7543 61.7141 61.7021 61.4461 61.5977C61.1779 61.4934 60.9648 61.3636 60.8069 61.2084C60.6489 61.0531 60.5177 60.8839 60.4134 60.7004C60.3088 60.5171 60.2369 60.3533 60.1975 60.2095C60.1579 60.0655 60.1382 59.94 60.1382 59.8328V58.8338H60.1382Z"
        fill="#3AB59A" />
    <path
        d="M72.8869 59.4775C72.8869 59.1615 72.8671 58.8949 72.8276 58.6776C72.7881 58.4604 72.7162 58.26 72.6118 58.0765C72.5073 57.8932 72.3522 57.7578 72.1462 57.6701C71.9401 57.5827 71.6792 57.5389 71.3632 57.5389C70.9455 57.5389 70.5914 57.6124 70.3009 57.7591C70.0101 57.9059 69.8366 58.1289 69.7803 58.4278C69.7407 58.6367 69.721 58.9047 69.721 59.232V61.653H68.9253V55.4565H69.7548V57.2681C69.8113 57.1383 70.0102 57.0255 70.3516 56.9295C70.693 56.8336 70.9963 56.7856 71.2617 56.7856C71.7357 56.7856 72.1349 56.8491 72.4594 56.976C72.7839 57.103 73.0336 57.2936 73.2087 57.5474C73.3835 57.8014 73.5062 58.0807 73.5769 58.3855C73.6474 58.6903 73.6827 59.0543 73.6827 59.4775V60.0786H72.887V59.4775L72.8869 59.4775Z"
        fill="#3AB59A" />
    <path
        d="M82.7314 58.3853C82.7314 58.7239 82.6679 59.0358 82.541 59.3207C82.414 59.6058 82.246 59.8428 82.0373 60.0318C81.8285 60.221 81.6056 60.3747 81.3685 60.4931C81.1315 60.6117 80.886 60.6935 80.6321 60.7386L81.9103 61.0772L81.9272 61.7714L78.5242 60.8826V60.1629L79.6331 60.4762C80.3612 60.4142 80.9227 60.1926 81.3177 59.8118C81.7127 59.4308 81.9103 58.9102 81.9103 58.2498V57.5304C81.9103 57.2652 81.868 57.0394 81.7833 56.853C81.6987 56.6669 81.5801 56.5259 81.4278 56.4298C81.2754 56.334 81.13 56.2648 80.9918 56.2225C80.8534 56.1801 80.6913 56.1477 80.5051 56.1251C80.1043 56.1251 79.7813 56.2451 79.5358 56.4849C79.2903 56.7248 79.1646 57.0507 79.1591 57.4626V58.0043L78.355 58.0128V57.4035C78.355 56.935 78.5354 56.5089 78.8967 56.1251C79.3199 55.7018 79.8561 55.4902 80.5051 55.4902C80.8549 55.4902 81.1696 55.5453 81.449 55.6553C81.7283 55.7653 81.9427 55.8965 82.0923 56.0489C82.2418 56.2014 82.3674 56.3735 82.469 56.5652C82.5706 56.7571 82.6369 56.9194 82.6679 57.0521C82.6989 57.1848 82.7172 57.3018 82.7229 57.4035L82.7314 58.3853V58.3853Z"
        fill="#3AB59A" />
    <path d="M93.3984 61.653V55.5918H94.2027V60.8572L95.7686 60.8656V61.653H93.3984Z"
        fill="#3AB59A" />
    <path
        d="M102.625 61.0349C103.268 61.0349 103.701 60.877 103.924 60.5608C104.147 60.2449 104.258 59.7539 104.258 59.0879V55.5918H105.063V60.6371L105.799 61.4243L105.3 61.9999L104.529 61.145C104.349 61.3481 104.067 61.5005 103.683 61.6021C103.299 61.7037 102.969 61.7544 102.693 61.7544C101.784 61.7544 101.157 61.5344 100.813 61.0941C100.469 60.654 100.297 59.9882 100.297 59.0964V55.5918H101.092V59.0879C101.092 59.6073 101.136 59.9894 101.224 60.235C101.311 60.4805 101.488 60.6767 101.753 60.8232C101.995 60.9532 102.286 61.0237 102.625 61.035V61.0349Z"
        fill="#3AB59A" />
    <path
        d="M112.293 55.5074C112.755 55.5074 113.145 55.5709 113.461 55.6978C113.777 55.8248 114.021 56.0124 114.193 56.2608C114.365 56.5091 114.486 56.7856 114.557 57.0904C114.627 57.3951 114.663 57.7535 114.663 58.1654V58.8596H113.859V58.1739C113.859 57.8467 113.839 57.5771 113.799 57.3655C113.76 57.1538 113.685 56.9564 113.575 56.7729C113.465 56.5895 113.298 56.454 113.076 56.3665C112.853 56.2792 112.569 56.2326 112.225 56.2269C111.508 56.2269 111.045 56.4866 110.837 57.0057C110.735 57.2823 110.684 57.7817 110.684 58.5041C110.684 58.634 110.687 58.8229 110.693 59.0712C110.698 59.3196 110.701 59.4944 110.701 59.5961H114.637V60.3833H110.701L110.693 61.67H109.897V58.1654C109.897 57.8325 109.917 57.5389 109.956 57.285C109.996 57.031 110.069 56.7885 110.176 56.5571C110.283 56.3257 110.424 56.1367 110.6 55.9899C110.774 55.8432 111.004 55.7261 111.289 55.6386C111.574 55.5511 111.909 55.5073 112.293 55.5073V55.5074Z"
        fill="#3AB59A" />
    <path
        d="M123.957 56.9718L124.016 57.285C124.056 57.4882 124.075 57.7733 124.075 58.14V61.6445H123.271V58.1485C123.271 57.8267 123.251 57.5601 123.212 57.3486C123.172 57.1369 123.098 56.938 122.988 56.7517C122.878 56.5655 122.711 56.4288 122.488 56.3411C122.265 56.2538 121.982 56.2072 121.638 56.2015C121.316 56.2015 121.052 56.2452 120.846 56.3326C120.64 56.4202 120.485 56.5557 120.38 56.739C120.276 56.9225 120.205 57.1215 120.169 57.3359C120.132 57.5504 120.111 57.8213 120.105 58.1485V61.6445H119.31V58.14C119.31 57.8071 119.329 57.5136 119.369 57.2596C119.408 57.0057 119.482 56.7631 119.589 56.5317C119.696 56.3003 119.837 56.1112 120.012 55.9643C120.187 55.8178 120.417 55.7007 120.702 55.6132C120.987 55.5257 121.321 55.4819 121.705 55.4819C121.993 55.4819 122.254 55.5088 122.488 55.5623C122.722 55.616 122.917 55.6908 123.072 55.7866C123.227 55.8827 123.36 55.9801 123.47 56.0787C123.58 56.1776 123.669 56.2903 123.737 56.4174C123.805 56.5444 123.852 56.6473 123.881 56.7263C123.909 56.8054 123.934 56.8871 123.957 56.9718H123.957Z"
        fill="#3AB59A" />
    <path
        d="M133.556 56.9718L133.615 57.285C133.655 57.4882 133.675 57.7733 133.675 58.14V59.1642H132.87V58.1485C132.87 57.8267 132.851 57.5601 132.811 57.3486C132.772 57.1369 132.697 56.938 132.587 56.7517C132.477 56.5655 132.31 56.4287 132.087 56.3411C131.864 56.2537 131.581 56.2072 131.237 56.2015C130.915 56.2015 130.651 56.2452 130.445 56.3326C130.239 56.4202 130.084 56.5557 129.98 56.739C129.875 56.9225 129.805 57.1215 129.768 57.3359C129.731 57.5503 129.71 57.8213 129.704 58.1485V61.6445H128.909V58.14C128.909 57.8071 128.928 57.5136 128.968 57.2596C129.007 57.0057 129.081 56.7631 129.188 56.5317C129.295 56.3003 129.436 56.1112 129.611 55.9643C129.786 55.8178 130.016 55.7007 130.301 55.6132C130.586 55.5257 130.921 55.4819 131.304 55.4819C131.592 55.4819 131.853 55.5088 132.087 55.5623C132.321 55.616 132.516 55.6908 132.671 55.7866C132.827 55.8827 132.959 55.9801 133.069 56.0787C133.179 56.1775 133.268 56.2903 133.336 56.4174C133.404 56.5444 133.451 56.6473 133.48 56.7263C133.508 56.8054 133.533 56.8871 133.556 56.9718L133.556 56.9718Z"
        fill="#3AB59A" />
    <path
        d="M140.684 61.0349C141.327 61.0349 141.76 60.877 141.983 60.5608C142.206 60.2449 142.318 59.7539 142.318 59.0879V55.5918H143.122V60.6371L143.858 61.4243L143.359 61.9999L142.588 61.145C142.408 61.3481 142.126 61.5005 141.742 61.6021C141.358 61.7037 141.028 61.7544 140.752 61.7544C139.843 61.7544 139.217 61.5344 138.872 61.0941C138.528 60.654 138.356 59.9882 138.356 59.0964V55.5918H139.152V59.0879C139.152 59.6073 139.195 59.9894 139.283 60.235C139.37 60.4805 139.547 60.6767 139.812 60.8232C140.054 60.9532 140.345 61.0237 140.684 61.035V61.0349Z"
        fill="#3AB59A" />
    <path
        d="M151.714 60.0106C151.714 59.785 151.646 59.6001 151.511 59.4562C151.376 59.3123 151.199 59.2037 150.982 59.1302C150.765 59.057 150.523 58.9935 150.258 58.9398C149.993 58.8862 149.725 58.8227 149.454 58.7494C149.183 58.676 148.936 58.5843 148.713 58.4742C148.49 58.3642 148.303 58.1978 148.15 57.9748C147.998 57.7519 147.913 57.4795 147.896 57.1579C147.896 56.6387 148.101 56.231 148.51 55.9346C148.919 55.6384 149.426 55.4902 150.03 55.4902C150.284 55.4902 150.518 55.5113 150.732 55.5537C150.947 55.5961 151.126 55.6483 151.27 55.7104C151.414 55.7725 151.545 55.8542 151.664 55.9559C151.782 56.0574 151.874 56.1478 151.939 56.2268C152.003 56.3058 152.063 56.4073 152.116 56.5315C152.17 56.6556 152.204 56.7473 152.218 56.8066C152.232 56.8657 152.25 56.9462 152.273 57.0479L152.307 57.2086V57.3018L151.536 57.3609C151.469 56.5991 150.978 56.2097 150.064 56.1928C149.646 56.1928 149.31 56.2705 149.056 56.4256C148.802 56.581 148.675 56.8081 148.675 57.1071C148.675 57.3272 148.77 57.5064 148.959 57.6446C149.148 57.783 149.391 57.8887 149.687 57.9621C149.983 58.0355 150.289 58.1074 150.605 58.1779C150.921 58.2485 151.233 58.3587 151.541 58.5081C151.848 58.6576 152.081 58.8481 152.239 59.0795C152.301 59.1698 152.35 59.2657 152.387 59.3673C152.424 59.4688 152.446 59.5522 152.455 59.617C152.463 59.6819 152.476 59.7905 152.493 59.9429C152.493 60.4622 152.278 60.894 151.85 61.2381C151.421 61.5824 150.887 61.7544 150.25 61.7544C149.759 61.7544 149.336 61.688 148.98 61.5556C148.625 61.423 148.356 61.2496 148.176 61.035C147.995 60.8205 147.865 60.6031 147.786 60.3831C147.707 60.163 147.668 59.9374 147.668 59.706L148.421 59.6382C148.489 60.4396 148.997 60.9024 149.945 61.0265L150.216 61.035C150.622 61.035 150.973 60.946 151.27 60.7683C151.566 60.5905 151.714 60.338 151.714 60.0107V60.0106Z"
        fill="#3AB59A" />
    <path
        d="M161.694 56.9718L161.753 57.285C161.793 57.4882 161.813 57.7733 161.813 58.14V61.6445H161.009V58.1485C161.009 57.8267 160.989 57.5601 160.949 57.3486C160.91 57.1369 160.835 56.938 160.725 56.7517C160.615 56.5655 160.448 56.4288 160.226 56.3411C160.002 56.2538 159.719 56.2072 159.375 56.2015C159.053 56.2015 158.789 56.2452 158.583 56.3326C158.377 56.4202 158.222 56.5557 158.118 56.739C158.013 56.9225 157.943 57.1215 157.906 57.3359C157.869 57.5504 157.848 57.8213 157.843 58.1485V61.6445H157.047V58.14C157.047 57.8071 157.067 57.5136 157.106 57.2596C157.145 57.0057 157.219 56.7631 157.326 56.5317C157.433 56.3003 157.574 56.1112 157.749 55.9643C157.924 55.8178 158.154 55.7007 158.439 55.6132C158.724 55.5257 159.059 55.4819 159.443 55.4819C159.73 55.4819 159.991 55.5088 160.226 55.5623C160.46 55.616 160.654 55.6908 160.81 55.7866C160.965 55.8827 161.098 55.9801 161.207 56.0787C161.318 56.1776 161.406 56.2903 161.474 56.4174C161.542 56.5444 161.59 56.6473 161.618 56.7263C161.646 56.8054 161.672 56.8871 161.694 56.9718H161.694Z"
        fill="#3AB59A" />
    <path
        d="M171.293 56.9718L171.353 57.285C171.392 57.4882 171.412 57.7733 171.412 58.14V59.1642H170.608V58.1485C170.608 57.8267 170.588 57.5601 170.548 57.3486C170.509 57.1369 170.434 56.938 170.324 56.7517C170.214 56.5655 170.048 56.4287 169.825 56.3411C169.602 56.2537 169.318 56.2072 168.974 56.2015C168.652 56.2015 168.388 56.2452 168.182 56.3326C167.976 56.4202 167.821 56.5557 167.717 56.739C167.612 56.9225 167.542 57.1215 167.505 57.3359C167.468 57.5503 167.447 57.8213 167.442 58.1485V61.6445H166.646V58.14C166.646 57.8071 166.666 57.5136 166.705 57.2596C166.745 57.0057 166.818 56.7631 166.925 56.5317C167.033 56.3003 167.174 56.1112 167.349 55.9643C167.523 55.8178 167.754 55.7007 168.038 55.6132C168.323 55.5257 168.658 55.4819 169.042 55.4819C169.329 55.4819 169.59 55.5088 169.825 55.5623C170.059 55.616 170.253 55.6908 170.409 55.7866C170.564 55.8827 170.697 55.9801 170.807 56.0787C170.917 56.1775 171.006 56.2903 171.073 56.4174C171.141 56.5444 171.189 56.6473 171.217 56.7263C171.245 56.8054 171.271 56.8871 171.293 56.9718L171.293 56.9718Z"
        fill="#3AB59A" />
    <path
        d="M179.92 59.4775C179.92 59.1615 179.9 58.8949 179.86 58.6776C179.821 58.4604 179.749 58.26 179.645 58.0765C179.54 57.8932 179.385 57.7578 179.179 57.6701C178.973 57.5827 178.712 57.5389 178.396 57.5389C177.978 57.5389 177.624 57.6124 177.334 57.7591C177.043 57.9059 176.869 58.1289 176.813 58.4278C176.773 58.6367 176.754 58.9047 176.754 59.232V61.653H175.958V55.4565H176.788V57.2681C176.844 57.1383 177.043 57.0255 177.384 56.9295C177.726 56.8336 178.029 56.7856 178.294 56.7856C178.768 56.7856 179.168 56.8491 179.492 56.976C179.817 57.103 180.066 57.2936 180.241 57.5474C180.416 57.8014 180.539 58.0807 180.61 58.3855C180.68 58.6903 180.715 59.0543 180.715 59.4775V60.0786H179.92V59.4775L179.92 59.4775Z"
        fill="#3AB59A" />
    <path
        d="M187.825 61.0349C188.469 61.0349 188.902 60.877 189.125 60.5608C189.348 60.2449 189.459 59.7539 189.459 59.0879V55.5918H190.263V60.6371L191 61.4243L190.5 61.9999L189.73 61.145C189.549 61.3481 189.267 61.5005 188.884 61.6021C188.5 61.7037 188.17 61.7544 187.893 61.7544C186.984 61.7544 186.358 61.5344 186.014 61.0941C185.67 60.654 185.498 59.9882 185.498 59.0964V55.5918H186.293V59.0879C186.293 59.6073 186.337 59.9894 186.424 60.235C186.512 60.4805 186.688 60.6767 186.953 60.8232C187.196 60.9532 187.487 61.0237 187.825 61.035V61.0349Z"
        fill="#3AB59A" />
</svg>
