<svg width="220" height="57" viewBox="0 0 220 57" fill="none" xmlns="http://www.w3.org/2000/svg">
<g clip-path="url(#clip0_12_1577)">
<path d="M18.3855 8.00408C19.7895 8.00408 20.9277 6.94914 20.9277 5.64779C20.9277 4.34645 19.7895 3.2915 18.3855 3.2915C16.9814 3.2915 15.8433 4.34645 15.8433 5.64779C15.8433 6.94914 16.9814 8.00408 18.3855 8.00408Z" fill="#3AB59A"/>
<path fill-rule="evenodd" clip-rule="evenodd" d="M21.113 0L20.3814 2.12483C21.6872 2.77292 22.5763 4.06911 22.5763 5.55973C22.5763 7.69845 20.7426 9.43442 18.4828 9.43442C18.2791 9.43442 18.0753 9.42053 17.8809 9.39276L15.5424 16.1839C15.6952 16.17 15.848 16.1654 16.0008 16.1654C19.0478 16.1654 21.5205 18.4244 21.5205 21.2159C21.5205 24.0027 19.0478 26.2664 16.0008 26.2664C14.658 26.2664 13.4262 25.8266 12.4723 25.0998L8.48535 36.1452H20.1267L26.1696 18.4892L32.4487 36.1452H42.3444L49.2301 17.7486L55.2452 36.1452H65.7891L61.3854 22.6417L54.4302 0.00462925H43.9558L37.2692 17.9939L31.4717 0.00462925H21.1038L21.113 0ZM15.8295 29.7198C16.9594 29.7198 17.8762 30.567 17.8762 31.6132C17.8762 32.6594 16.9594 33.5065 15.8295 33.5065C14.6996 33.5065 13.7828 32.6594 13.7828 31.6132C13.7828 30.567 14.6996 29.7198 15.8295 29.7198Z" fill="#3AB59A"/>
<path d="M6.66108 23.9794C8.61239 23.9794 10.1942 22.514 10.1942 20.7065C10.1942 18.8989 8.61239 17.4336 6.66108 17.4336C4.70978 17.4336 3.12793 18.8989 3.12793 20.7065C3.12793 22.514 4.70978 23.9794 6.66108 23.9794Z" fill="#3AB59A"/>
<path d="M15.8296 24.4424C17.6121 24.4424 19.0571 23.1035 19.0571 21.4519C19.0571 19.8003 17.6121 18.4614 15.8296 18.4614C14.0471 18.4614 12.6021 19.8003 12.6021 21.4519C12.6021 23.1035 14.0471 24.4424 15.8296 24.4424Z" fill="#3AB59A"/>
<path d="M5.98032 31.465C7.1107 31.465 8.02705 30.6173 8.02705 29.5716C8.02705 28.5259 7.1107 27.6782 5.98032 27.6782C4.84995 27.6782 3.93359 28.5259 3.93359 29.5716C3.93359 30.6173 4.84995 31.465 5.98032 31.465Z" fill="#3AB59A"/>
<path d="M95.0365 19.0228V16.0915H77.4968V28.5096H102.713V35.7047H74.0848C73.5872 35.7047 73.0719 35.5803 72.5387 35.3316C72.0412 35.0829 71.5791 34.7631 71.1526 34.3723C70.7617 33.9459 70.4418 33.484 70.193 32.9865C69.9442 32.4536 69.8198 31.9206 69.8198 31.3876V13.2135C69.8198 12.6805 69.9442 12.1653 70.193 11.6679C70.4418 11.1349 70.7617 10.673 71.1526 10.2822C71.5791 9.85582 72.0412 9.51828 72.5387 9.26956C73.0719 9.02084 73.5872 8.89648 74.0848 8.89648H98.4485C98.946 8.89648 99.4436 9.02084 99.9412 9.26956C100.474 9.51828 100.936 9.85582 101.327 10.2822C101.754 10.673 102.091 11.1349 102.34 11.6679C102.589 12.1653 102.713 12.6805 102.713 13.2135V21.2613C102.713 21.7943 102.589 22.3272 102.34 22.8602C102.091 23.3576 101.754 23.8195 101.327 24.2459C100.936 24.6367 100.474 24.9565 99.9412 25.2052C99.4436 25.454 98.946 25.5783 98.4485 25.5783H80.4289V19.0228H95.0365Z" fill="#3AB59A"/>
<path d="M106.108 35.7047V19.0228H113.784V28.5096H131.537V16.0915H106.108V8.89648H134.949C135.447 8.89648 135.945 9.02084 136.442 9.26956C136.975 9.51828 137.437 9.85582 137.828 10.2822C138.255 10.673 138.592 11.1349 138.841 11.6679C139.09 12.1653 139.214 12.6805 139.214 13.2135V31.3876C139.214 31.9206 139.09 32.4536 138.841 32.9865C138.592 33.484 138.255 33.9459 137.828 34.3723C137.437 34.7631 136.975 35.0829 136.442 35.3316C135.945 35.5803 135.447 35.7047 134.949 35.7047H106.108Z" fill="#3AB59A"/>
<path d="M167.82 19.0228V16.0915H150.28V28.5096H175.497V35.7047H146.868C146.371 35.7047 145.855 35.5803 145.322 35.3316C144.825 35.0829 144.363 34.7631 143.936 34.3723C143.545 33.9459 143.225 33.484 142.977 32.9865C142.728 32.4536 142.603 31.9206 142.603 31.3876V13.2135C142.603 12.6805 142.728 12.1653 142.977 11.6679C143.225 11.1349 143.545 10.673 143.936 10.2822C144.363 9.85582 144.825 9.51828 145.322 9.26956C145.855 9.02084 146.371 8.89648 146.868 8.89648H171.232C171.73 8.89648 172.227 9.02084 172.725 9.26956C173.258 9.51828 173.72 9.85582 174.111 10.2822C174.537 10.673 174.875 11.1349 175.124 11.6679C175.373 12.1653 175.497 12.6805 175.497 13.2135V21.2613C175.497 21.7943 175.373 22.3272 175.124 22.8602C174.875 23.3576 174.537 23.8195 174.111 24.2459C173.72 24.6367 173.258 24.9565 172.725 25.2052C172.227 25.454 171.73 25.5783 171.232 25.5783H153.213V19.0228H167.82Z" fill="#3AB59A"/>
<path d="M187.474 8.89648L194.298 16.7311L201.176 8.89648H210.719L199.096 22.3272L219.942 46.364H210.505L194.298 27.8701L187.474 35.7047H177.932L189.5 22.3272L177.932 8.89648H187.474Z" fill="#3AB59A"/>
<path fill-rule="evenodd" clip-rule="evenodd" d="M61.0146 2.53662H210.995V5.5086H61.0146V2.53662Z" fill="#3AB59A"/>
<path fill-rule="evenodd" clip-rule="evenodd" d="M0.00195312 40.7651H202.563L204.99 43.7371H0.00195312V40.7651Z" fill="#3AB59A"/>
<path d="M0.414299 49.1073V56.9215H1.40988V50.6812L4.2114 56.0928H4.86894L7.64731 50.6812L7.65657 56.9215H8.66141V49.1073H7.3741L4.54017 54.5976L1.68308 49.1073H0.409668H0.414299ZM15.2508 49.1073V56.9215H20.8121V55.9493H16.3251V53.4588H20.2194V52.4866H16.3251V50.0748H20.6778V49.1027H15.2508V49.1073ZM30.078 49.1073H26.8967V56.9215H30.0456C32.3701 56.9215 34.1112 55.2457 34.1112 53.0144C34.1112 50.7692 32.3794 49.1073 30.0826 49.1073H30.078ZM30.1011 55.9493H27.9664V50.0794H30.0548C31.7172 50.0794 33.0138 51.3293 33.0138 53.0283C33.0138 54.7133 31.7404 55.954 30.1011 55.954V55.9493ZM39.9921 49.1073V56.9215H41.0618V49.1073H39.9921ZM53.3097 50.9821L53.9441 50.2137C53.194 49.4776 52.1243 49.0425 51.0407 49.0425C48.7532 49.0425 46.9565 50.7831 46.9565 53.0051C46.9565 55.2364 48.7301 57.0002 50.9991 57.0002C52.0919 57.0002 53.1754 56.5187 53.958 55.7595L53.3097 55.0559C52.7077 55.6345 51.8789 55.991 51.0546 55.991C49.3783 55.991 48.0401 54.6531 48.0401 52.9866C48.0401 51.3108 49.3783 49.9822 51.0546 49.9822C51.8928 49.9822 52.717 50.3618 53.3097 50.9775V50.9821ZM65.5669 56.9215H66.7292L63.2702 49.1073H62.1542L58.6812 56.9215H59.8111L60.6261 55.0235H64.7473L65.5716 56.9215H65.5669ZM61.0475 54.0513L62.6774 50.2553L64.3306 54.0513H61.0475ZM72.2258 49.1073V56.9215H76.7128V55.9493H73.2954V49.1073H72.2258ZM90.1369 49.1073V56.9215H94.624V55.9493H91.2066V49.1073H90.1323H90.1369ZM106.224 56.9215H107.386L103.927 49.1073H102.811L99.338 56.9215H100.468L101.283 55.0235H105.404L106.228 56.9215H106.224ZM101.704 54.0513L103.334 50.2553L104.987 54.0513H101.704ZM116.217 49.1073H112.878V56.9215H116.272C118.046 56.9215 119.106 56.1299 119.106 54.792C119.106 53.7319 118.458 52.982 117.365 52.8153C118.249 52.6163 118.782 51.9543 118.782 51.0608C118.782 49.8433 117.809 49.1073 116.217 49.1073ZM116.161 52.4218H113.952V50.0887H116.161C117.119 50.0794 117.68 50.4914 117.68 51.2367C117.68 51.9959 117.119 52.4218 116.161 52.4218ZM116.161 55.9401H113.952V53.394H116.161C117.323 53.394 118.013 53.8615 118.013 54.6531C118.013 55.4771 117.319 55.9493 116.161 55.9354V55.9401ZM128.599 49.0425C126.297 49.0425 124.491 50.7738 124.491 53.0051C124.491 55.2364 126.302 57.0002 128.599 57.0002C130.9 57.0002 132.706 55.2364 132.706 53.0051C132.706 50.7831 130.9 49.0425 128.599 49.0425ZM128.608 50.0007C130.261 50.0007 131.613 51.3293 131.613 53.0051C131.613 54.6809 130.261 56.028 128.608 56.028C126.955 56.028 125.57 54.6763 125.57 53.0051C125.57 51.3293 126.941 50.0007 128.608 50.0007ZM144.875 56.9215L143.056 54.2782C144.162 53.8986 144.764 53.019 144.764 51.746C144.764 50.0702 143.634 49.1119 141.662 49.1119H138.601V56.9261H139.671V54.4911H141.657C141.815 54.4911 141.958 54.4819 142.092 54.468L143.644 56.9215H144.871H144.875ZM139.671 53.519V50.0794H141.657C142.986 50.0794 143.736 50.6488 143.736 51.7737C143.736 52.9357 142.986 53.5143 141.657 53.5143H139.671V53.519ZM156.832 56.9215H157.994L154.535 49.1073H153.419L149.946 56.9215H151.071L151.886 55.0235H156.007L156.832 56.9215ZM152.307 54.0513L153.937 50.2553L155.591 54.0513H152.307ZM161.731 49.1073V50.0887H164.241V56.9215H165.315V50.0887H167.839V49.1073H161.731ZM176.345 49.0425C174.044 49.0425 172.238 50.7738 172.238 53.0051C172.238 55.2364 174.044 57.0002 176.345 57.0002C178.646 57.0002 180.452 55.2364 180.452 53.0051C180.452 50.7831 178.642 49.0425 176.345 49.0425ZM176.354 50.0007C178.007 50.0007 179.355 51.3293 179.355 53.0051C179.355 54.6809 178.003 56.028 176.354 56.028C174.701 56.028 173.317 54.6763 173.317 53.0051C173.317 51.3293 174.687 50.0007 176.354 50.0007ZM192.622 56.9215L190.802 54.2782C191.908 53.8986 192.51 53.019 192.51 51.746C192.51 50.0702 191.381 49.1119 189.408 49.1119H186.347V56.9261H187.417V54.4911H189.403C189.561 54.4911 189.704 54.4819 189.839 54.468L191.39 56.9215H192.617H192.622ZM187.417 53.519V50.0794H189.403C190.732 50.0794 191.482 50.6488 191.482 51.7737C191.482 52.9357 190.732 53.5143 189.403 53.5143H187.417V53.519ZM204.568 49.1073H203.476L201.109 53.0931L198.697 49.1073H197.604L200.572 54.2874V56.9215H201.647V54.2411L204.573 49.1073H204.568Z" fill="#3AB59A"/>
</g>
<defs>
<clipPath id="clip0_12_1577">
<rect width="220" height="57" fill="white"/>
</clipPath>
</defs>
</svg>
