<svg width="227" height="57" viewBox="0 0 227 57" fill="none" xmlns="http://www.w3.org/2000/svg">
    <mask id="mask0_309_2064" style="mask-type:alpha" maskUnits="userSpaceOnUse" x="0" y="0"
        width="227" height="56">
        <rect width="227" height="56" fill="#D9D9D9" />
    </mask>
    <g mask="url(#mask0_309_2064)"></g>
    <g clip-path="url(#clip0_309_2064)">
        <mask id="mask1_309_2064" style="mask-type:luminance" maskUnits="userSpaceOnUse" x="8"
            y="15" width="9" height="8">
            <path d="M8.75977 15.7251H16.0596V22.7473H8.75977V15.7251Z" fill="white" />
        </mask>
        <g mask="url(#mask1_309_2064)">
            <path fill-rule="evenodd" clip-rule="evenodd"
                d="M12.0318 16.3013C13.8363 16.3013 15.2998 17.6728 15.2998 19.3614C15.2998 21.0504 13.8363 22.422 12.0318 22.422C10.2233 22.422 8.75977 21.0504 8.75977 19.3614C8.75977 17.6728 10.2238 16.3013 12.0318 16.3013Z"
                fill="#3AB59A" />
        </g>
        <path fill-rule="evenodd" clip-rule="evenodd"
            d="M20.6464 17.1123C22.2945 17.1123 23.6331 18.3623 23.6331 19.9065C23.6331 21.4502 22.2945 22.7002 20.6464 22.7002C18.9987 22.7002 17.6602 21.4502 17.6602 19.9065C17.6602 18.3623 18.9987 17.1123 20.6464 17.1123Z"
            fill="#3AB59A" />
        <path fill-rule="evenodd" clip-rule="evenodd"
            d="M11.3973 25.8735C12.4425 25.8735 13.2918 26.6651 13.2918 27.6447C13.2918 28.6242 12.4425 29.4158 11.3973 29.4158C10.3522 29.4158 9.50732 28.6242 9.50732 27.6447C9.50732 26.6651 10.3527 25.8735 11.3973 25.8735Z"
            fill="#3AB59A" />
        <mask id="mask2_309_2064" style="mask-type:luminance" maskUnits="userSpaceOnUse" x="13"
            y="0" width="54" height="34">
            <path d="M13.0537 0H66.369V33.7816H13.0537V0Z" fill="white" />
        </mask>
        <g mask="url(#mask2_309_2064)">
            <path fill-rule="evenodd" clip-rule="evenodd"
                d="M54.6899 0.012207C61.5942 20.2827 59.9581 15.8349 66.3692 33.7816H55.598L50.0049 17.2849L44.1929 33.7816H35.8994L30.0874 17.2849L24.4943 33.7816H13.7231L17.41 23.4643C18.2943 24.146 19.4335 24.5537 20.6785 24.5537C23.4967 24.5537 25.7818 22.4417 25.7818 19.836C25.7818 17.2302 23.4962 15.1182 20.6785 15.1182C20.5338 15.1182 20.3927 15.1222 20.252 15.1339L22.4121 8.78982C22.5963 8.81718 22.7844 8.82884 22.9721 8.82884C25.0624 8.82884 26.7607 7.2102 26.7607 5.20809C26.7607 3.81684 25.935 2.60589 24.7295 2.00265L25.4064 0.012207H34.9994L40.0486 15.8349L45.0978 0.012207H54.6908H54.6899ZM20.5136 27.7825C21.5587 27.7825 22.4081 28.5781 22.4081 29.5536C22.4081 30.5332 21.5587 31.3248 20.5136 31.3248C19.4685 31.3248 18.6231 30.5332 18.6231 29.5536C18.6231 28.5781 19.4685 27.7825 20.5136 27.7825Z"
                fill="#3AB59A" />
        </g>
        <path fill-rule="evenodd" clip-rule="evenodd"
            d="M22.8772 3.08789C24.1768 3.08789 25.2296 4.07549 25.2296 5.29003C25.2296 6.50457 24.1768 7.49217 22.8772 7.49217C21.5777 7.49217 20.5249 6.50457 20.5249 5.29003C20.5249 4.07549 21.5777 3.08789 22.8772 3.08789Z"
            fill="#3AB59A" />
        <path
            d="M92.2656 19.4463V16.9069H77.1737V27.6122H98.8567V33.8033H74.2461C73.8156 33.8033 73.3775 33.7015 72.9313 33.4898C72.4932 33.2704 72.0936 32.9883 71.7415 32.6434C71.397 32.2909 71.1152 31.8909 70.8961 31.4522C70.6847 31.0055 70.583 30.5507 70.583 30.0883V14.4303C70.583 13.9714 70.6847 13.5212 70.8961 13.0821C71.1152 12.6434 71.397 12.2474 71.7415 11.8909C72.0936 11.5383 72.4932 11.2562 72.9313 11.0445C73.3775 10.8252 73.8161 10.7153 74.2461 10.7153H95.1936C95.6201 10.7153 96.0546 10.8252 96.4932 11.0445C96.9394 11.2562 97.3385 11.5383 97.683 11.8909C98.0356 12.2474 98.3174 12.6434 98.5284 13.0821C98.7474 13.5212 98.8572 13.9714 98.8572 14.4303V21.374C98.8572 21.8243 98.7479 22.275 98.5284 22.7217C98.3169 23.1603 98.0351 23.5604 97.683 23.9129C97.339 24.2695 96.9394 24.5556 96.4932 24.7749C96.0551 24.9866 95.6205 25.0884 95.1936 25.0884H79.6944V19.4459H92.2656V19.4463Z"
            fill="#3AB59A" />
        <path
            d="M156.577 19.4463V16.9069H141.485V27.6122H163.168V33.8033H138.558C138.127 33.8033 137.689 33.7015 137.243 33.4898C136.804 33.2704 136.405 32.9883 136.053 32.6434C135.709 32.2909 135.427 31.8909 135.208 31.4522C134.996 31.0055 134.895 30.5507 134.895 30.0883V14.4303C134.895 13.9714 134.997 13.5212 135.208 13.0821C135.427 12.6434 135.709 12.2474 136.053 11.8909C136.406 11.5383 136.805 11.2562 137.243 11.0445C137.689 10.8252 138.127 10.7153 138.558 10.7153H159.505C159.932 10.7153 160.366 10.8252 160.804 11.0445C161.25 11.2562 161.65 11.5383 161.994 11.8909C162.346 12.2474 162.628 12.6434 162.839 13.0821C163.059 13.5212 163.168 13.9714 163.168 14.4303V21.374C163.168 21.8243 163.059 22.275 162.839 22.7217C162.628 23.1603 162.346 23.5604 161.994 23.9129C161.65 24.2695 161.25 24.5556 160.804 24.7749C160.366 24.9866 159.932 25.0884 159.505 25.0884H144.006V19.4459H156.577V19.4463Z"
            fill="#3AB59A" />
        <path
            d="M172.704 10.7158H166.113V33.8033H172.704V25.0885H178.951L186.559 33.8033H194.762L184.759 22.2831L194.762 10.7158H186.559L178.951 19.4463H172.704V10.7158Z"
            fill="#3AB59A" />
        <path
            d="M200.537 33.8032H221.672C222.098 33.8032 222.533 33.7014 222.971 33.4897C223.418 33.2704 223.817 32.9883 224.161 32.6434C224.514 32.2909 224.796 31.8908 225.007 31.4522C225.226 31.0055 225.335 30.5507 225.335 30.0883V24.8534H218.729V27.6117H203.465V16.9064H218.729V19.6647H225.335V14.4298C225.335 13.971 225.226 13.5207 225.007 13.0816C224.795 12.643 224.513 12.2469 224.161 11.8904C223.817 11.5378 223.418 11.2557 222.971 11.044C222.533 10.8247 222.099 10.7148 221.672 10.7148H200.537C200.106 10.7148 199.668 10.8247 199.222 11.044C198.783 11.2557 198.384 11.5378 198.032 11.8904C197.688 12.2469 197.406 12.643 197.187 13.0816C196.975 13.5207 196.874 13.971 196.874 14.4298V30.0878C196.874 30.5503 196.975 31.005 197.187 31.4517C197.406 31.8904 197.688 32.2904 198.032 32.643C198.384 32.9879 198.783 33.27 199.222 33.4893C199.668 33.701 200.106 33.8028 200.537 33.8028V33.8032Z"
            fill="#3AB59A" />
        <path
            d="M129.115 34.1041C129.874 34.1041 130.453 33.5242 130.453 32.764V29.877H102.28C102.26 29.972 102.25 30.0716 102.25 30.1743V32.7644C102.25 33.5246 102.829 34.1045 103.588 34.1045H129.115V34.1041ZM130.453 27.9206V11.5418C130.453 10.7816 129.874 10.2017 129.115 10.2017H119.209C114.297 10.2017 109.612 11.4516 108.273 16.8162L105.51 27.921H112.654L114.966 18.6891C115.592 16.3224 117.02 15.476 118.985 15.476H122.911V27.921H130.453L130.453 27.9206Z"
            fill="#3AB59A" />
        <path fill-rule="evenodd" clip-rule="evenodd"
            d="M155.402 6.53508H62.2944V3.62207H155.402V6.53508Z" fill="#3AB59A" />
        <path fill-rule="evenodd" clip-rule="evenodd"
            d="M225.231 6.53508H132.126V3.62207H225.231V6.53508Z" fill="#3AB59A" />
        <path fill-rule="evenodd" clip-rule="evenodd"
            d="M93.1088 42.5107H0.000488281V39.5977H93.1088V42.5107Z" fill="#3AB59A" />
        <path fill-rule="evenodd" clip-rule="evenodd"
            d="M156.992 42.5107H63.8828V39.5977H156.992V42.5107Z" fill="#3AB59A" />
        <path fill-rule="evenodd" clip-rule="evenodd"
            d="M226.82 42.5107H133.712V39.5977H226.82V42.5107Z" fill="#3AB59A" />
        <path
            d="M8.83126 48.5674H8.47915L6.40859 51.7293C6.25628 51.9603 6.1071 52.2038 5.96644 52.4465C5.82577 52.2038 5.67256 51.9603 5.52428 51.7293L3.46134 48.5674H3.10923L2.10352 55.4676H3.2696L3.79016 51.7724C3.82151 51.5297 3.86049 51.3059 3.87214 51.0436C4.00115 51.2786 4.14227 51.4979 4.29503 51.7096L5.84503 54.088H6.08739L7.64546 51.7096C7.78613 51.4979 7.92724 51.2866 8.04864 51.0669C8.06835 51.2983 8.09926 51.5176 8.12704 51.7607L8.67088 55.4676H9.83742L8.83126 48.5674Z"
            fill="#3AB59A" />
        <path
            d="M15.5414 54.4213V52.4972H18.2656V51.4782H15.5414V49.664H18.6607V48.6177H14.3516V55.4672H18.7507V54.4208H15.5414V54.4213Z"
            fill="#3AB59A" />
        <path
            d="M28.5185 54.3702V48.6182H24.2716L23.9195 52.0115C23.8295 52.9597 23.6261 53.6651 23.2659 54.3702H22.4712V56.9998H23.5867V55.4677H28.2246V56.9998H29.3517V54.3702H28.518H28.5185ZM25.0663 52.2349L25.3365 49.7152H27.3524V54.3702H24.5225C24.8043 53.7042 24.9767 53.0498 25.0668 52.2349H25.0663Z"
            fill="#3AB59A" />
        <path
            d="M39.1596 48.5791L35.5982 52.3761C35.316 52.6663 35.0463 52.9793 34.8035 53.2736C34.8232 52.9484 34.8349 52.6268 34.8349 52.3057V48.6186H33.645V55.5071H33.9971L37.5707 51.6711C37.8211 51.3966 38.0948 51.1064 38.3533 50.805C38.3336 51.1382 38.3259 51.4674 38.3259 51.7805V55.4681H39.5117V48.5796H39.1596V48.5791Z"
            fill="#3AB59A" />
        <path
            d="M49.8822 54.3702V48.6182H48.696V54.3702H45.6273V48.6182H44.4375V55.4677H49.639V56.9998H50.7585V54.3702H49.8818H49.8822Z"
            fill="#3AB59A" />
        <path
            d="M60.5645 48.5791L57.003 52.3761C56.7213 52.6663 56.4511 52.9793 56.2088 53.2736C56.2285 52.9484 56.2401 52.6268 56.2401 52.3057V48.6186H55.0503V55.5071H55.4024L58.9759 51.6711C59.2264 51.3966 59.5001 51.1064 59.7585 50.805C59.7388 51.1382 59.7312 51.4674 59.7312 51.7805V55.4681H60.9175V48.5796H60.5649L60.5645 48.5791Z"
            fill="#3AB59A" />
        <path
            d="M65.8428 55.4677H67.0326V52.5677H70.3633V55.4677H71.5496V48.6182H70.3633V51.4666H67.0326V48.6182H65.8428V55.4677Z"
            fill="#3AB59A" />
        <path
            d="M79.6259 55.597C80.792 55.597 81.7197 55.1342 82.381 54.3192L81.6373 53.555C81.1831 54.1466 80.5218 54.5188 79.6447 54.5188C78.2551 54.5188 77.3201 53.4335 77.3201 52.0305C77.3201 50.5926 78.2869 49.566 79.6841 49.566C80.5218 49.566 81.1244 49.8481 81.6176 50.2989L82.2318 49.4956C81.4648 48.7982 80.6898 48.4883 79.6564 48.4883C77.5818 48.4883 76.1025 49.9773 76.1025 52.0305C76.1025 54.0057 77.5114 55.5966 79.6254 55.5966L79.6259 55.597Z"
            fill="#3AB59A" />
        <path
            d="M88.9885 52.0115L91.6853 48.6496V48.6182H90.3392L87.8851 51.6904V48.6182H86.6953V55.4677H87.8851V52.4071L90.5 55.4677H91.8972V55.4287L88.989 52.012L88.9885 52.0115Z"
            fill="#3AB59A" />
        <path
            d="M98.8604 48.5791H98.4966L95.2676 55.4483V55.4681H96.5161L97.0796 54.2298H100.277L100.841 55.4681H102.078V55.4367L98.8604 48.5791ZM98.6767 50.4915C98.8371 50.9342 98.9782 51.2988 99.1421 51.659L99.8858 53.2933H97.4707L98.2144 51.659C98.3747 51.2867 98.5159 50.9342 98.6767 50.4915Z"
            fill="#3AB59A" />
        <path
            d="M108.184 48.6186C106.724 48.6186 105.859 49.5667 105.859 50.7423C105.859 51.6316 106.372 52.4466 107.339 52.7287L105.578 55.4287V55.4677H106.897L108.564 52.8381H109.743V55.4677H110.928V48.6182H108.185L108.184 48.6186ZM109.742 51.8707H108.294C107.519 51.8707 107.045 51.428 107.045 50.7539C107.045 50.0879 107.519 49.6448 108.294 49.6448H109.742V51.8702V51.8707Z"
            fill="#3AB59A" />
        <path
            d="M120.789 55.5502C122.268 55.4681 123.02 54.6335 123.282 52.3448L123.575 49.7152H125.658V55.4677H126.844V48.6182H122.55L122.174 51.9604C121.963 53.806 121.634 54.4724 120.628 54.5505L120.789 55.5498V55.5502Z"
            fill="#3AB59A" />
        <path
            d="M134.581 48.5791H134.217L130.988 55.4483V55.4681H132.236L132.8 54.2298H135.998L136.562 55.4681H137.798V55.4367L134.581 48.5791H134.581ZM134.397 50.4915C134.557 50.9342 134.698 51.2988 134.863 51.659L135.606 53.2933H133.192L133.935 51.659C134.096 51.2867 134.237 50.9342 134.397 50.4915H134.397Z"
            fill="#3AB59A" />
        <path
            d="M141.94 55.4681H144.688C146.136 55.4681 146.993 54.4926 146.993 53.3911C146.993 52.3138 146.136 51.3262 144.688 51.3262H143.13V49.6762H146.398V48.6182H141.94V55.4677V55.4681ZM143.13 54.4729V52.3138H144.559C145.334 52.3138 145.807 52.7291 145.807 53.3911C145.807 54.0688 145.334 54.4729 144.559 54.4729H143.13Z"
            fill="#3AB59A" />
        <path
            d="M154.646 55.5971C156.759 55.5971 158.208 54.0372 158.208 52.031C158.208 49.9778 156.759 48.4888 154.646 48.4888C152.556 48.4888 151.084 49.9778 151.084 52.031C151.084 54.0376 152.556 55.5971 154.646 55.5971ZM154.646 54.5193C153.218 54.5193 152.302 53.4142 152.302 52.031C152.302 50.6129 153.218 49.5665 154.646 49.5665C156.087 49.5665 157.002 50.6129 157.002 52.031C157.002 53.4142 156.087 54.5193 154.646 54.5193Z"
            fill="#3AB59A" />
        <path
            d="M162.762 55.4677H163.952V52.9677H165.369C166.88 52.9677 167.682 51.9411 167.682 50.8243C167.682 49.6959 166.86 48.6182 165.388 48.6182H162.762V55.4677H162.762ZM163.952 51.9528V49.6564H165.267C166.023 49.6564 166.488 50.1695 166.488 50.8122C166.488 51.3962 166.105 51.9523 165.24 51.9523H163.952V51.9528Z"
            fill="#3AB59A" />
        <path
            d="M174.847 48.5791H174.482L171.254 55.4483V55.4681H172.502L173.066 54.2298H176.264L176.827 55.4681H178.064V55.4367L174.847 48.5791ZM174.663 50.4915C174.823 50.9342 174.964 51.2988 175.128 51.659L175.872 53.2933H173.458L174.201 51.659C174.362 51.2867 174.503 50.9342 174.663 50.4915H174.663Z"
            fill="#3AB59A" />
        <path d="M186.625 48.6182H181.564V49.7152H183.506V55.4677H184.692V49.7152H186.625V48.6182Z"
            fill="#3AB59A" />
        <path
            d="M194.107 55.5971C196.221 55.5971 197.669 54.0372 197.669 52.031C197.669 49.9778 196.221 48.4888 194.107 48.4888C192.017 48.4888 190.546 49.9778 190.546 52.031C190.546 54.0376 192.018 55.5971 194.107 55.5971ZM194.107 54.5193C192.679 54.5193 191.763 53.4142 191.763 52.031C191.763 50.6129 192.679 49.5665 194.107 49.5665C195.548 49.5665 196.464 50.6129 196.464 52.031C196.464 53.4142 195.548 54.5193 194.107 54.5193Z"
            fill="#3AB59A" />
        <path
            d="M202.224 55.4677H203.413V52.9677H204.83C206.341 52.9677 207.143 51.9411 207.143 50.8243C207.143 49.6959 206.321 48.6182 204.85 48.6182H202.223V55.4677H202.224ZM203.413 51.9528V49.6564H204.728C205.484 49.6564 205.949 50.1695 205.949 50.8122C205.949 51.3962 205.566 51.9523 204.701 51.9523H203.413L203.413 51.9528Z"
            fill="#3AB59A" />
        <path
            d="M217.013 48.5791L213.452 52.3761C213.17 52.6663 212.9 52.9793 212.657 53.2736C212.677 52.9484 212.688 52.6268 212.688 52.3057V48.6186H211.499V55.5071H211.851L215.424 51.6711C215.675 51.3966 215.949 51.1064 216.207 50.805C216.187 51.1382 216.179 51.4674 216.179 51.7805V55.4681H217.365V48.5796H217.013V48.5791Z"
            fill="#3AB59A" />
        <path
            d="M224.256 48.6186C222.796 48.6186 221.931 49.5667 221.931 50.7423C221.931 51.6316 222.444 52.4466 223.411 52.7287L221.649 55.4287V55.4677H222.968L224.636 52.8381H225.814V55.4677H227V48.6182H224.256L224.256 48.6186ZM225.814 51.8707H224.366C223.591 51.8707 223.117 51.428 223.117 50.7539C223.117 50.0879 223.591 49.6448 224.366 49.6448H225.814V51.8702V51.8707Z"
            fill="#3AB59A" />
    </g>
    <defs>
        <clipPath id="clip0_309_2064">
            <rect width="227" height="57" fill="white" />
        </clipPath>
    </defs>
</svg>
