<svg width="53" height="53" viewBox="0 0 53 53" fill="none" xmlns="http://www.w3.org/2000/svg">
<path d="M24.8543 48.823C22.0981 49.0325 19.3667 48.1753 17.2245 46.4286C15.0822 44.6818 13.6927 42.1789 13.3431 39.437C17.0896 41.1774 20.1885 41.1793 22.5704 38.2174C23.4815 37.2228 24.2012 36.4375 25.6719 36.4375C28.7578 36.535 31.7277 37.6364 34.1311 39.5745C34.3046 39.7044 34.5221 39.761 34.7369 39.7323C34.9517 39.7037 35.1467 39.5919 35.28 39.4211C35.4134 39.2502 35.4745 39.0339 35.4501 38.8186C35.4258 38.6033 35.3181 38.406 35.15 38.2692C32.4556 36.1039 29.1271 34.879 25.6719 34.7813C19.6561 35.1631 22.1285 41.8172 13.2713 37.5811C13.3862 35.3574 14.1842 33.2232 15.5565 31.4696C16.9287 29.716 18.8084 28.4284 20.9393 27.7822C21.1103 27.7313 21.2603 27.6266 21.367 27.4835C21.4736 27.3405 21.5313 27.1669 21.5313 26.9885V12.0491C21.5313 11.8642 21.4694 11.6846 21.3555 11.5389C21.2417 11.3932 21.0823 11.2899 20.9029 11.2452C19.4949 10.8955 19.074 10.4325 19.0453 10.3666C20.1214 8.71199 27.917 8.76032 28.986 10.3363C28.9573 10.4325 28.5363 10.8955 27.1284 11.2453C26.949 11.2899 26.7896 11.3933 26.6758 11.5389C26.5619 11.6846 26.5 11.8642 26.5 12.0491V26.9884C26.4836 27.7424 27.3274 27.8322 27.8652 28.0454C27.981 28.0837 28.1038 28.0966 28.2251 28.0832C28.3464 28.0698 28.4634 28.0305 28.5681 27.9678C28.6729 27.9052 28.7629 27.8208 28.8321 27.7202C28.9013 27.6197 28.9481 27.5055 28.9692 27.3853C28.9903 27.2651 28.9853 27.1418 28.9545 27.0237C28.9237 26.9056 28.8679 26.7955 28.7907 26.7009C28.7136 26.6063 28.617 26.5295 28.5075 26.4755C28.3981 26.4216 28.2783 26.3919 28.1563 26.3884V12.6746C29.7648 12.1562 30.6406 11.3435 30.6406 10.3516C30.6406 8.3601 27.2064 7.45312 24.0156 7.45312C20.8249 7.45312 17.3906 8.3601 17.3906 10.3516C17.3906 11.3434 18.2665 12.1562 19.875 12.6746V26.3876C18.4269 26.9033 17.0882 27.6856 15.9281 28.6941C15.3181 28.271 14.6577 27.9259 13.9621 27.6666V18.2147C15.4873 17.6757 15.7344 16.8597 15.7344 16.3886C15.7344 14.7926 13.2387 14.0781 10.7656 14.0781C8.29258 14.0781 5.79689 14.7926 5.79689 16.3886C5.79689 16.8597 6.04395 17.6757 7.56919 18.2147V27.669C-3.34845 32.2637 2.20869 48.1226 13.6039 44.8463C14.824 46.7277 16.5305 48.2439 18.5426 49.2339C20.5546 50.2239 22.7971 50.6509 25.0322 50.4695C25.2473 50.4421 25.4431 50.3313 25.5775 50.161C25.7118 49.9908 25.774 49.7746 25.7507 49.559C25.7274 49.3434 25.6205 49.1455 25.4529 49.0079C25.2852 48.8702 25.0703 48.8039 24.8543 48.823ZM8.63386 29.0576C8.80479 29.0066 8.95469 28.9018 9.06128 28.7588C9.16786 28.6158 9.22544 28.4422 9.22544 28.2638V17.5977C9.22537 17.4127 9.16343 17.2331 9.04948 17.0874C8.93554 16.9418 8.77614 16.8384 8.59666 16.7938C8.22998 16.717 7.87899 16.5785 7.55867 16.3842C8.55368 15.8945 9.65849 15.6706 10.7656 15.7344C11.8728 15.6706 12.9776 15.8945 13.9726 16.3842C13.6523 16.5785 13.3013 16.717 12.9346 16.7938C12.7551 16.8384 12.5957 16.9418 12.4818 17.0874C12.3679 17.2331 12.3059 17.4127 12.3058 17.5977V28.2638C12.3058 28.4427 12.3638 28.6168 12.471 28.7601C12.5782 28.9033 12.729 29.008 12.9006 29.0584C13.5447 29.2494 14.159 29.5291 14.7259 29.8896C13.7525 30.9927 12.9802 32.2581 12.4442 33.6282C7.65735 33.3224 9.35489 38.6833 3.3338 35.6857C3.44393 34.1748 4.00933 32.7326 4.95548 31.5494C5.90162 30.3661 7.1841 29.4974 8.63386 29.0576ZM10.7656 43.6505C9.02356 43.6476 7.3374 43.0352 5.99947 41.9195C4.66155 40.8038 3.7562 39.2551 3.44039 37.5419C5.99972 38.6881 8.32413 38.4563 9.90639 36.4483C10.6 35.6915 11.0408 35.2632 11.9295 35.2559C11.2872 37.9784 11.5889 40.8383 12.7851 43.3669C12.1283 43.5546 11.4487 43.65 10.7656 43.6505Z" fill="#3AB59A"/>
<path d="M49.6875 43.8906H47.9015C52.734 35.955 47.2562 25.0861 38.0938 24.1385V23.1875C38.0933 22.7484 37.9187 22.3274 37.6082 22.0168C37.2976 21.7063 36.8766 21.5317 36.4375 21.5312V19.0469C36.4375 18.8272 36.3503 18.6166 36.1949 18.4613C36.0396 18.306 35.829 18.2188 35.6094 18.2188H32.2969C32.0772 18.2188 31.8666 18.306 31.7113 18.4613C31.556 18.6166 31.4688 18.8272 31.4688 19.0469V21.5312C31.0296 21.5317 30.6086 21.7063 30.2981 22.0168C29.9876 22.3274 29.8129 22.7484 29.8125 23.1875V33.125C29.8129 33.5641 29.9876 33.9851 30.2981 34.2957C30.6086 34.6062 31.0296 34.7808 31.4688 34.7812H36.4375C36.8766 34.7808 37.2976 34.6062 37.6082 34.2957C37.9187 33.9851 38.0933 33.5641 38.0938 33.125V29.1595C44.9832 30.5234 47.1164 39.6989 41.3838 43.8906H29.8125V42.2344H38.9219C39.1387 42.2301 39.3452 42.141 39.4971 41.9862C39.6489 41.8313 39.734 41.6231 39.734 41.4062C39.734 41.1893 39.6489 40.9811 39.497 40.8263C39.3452 40.6714 39.1387 40.5823 38.9218 40.5781H28.9844C28.7647 40.5781 28.5541 40.6654 28.3988 40.8207C28.2435 40.976 28.1562 41.1866 28.1562 41.4062V43.8906C27.7171 43.8911 27.2961 44.0657 26.9856 44.3762C26.6751 44.6867 26.5004 45.1077 26.5 45.5469V48.8594C26.5004 49.2985 26.6751 49.7195 26.9856 50.03C27.2961 50.3405 27.7171 50.5152 28.1562 50.5156H49.6875C50.1266 50.5152 50.5476 50.3405 50.8582 50.03C51.1687 49.7195 51.3433 49.2985 51.3438 48.8594V45.5469C51.3433 45.1077 51.1687 44.6867 50.8582 44.3762C50.5476 44.0657 50.1266 43.8911 49.6875 43.8906ZM33.125 19.875H34.7812V21.5312H33.125V19.875ZM36.4375 33.125H31.4688V23.1875H36.4375V24.0156C35.7834 24.023 35.1587 24.288 34.6988 24.7531C34.2389 25.2182 33.9809 25.8459 33.9809 26.5C33.9809 27.1541 34.2389 27.7818 34.6988 28.2469C35.1587 28.712 35.7834 28.977 36.4375 28.9844V33.125ZM46.375 37.2656C46.361 34.7907 45.4293 32.4089 43.7603 30.5814C42.0912 28.7539 39.8036 27.6105 37.34 27.3726C36.6621 27.3141 35.6303 27.4649 35.6094 26.4999C35.6218 25.6342 36.5503 25.6046 37.2118 25.7035C46.0614 26.1618 51.1393 36.7032 45.9407 43.8906H43.8303C45.4649 42.0707 46.371 39.7119 46.375 37.2656ZM28.1562 48.8594V45.5469H49.6875L49.6887 48.8594H28.1562Z" fill="#3AB59A"/>
<path d="M9.10938 9.10944C9.11675 9.76349 9.38174 10.3883 9.84686 10.8482C10.312 11.3081 10.9397 11.566 11.5938 11.566C12.2479 11.566 12.8756 11.308 13.3407 10.8481C13.8058 10.3882 14.0708 9.76342 14.0781 9.10937C14.0708 8.45531 13.8058 7.83055 13.3406 7.37065C12.8755 6.91075 12.2478 6.65282 11.5937 6.65283C10.9396 6.65284 10.3119 6.91079 9.84681 7.3707C9.3817 7.83062 9.11673 8.45539 9.10938 9.10944ZM12.4219 9.10944C12.4176 9.32628 12.3285 9.5328 12.1737 9.68465C12.0188 9.8365 11.8106 9.92156 11.5937 9.92155C11.3768 9.92155 11.1686 9.83648 11.0138 9.68462C10.8589 9.53276 10.7698 9.32623 10.7656 9.10939C10.7699 8.89255 10.859 8.68603 11.0138 8.53418C11.1687 8.38233 11.3769 8.29727 11.5938 8.29728C11.8107 8.29728 12.0189 8.38235 12.1737 8.53421C12.3286 8.68607 12.4177 8.8926 12.4219 9.10944Z" fill="#3AB59A"/>
<path d="M14.0781 4.96882C14.0855 5.62287 14.3505 6.24763 14.8156 6.70753C15.2807 7.16743 15.9084 7.42536 16.5625 7.42535C17.2166 7.42534 17.8443 7.16739 18.3094 6.70748C18.7745 6.24757 19.0395 5.6228 19.0469 4.96874C19.0395 4.31469 18.7745 3.68992 18.3094 3.23003C17.8443 2.77013 17.2166 2.5122 16.5625 2.51221C15.9084 2.51222 15.2807 2.77017 14.8156 3.23008C14.3505 3.68999 14.0855 4.31476 14.0781 4.96882ZM17.3906 4.96882C17.3864 5.18565 17.2973 5.39218 17.1424 5.54403C16.9876 5.69588 16.7794 5.78094 16.5625 5.78093C16.3456 5.78092 16.1374 5.69585 15.9825 5.54399C15.8277 5.39214 15.7386 5.1856 15.7344 4.96877C15.7386 4.75193 15.8277 4.5454 15.9826 4.39355C16.1374 4.2417 16.3456 4.15665 16.5625 4.15665C16.7794 4.15666 16.9876 4.24173 17.1425 4.39359C17.2973 4.54545 17.3864 4.75198 17.3906 4.96882Z" fill="#3AB59A"/>
</svg>
