<svg width="53" height="53" viewBox="0 0 53 53" fill="none" xmlns="http://www.w3.org/2000/svg">
<g clip-path="url(#clip0_1_211)">
<path d="M48.2797 13.7675C48.0975 13.9497 47.9001 14.1166 47.6902 14.2697L38.7295 5.30943C38.8828 5.09984 39.0489 4.90156 39.2313 4.7191C40.3037 3.6467 40.3173 1.8991 39.2245 0.807364C38.148 -0.269121 36.3961 -0.269121 35.3196 0.807364C31.5659 4.56153 31.4208 10.6579 31.795 14.5353C27.9173 14.1612 21.8193 14.3072 18.0603 18.0666C14.306 21.8215 14.1616 27.9192 14.5355 31.7946C10.6585 31.4204 4.56192 31.5656 0.80834 35.3191C-0.268145 36.3956 -0.268145 38.1476 0.80834 39.2241C1.34998 39.7657 2.06049 40.036 2.77048 40.036C3.421 40.036 4.06445 39.7979 4.58244 39.3431L13.6557 48.4164C12.6521 49.555 12.7704 51.1856 13.7753 52.1905C14.8489 53.2651 16.5956 53.2745 17.6797 52.1905C21.4203 48.4508 21.5704 42.3442 21.2028 38.4616C22.0419 38.5411 22.9792 38.5977 23.9802 38.5977C27.6106 38.5977 32.0002 37.8705 34.9322 34.9385C38.6776 31.1931 38.8294 25.0869 38.4622 21.2036C42.3396 21.5776 48.4376 21.4335 52.1915 17.6792C53.2679 16.6028 53.2679 14.8508 52.1915 13.7743C51.0867 12.6685 49.3362 12.7121 48.2797 13.7675ZM46.209 15.0597C45.5113 15.3312 44.7532 15.5137 43.9786 15.6319L37.3623 9.01568C37.4813 8.24192 37.661 7.48278 37.9342 6.78521L46.209 15.0597ZM37.4791 15.5183C37.3337 14.5842 37.1322 12.9205 37.1796 11.1041L41.8858 15.8103C40.0756 15.8573 38.4126 15.6614 37.4791 15.5183ZM36.4551 1.94293C36.9058 1.49331 37.6383 1.49331 38.089 1.94293C38.5433 2.39726 38.5459 3.13287 38.0958 3.58354C35.1035 6.57628 35.4142 12.2979 35.8062 15.1895C35.0936 15.0303 34.4248 14.8851 33.4275 14.7342C33.0417 11.1864 33.0464 5.35224 36.4551 1.94293ZM14.6303 47.1199L5.88163 38.3712C6.4936 38.0259 7.18058 37.7744 7.90474 37.5931L15.4114 45.0992C15.2292 45.8218 14.9772 46.5082 14.6303 47.1199ZM15.5202 37.4805C15.6992 38.63 15.9618 40.8875 15.7419 43.1587L9.84858 37.2657C12.1185 37.0474 14.3721 37.3044 15.5202 37.4805ZM1.9439 38.0885C1.49375 37.6378 1.49375 36.9054 1.9439 36.4547C5.06724 33.3307 10.3615 32.9516 14.7319 33.4265C14.9144 34.6645 15.1343 35.6151 15.1916 35.8085C12.2983 35.4216 6.56352 35.1163 3.5845 38.0953C3.13488 38.5449 2.39875 38.5423 1.9439 38.0885ZM22.8989 21.2573L31.7412 30.0996C31.2686 30.8654 30.8045 31.2941 30.102 31.7359L21.2631 22.8965C21.7014 22.1993 22.1321 21.7303 22.8989 21.2573ZM27.2066 20.0085L32.9904 25.8024C32.8983 26.7751 32.7221 27.7005 32.4477 28.535L24.4639 20.5512C25.3011 20.276 26.2303 20.1003 27.2066 20.0085ZM32.7763 20.223C32.943 21.3124 33.0519 22.4649 33.0718 23.6108L29.396 19.9286C30.5395 19.9488 31.6889 20.0569 32.7763 20.223ZM25.8014 33.0028L19.9952 27.1966C20.0805 26.2547 20.2535 25.3151 20.5426 24.4472L28.5514 32.4564C27.6834 32.7458 26.7436 32.9174 25.8014 33.0028ZM23.6001 33.0726C22.1997 33.0425 20.9747 32.8937 20.2215 32.7778C20.1061 32.0245 19.9577 30.7981 19.9276 29.4001L23.6001 33.0726ZM33.7966 33.803C30.4025 37.1971 24.5647 37.2086 21.0085 36.8301C20.9221 36.2407 20.6788 34.8879 20.5489 34.4492C24.3372 34.9556 29.452 34.868 32.156 32.1623C35.1112 29.2072 34.8208 23.4561 34.4456 20.5525C34.788 20.6406 35.7804 20.8469 36.8305 21.0049C37.2096 24.5601 37.1965 30.4031 33.7966 33.803ZM51.0559 16.5437C47.2731 20.3265 39.9372 20.2072 34.8579 18.9999C30.7498 17.9267 23.8893 17.79 20.8365 20.8428C17.823 23.8563 17.9949 30.143 18.868 34.3073C18.9807 34.8446 19.2559 35.7188 19.5001 37.6561C19.9398 41.1172 20.1401 47.4595 16.5441 51.0549C16.0917 51.5074 15.3622 51.5062 14.9108 51.0549C14.4552 50.5993 14.4494 49.8695 14.904 49.4148C18.386 45.9323 17.3953 38.7582 17.0089 36.6424C17.0037 36.6131 16.9964 36.5838 16.9875 36.5551C16.4828 33.7981 16.9376 37.0079 16.2398 32.5994C15.7939 29.1462 15.5853 22.8138 19.1959 19.2022C22.8122 15.5859 29.1456 15.7929 32.5988 16.2394C34.9006 16.5398 35.1223 16.7297 36.6454 17.009C38.7665 17.3912 45.9527 18.3678 49.4153 14.9031C49.8621 14.4562 50.593 14.447 51.0559 14.9099C51.506 15.3605 51.506 16.093 51.0559 16.5437Z" fill="#3AB59A"/>
</g>
<defs>
<clipPath id="clip0_1_211">
<rect width="53" height="53" fill="white"/>
</clipPath>
</defs>
</svg>
