<svg width="53" height="53" viewBox="0 0 53 53" fill="none" xmlns="http://www.w3.org/2000/svg">
<g clip-path="url(#clip0_1_186)">
<path d="M23.1062 46.9989V47.0702H20.2443C18.41 47.0702 16.9173 48.5625 16.9173 50.3967V51.4491H13.6215C13.1937 51.4491 12.8467 51.7962 12.8467 52.2239C12.8467 52.6517 13.1937 52.9988 13.6215 52.9988C49.8367 52.9992 1.84533 53.0012 43.7095 52.9988C44.1373 52.9988 44.4843 52.6517 44.4843 52.2239C44.4843 51.7962 44.1373 51.4491 43.7095 51.4491H40.4117V50.3967C40.4117 48.5625 38.919 47.0702 37.0847 47.0702H34.2228V44.8899C34.2228 43.4223 33.6722 41.9988 32.5008 40.8808H42.5724C43.0002 40.8808 43.3472 40.5337 43.3472 40.1059C43.3472 39.6782 43.0002 39.3311 42.5724 39.3311H28.6655C28.6641 39.3311 28.6629 39.3319 28.6615 39.3319C26.4361 39.3331 24.5258 40.657 23.6398 42.5515C19.278 41.9269 15.8288 39.1746 14.1164 35.4305C11.1126 28.8629 14.2749 20.9736 21.3391 18.5207C22.1874 19.7855 23.6289 20.6206 25.2628 20.6206C25.8714 20.6206 26.4491 20.4954 26.9838 20.2848L30.0654 27.4699L28.9576 27.9501C28.5651 28.1201 28.3845 28.5767 28.555 28.9691C28.7268 29.3655 29.1873 29.5408 29.5741 29.3717C30.3383 29.0404 33.1861 27.8059 33.0169 27.8792L33.8298 29.803C34.7393 31.9004 37.1851 32.8604 39.2726 31.9536C41.3657 31.0461 42.3302 28.6044 41.4262 26.5174L40.6102 24.5869L44.0177 23.1097C44.4102 22.9396 44.5908 22.4831 44.4203 22.0906C44.2503 21.6986 43.7942 21.5155 43.4012 21.6881L42.3046 22.1635L35.1621 5.5302C34.4897 3.96532 32.6635 3.2419 31.0925 3.91739L30.838 4.02748L29.9514 1.98272C29.2295 0.316942 27.2863 -0.449858 25.6195 0.271031C23.9537 0.993443 23.1859 2.93668 23.9078 4.60296L24.7941 6.64704L24.5333 6.75809C22.9569 7.44122 22.2516 9.28401 22.9306 10.8312L23.2715 11.6301C22.2648 12.1022 21.4545 12.9141 20.9864 13.9232C10.9994 16.6696 5.68873 27.7289 10.0574 37.2839C12.5679 42.7753 17.6214 46.2527 23.1062 46.9989ZM28.6645 40.8813C30.8527 40.8813 32.6731 42.6405 32.6731 44.8899V47.8451C32.6731 48.2729 33.0201 48.62 33.4479 48.62H37.0847C38.0649 48.62 38.862 49.417 38.862 50.3967V51.4491H18.467V50.3967C18.467 49.417 19.2641 48.62 20.2443 48.62H23.881C24.3088 48.62 24.6559 48.2729 24.6559 47.8451C24.6559 47.6653 24.6559 44.7811 24.6559 44.8899C24.6559 42.7519 26.4143 40.8813 28.6645 40.8813ZM40.0016 27.1273C40.5686 28.4369 39.9652 29.964 38.6561 30.532C37.3495 31.0985 35.82 30.4972 35.2545 29.1931L34.4389 27.2626C34.5528 27.2133 39.5036 25.0667 39.1882 25.2035L40.0016 27.1273ZM26.2359 1.69265C27.1169 1.31141 28.1461 1.71493 28.5298 2.59919L29.4158 4.64262L26.2143 6.02742L25.3294 3.9865C24.9475 3.10417 25.3541 2.07504 26.2359 1.69265ZM24.775 11.204L24.3532 10.2158C24.0049 9.42271 24.3857 8.5105 25.1453 8.18172C37.6392 2.77621 22.5147 9.321 31.7085 5.33951C32.4945 5.00454 33.403 5.36272 33.7385 6.14213L40.883 22.7799L31.4874 26.8533L28.328 19.4865C30.0847 18.0037 30.5581 15.2985 29.1788 13.2601C28.2153 11.8339 26.5352 11.0117 24.775 11.204ZM25.2653 12.7275C26.358 12.7275 27.3233 13.2828 27.8941 14.1259C29.3161 16.2318 27.7646 19.0708 25.2628 19.0708C23.7464 19.0708 22.4783 17.9911 22.1673 16.5786C21.7415 14.6243 23.2497 12.7275 25.2653 12.7275ZM20.5495 15.6691C20.5179 16.347 20.6661 16.9178 20.6933 17.0832C12.9606 19.8485 9.30418 28.6352 12.7069 36.0752C14.7356 40.5103 18.7527 43.3511 23.1672 44.0711C23.1263 44.3405 23.1062 44.6139 23.1062 44.8899V45.4418C18.2876 44.714 13.741 41.6134 11.4669 36.6392C7.62309 28.231 12.027 18.5463 20.5495 15.6691Z" fill="#3AB59A"/>
<path d="M25.2627 18.2476C26.5582 18.2476 27.6125 17.1932 27.6125 15.8977C27.6125 14.6017 26.5582 13.5474 25.2627 13.5474C23.9672 13.5474 22.9128 14.6017 22.9128 15.8977C22.9128 17.1932 23.9672 18.2476 25.2627 18.2476ZM25.2627 15.0971C25.7041 15.0971 26.0628 15.4563 26.0628 15.8977C26.0628 16.3391 25.7041 16.6978 25.2627 16.6978C24.8213 16.6978 24.4626 16.3391 24.4626 15.8977C24.4626 15.4563 24.8213 15.0971 25.2627 15.0971Z" fill="#3AB59A"/>
<path d="M28.6655 47.3565C30.0327 47.3565 31.145 46.2441 31.145 44.877C31.145 43.5093 30.0327 42.397 28.6655 42.397C27.2979 42.397 26.1855 43.5093 26.1855 44.877C26.1855 46.2441 27.2979 47.3565 28.6655 47.3565ZM28.6655 43.9467C29.1781 43.9467 29.5953 44.3639 29.5953 44.877C29.5953 45.3895 29.1781 45.8067 28.6655 45.8067C28.1525 45.8067 27.7353 45.3895 27.7353 44.877C27.7353 44.3639 28.1525 43.9467 28.6655 43.9467Z" fill="#3AB59A"/>
</g>
<defs>
<clipPath id="clip0_1_186">
<rect width="53" height="53" fill="white"/>
</clipPath>
</defs>
</svg>
