<svg width="687" height="845" viewBox="0 0 687 845" fill="none" xmlns="http://www.w3.org/2000/svg">
    <mask id="mask0_1_1139" style="mask-type:alpha" maskUnits="userSpaceOnUse" x="0" y="0"
        width="687" height="845">
        <rect width="687" height="845" fill="#D9D9D9" />
    </mask>
    <g mask="url(#mask0_1_1139)">
        <g opacity="0.5">
            <path
                d="M489.287 303.26V358.72L438.126 386.45L386.96 358.72V303.26L438.125 275.535L489.287 303.26ZM378.252 298.541V363.443L438.126 395.892L498 363.443V298.542L438.126 266.093L378.251 298.542"
                fill="#AFD9CE" />
            <path
                d="M425.64 406.756V462.21L374.475 489.943L323.312 462.21V406.756L374.474 379.021L425.64 406.756ZM314.6 402.031V466.933L374.474 499.382L434.348 466.933V402.031L374.474 369.581L314.6 402.031Z"
                fill="white" />
            <path
                d="M361.985 96.2802V151.74L310.824 179.47L259.662 151.74V96.2802L310.824 68.5507L361.985 96.2802ZM250.95 91.5605V156.463L310.824 188.912L370.699 156.46V91.5616L310.824 59.1124L250.95 91.5605Z"
                fill="#AFD9CE" />
            <path
                d="M361.985 303.26V358.72L310.824 386.45L259.662 358.72V303.26L310.824 275.535L361.985 303.26ZM250.95 298.541V363.443L310.824 395.892L370.699 363.443V298.542L310.824 266.093L250.95 298.541Z"
                fill="#60CCB6" />
            <path
                d="M301.463 406.756V462.214L250.301 489.94L199.135 462.214V406.755L250.3 379.025L301.463 406.756ZM190.427 402.031V466.933L250.301 499.382L310.172 466.933V402.031L250.301 369.581L190.427 402.031ZM298.338 199.77V255.23L247.176 282.96L196.01 255.23V199.776L247.175 172.045L298.338 199.77ZM187.302 195.051V259.953L247.176 292.402L307.047 259.953V195.052L247.176 162.602L187.301 195.052"
                fill="#AFD9CE" />
            <path
                d="M234.688 96.2802V151.74L183.524 179.47L132.361 151.74V96.2802L183.522 68.5508L234.688 96.2802ZM123.648 91.5606V156.459L183.522 188.913L243.396 156.459V91.5606L183.522 59.1114L123.648 91.5606Z"
                fill="#60CCB6" />
            <path d="M254.457 494.663V705.558H246.141V494.663H254.457Z" fill="#AFD9CE" />
            <path
                d="M237.796 704.969C237.796 711.454 243.391 716.708 250.299 716.708C257.202 716.708 262.799 711.454 262.799 704.969C262.799 698.488 257.202 693.234 250.299 693.234C243.391 693.234 237.795 698.488 237.795 704.969M194.778 430.578V438.387H115.882V430.578H194.778Z"
                fill="#AFD9CE" />
            <path
                d="M116.504 422.746C109.601 422.746 104 428 104 434.481C104 440.966 109.601 446.219 116.504 446.219C123.409 446.219 129.01 440.966 129.01 434.481C129.01 428 123.409 422.746 116.504 422.746Z"
                fill="#AFD9CE" />
        </g>
    </g>
</svg>
