<svg width="53" height="53" viewBox="0 0 53 53" fill="none" xmlns="http://www.w3.org/2000/svg">
<g clip-path="url(#clip0_1_201)">
<path d="M40.7012 20.4403C39.6692 20.4403 38.7888 21.2679 38.3517 22.5984H37.4017C37.1173 20.9446 36.4691 19.4166 35.5358 18.0989L36.2061 17.4289C37.4556 18.0578 38.6622 18.0217 39.3931 17.2935C40.4576 16.229 40.0331 14.1984 38.4071 12.5714C37.4295 11.5901 36.2291 11.0035 35.195 11.0025C35.1939 11.0025 35.1929 11.0025 35.1918 11.0025C34.5843 11.0025 34.0625 11.2032 33.683 11.5823C32.9531 12.3121 32.9165 13.5203 33.5502 14.7714L32.8786 15.4427C31.5605 14.5096 30.0319 13.8614 28.3775 13.5768V12.6289C29.7075 12.1929 30.5357 11.3125 30.5357 10.2794C30.5357 8.77373 28.7999 7.63818 26.4975 7.63818C24.1961 7.63818 22.4603 8.77373 22.4603 10.2794C22.4603 11.3125 23.2885 12.1929 24.6185 12.6289V13.5765C22.9643 13.8609 21.4359 14.509 20.1179 15.4422L19.4489 14.7714C20.0784 13.5255 20.0418 12.3179 19.3109 11.5807C18.2475 10.5225 16.2169 10.9502 14.5899 12.5704C13.607 13.5538 13.0204 14.7583 13.0225 15.7925C13.0236 16.3979 13.2254 16.9176 13.5997 17.2903C14.3264 18.0233 15.5352 18.0625 16.7899 17.4289L17.4609 18.0996C16.5273 19.4184 15.8794 20.9478 15.5954 22.6031H14.6485C14.2124 21.2726 13.332 20.445 12.299 20.445C10.7933 20.445 9.65771 22.1807 9.65771 24.4826C9.65771 26.7846 10.7933 28.5203 12.299 28.5203C13.332 28.5203 14.2124 27.6927 14.6485 26.3621H15.5969C15.8819 28.0153 16.5299 29.5425 17.4625 30.8597L16.791 31.5312C15.5404 30.8986 14.3337 30.9378 13.6049 31.6655C12.3644 32.8992 13.2795 35.0754 14.591 36.3918C15.9075 37.7029 18.0731 38.6111 19.313 37.3778C20.0439 36.6469 20.0805 35.4392 19.45 34.1897L20.121 33.5184C21.4382 34.4509 22.9656 35.0982 24.6185 35.3825V36.3322C23.2874 36.7682 22.4603 37.6486 22.4603 38.6812C22.4603 40.1874 24.196 41.3229 26.4975 41.3229C28.7999 41.3229 30.5357 40.1874 30.5357 38.6812C30.5357 37.6486 29.7086 36.7682 28.3775 36.3322V35.3822C30.0314 35.0975 31.5593 34.4496 32.8772 33.5167L33.5502 34.1897C32.9176 35.4408 32.9552 36.6479 33.6851 37.3715C34.0636 37.7516 34.5833 37.9524 35.1897 37.9534H35.1929C36.227 37.9534 37.4294 37.3679 38.4102 36.386C40.0351 34.7616 40.4597 32.7316 39.3952 31.6603C38.6601 30.9315 37.4524 30.897 36.2082 31.5296L35.5363 30.8577C36.4693 29.5399 37.1173 28.0116 37.4017 26.3575H38.3517C38.7888 27.688 39.6692 28.5156 40.7012 28.5156C42.2069 28.5156 43.3424 26.7799 43.3424 24.478C43.3424 22.176 42.2069 20.4403 40.7012 20.4403ZM27.4828 33.8962C21.9573 34.4818 17.0304 30.1338 17.0304 24.4774C17.0304 19.6013 20.7467 15.5632 25.5016 15.0641C25.5036 15.0639 25.5053 15.0649 25.5073 15.0647C31.0385 14.4714 35.9677 18.8355 35.9677 24.4777C35.9677 24.4821 35.967 24.4863 35.967 24.4908C35.9593 29.355 32.2542 33.4002 27.4828 33.8962ZM34.1326 16.4596L35.1239 15.4688C35.3947 15.198 35.4365 14.773 35.2232 14.4546C34.6376 13.5794 34.6356 12.9013 34.8185 12.7183C34.9095 12.6279 35.0716 12.6085 35.1918 12.6085C35.6467 12.6091 36.4644 12.8966 37.2705 13.7059C38.3036 14.7395 38.5483 15.8657 38.2576 16.1574C38.0736 16.3404 37.395 16.3388 36.5208 15.7553C36.203 15.5452 35.7784 15.5854 35.5076 15.8562L34.5195 16.8444C34.512 16.8365 34.1432 16.4696 34.1326 16.4596ZM26.2246 13.41V12.0094C26.2246 11.6262 25.9537 11.2963 25.5773 11.2215C24.5463 11.0176 24.0664 10.5387 24.0664 10.2794C24.0664 9.86744 25.0357 9.24425 26.4975 9.24425C27.9593 9.24425 28.9296 9.86744 28.9296 10.2794C28.9296 10.5387 28.4497 11.0176 27.4187 11.2215C27.0422 11.2963 26.7714 11.6262 26.7714 12.0094V13.41C26.6032 13.4061 26.3538 13.407 26.2246 13.41ZM16.4752 15.7553C15.6 16.3398 14.9224 16.3435 14.7363 16.1553C14.6474 16.0675 14.6286 15.908 14.6286 15.7893C14.6276 15.3355 14.9151 14.5173 15.7244 13.707C16.7606 12.6749 17.8909 12.4334 18.1743 12.7157C18.3939 12.9369 18.304 13.6651 17.7759 14.4551C17.5637 14.773 17.6055 15.197 17.8753 15.4683L18.8634 16.4585C18.7316 16.5835 18.602 16.7121 18.4765 16.8444L17.4884 15.8562C17.3336 15.701 17.1276 15.621 16.9206 15.621C16.7659 15.621 16.6111 15.6654 16.4752 15.7553ZM14.0295 24.7561C13.6457 24.7561 13.3163 25.0269 13.2421 25.4028C13.0372 26.4338 12.5583 26.9142 12.299 26.9142C11.887 26.9142 11.2638 25.9444 11.2638 24.4826C11.2638 23.0209 11.887 22.051 12.299 22.051C12.5583 22.051 13.0372 22.5315 13.2421 23.5625C13.3163 23.9384 13.6457 24.2092 14.0295 24.2092H15.4254C15.4233 24.2986 15.4222 24.388 15.4222 24.4779C15.4222 24.571 15.4233 24.6641 15.4254 24.7561L14.0295 24.7561ZM17.7759 34.5055C18.3604 35.3796 18.3604 36.0587 18.1795 36.2401C17.8857 36.5319 16.7596 36.2851 15.7265 35.2562C14.9151 34.4417 14.6286 33.6224 14.6297 33.1681C14.6297 33.0505 14.6485 32.8926 14.7384 32.8032C14.8043 32.7373 14.9318 32.6981 15.1054 32.6981C15.4348 32.6981 15.9273 32.8387 16.4741 33.2042C16.7931 33.417 17.2186 33.3762 17.4884 33.1043L18.4765 32.1167C18.602 32.249 18.7316 32.3781 18.8634 32.5041L17.8763 33.4917C17.6055 33.7625 17.5637 34.1871 17.7759 34.5055ZM26.7714 35.5506V36.9512C26.7714 37.3344 27.0422 37.6643 27.4176 37.739C28.4497 37.9435 28.9296 38.4224 28.9296 38.6812C28.9296 39.0937 27.9592 39.7168 26.4975 39.7168C25.0357 39.7168 24.0664 39.0937 24.0664 38.6812C24.0664 38.4224 24.5463 37.9435 25.5784 37.739C25.9537 37.6643 26.2246 37.3344 26.2246 36.9512V35.5506C26.2634 35.5514 26.7329 35.5507 26.7714 35.5506ZM36.5281 33.2026C37.3144 32.673 38.0422 32.5815 38.2597 32.7969C38.5514 33.0902 38.3067 34.2179 37.2747 35.2505C36.4654 36.0603 35.6477 36.3473 35.1929 36.3473C35.0737 36.3473 34.9126 36.3285 34.8206 36.2349C34.6376 36.054 34.6397 35.3796 35.2242 34.5055C35.4365 34.1871 35.3947 33.7625 35.1238 33.4917L34.1326 32.501C34.2654 32.375 34.395 32.2459 34.5205 32.1131L35.5118 33.1043C35.7836 33.3772 36.2103 33.418 36.5281 33.2026ZM40.7012 26.9095C40.4419 26.9095 39.9641 26.4291 39.7581 25.3976C39.6838 25.0222 39.3534 24.7514 38.9707 24.7514H37.5706C37.5748 24.5695 37.5748 24.3861 37.5706 24.2045H38.9707C39.3534 24.2045 39.6838 23.9337 39.7581 23.5583C39.964 22.5268 40.4419 22.0463 40.7012 22.0463C41.1132 22.0463 41.7364 23.0162 41.7364 24.4779C41.7364 25.9397 41.1132 26.9095 40.7012 26.9095Z" fill="#3AB59A"/>
<path d="M23.717 23.8127C23.717 22.3923 22.5595 21.2363 21.1374 21.2363C19.7164 21.2363 18.561 22.3923 18.561 23.8127C18.561 25.2353 19.7164 26.3923 21.1374 26.3923C22.5595 26.3923 23.717 25.2353 23.717 23.8127ZM21.1374 24.7862C20.6021 24.7862 20.1671 24.3497 20.1671 23.8127C20.1671 23.2779 20.6021 22.8424 21.1374 22.8424C21.6738 22.8424 22.1109 23.2779 22.1109 23.8127C22.1109 24.3497 21.6738 24.7862 21.1374 24.7862Z" fill="#3AB59A"/>
<path d="M29.4794 24.0727C29.4794 22.7401 28.394 21.6558 27.0598 21.6558C25.7266 21.6558 24.6423 22.7401 24.6423 24.0727C24.6423 25.4069 25.7266 26.4928 27.0598 26.4928C28.394 26.4928 29.4794 25.4069 29.4794 24.0727ZM27.0598 24.8867C26.6123 24.8867 26.2484 24.5218 26.2484 24.0727C26.2484 23.6257 26.6123 23.2618 27.0598 23.2618C27.5084 23.2618 27.8733 23.6257 27.8733 24.0727C27.8733 24.5218 27.5084 24.8867 27.0598 24.8867Z" fill="#3AB59A"/>
<path d="M26.1545 20.3717C27.4416 20.3717 28.4883 19.3245 28.4883 18.0373C28.4883 16.7512 27.4416 15.7051 26.1545 15.7051C24.8684 15.7051 23.8228 16.7512 23.8228 18.0373C23.8228 19.3245 24.8684 20.3717 26.1545 20.3717ZM26.1545 17.3112C26.556 17.3112 26.8822 17.6369 26.8822 18.0374C26.8822 18.4389 26.556 18.7656 26.1545 18.7656C25.754 18.7656 25.4288 18.4389 25.4288 18.0374C25.4288 17.6369 25.754 17.3112 26.1545 17.3112Z" fill="#3AB59A"/>
<path d="M31.713 19.606C30.4634 19.606 29.446 20.6228 29.446 21.8729C29.446 23.1245 30.4634 24.1424 31.713 24.1424C32.9646 24.1424 33.982 23.1245 33.982 21.8729C33.982 20.6228 32.9646 19.606 31.713 19.606ZM31.713 22.5363C31.3491 22.5363 31.0521 22.2388 31.0521 21.8729C31.0521 21.5085 31.3491 21.212 31.713 21.212C32.0789 21.212 32.3759 21.5085 32.3759 21.8729C32.3759 22.2388 32.0789 22.5363 31.713 22.5363Z" fill="#3AB59A"/>
<path d="M30.362 27.3394C29.1742 27.3394 28.208 28.305 28.208 29.4923C28.208 30.6806 29.1742 31.6478 30.362 31.6478C31.5498 31.6478 32.517 30.6806 32.517 29.4923C32.517 28.305 31.5498 27.3394 30.362 27.3394ZM30.362 30.0418C30.0598 30.0418 29.8141 29.7955 29.8141 29.4923C29.8141 29.1906 30.0598 28.9454 30.362 28.9454C30.6642 28.9454 30.9109 29.1906 30.9109 29.4923C30.9109 29.7955 30.6642 30.0418 30.362 30.0418Z" fill="#3AB59A"/>
<path d="M23.6595 27.1313C22.4487 27.1313 21.4626 28.1169 21.4626 29.3282C21.4626 30.5406 22.4487 31.5271 23.6595 31.5271C24.8724 31.5271 25.8584 30.5406 25.8584 29.3282C25.8584 28.1169 24.8724 27.1313 23.6595 27.1313ZM23.6595 29.9211C23.3333 29.9211 23.0687 29.655 23.0687 29.3282C23.0687 29.0025 23.3333 28.7374 23.6595 28.7374C23.9868 28.7374 24.2524 29.0025 24.2524 29.3282C24.2524 29.655 23.9868 29.9211 23.6595 29.9211Z" fill="#3AB59A"/>
<path d="M44.2604 5.05977C36.7675 4.99965 31.3344 2.27685 28.7622 0.659267C27.36 -0.221151 25.6211 -0.219053 24.221 0.661354C21.653 2.27789 16.2283 4.99912 8.73955 5.05977C6.43395 5.07859 4.55811 6.99103 4.55811 9.32382V21.4802C4.55811 35.0514 12.279 47.1926 24.2242 52.4108C24.426 52.5002 24.6309 52.588 24.8369 52.6733C25.3618 52.8913 25.9264 53 26.4911 53C27.0547 53 27.6193 52.8913 28.1442 52.6733C28.3502 52.588 28.5541 52.5007 28.7549 52.4124C40.7147 47.1874 48.4418 35.0461 48.4418 21.4802V9.32382C48.4418 6.99103 46.566 5.07859 44.2604 5.05977ZM46.8358 21.4802C46.8358 34.4078 39.4861 45.9713 28.1108 50.9412C27.9184 51.0253 27.7249 51.1085 27.5294 51.1895C26.8675 51.464 26.1115 51.4629 25.4517 51.1895C25.2562 51.1085 25.0638 51.0259 24.8693 50.9401C13.5065 45.9766 6.16418 34.4125 6.16418 21.4802V9.32382C6.16418 7.86988 7.32483 6.67735 8.75209 6.66585C16.6382 6.60154 22.3651 3.72817 25.0764 2.02067C25.9635 1.4625 27.0479 1.47942 27.9069 2.0191C30.6234 3.72713 36.3576 6.60207 44.2479 6.66585C45.6751 6.67735 46.8358 7.86988 46.8358 9.32382V21.4802Z" fill="#3AB59A"/>
</g>
<defs>
<clipPath id="clip0_1_201">
<rect width="53" height="53" fill="white"/>
</clipPath>
</defs>
</svg>
