<svg width="24" height="24" viewBox="0 0 24 24" fill="none" xmlns="http://www.w3.org/2000/svg">
<path d="M14.391 2H10.2488C6.26198 2 3 5.26198 3 9.24885V12.3555C3 15.1515 4.63099 17.7145 7.1422 18.9054V22.3745C7.1422 22.6851 7.53053 22.8404 7.73764 22.6074L10.7407 19.6044H14.391C18.3779 19.6044 21.6399 16.3424 21.6399 12.3555V9.24885C21.6399 5.26198 18.3779 2 14.391 2ZM17.1094 15.5916L16.0479 16.6271C14.9347 17.7145 12.0611 16.4718 9.52396 13.8829C6.98687 11.2941 5.87365 8.39452 6.93509 7.3072L7.97064 6.27164C8.35897 5.88331 9.00619 5.9092 9.4463 6.29753L10.9478 7.85086C11.4915 8.39452 11.2585 9.32652 10.5595 9.53363C10.0676 9.68896 9.73107 10.2326 9.8864 10.7245C10.1453 11.8636 11.5951 13.3134 12.6824 13.5982C13.1743 13.7017 13.7179 13.4428 13.8992 12.9509C14.1322 12.2519 15.0642 12.0448 15.5819 12.5885L17.0835 14.1418C17.4977 14.5043 17.4977 15.1515 17.1094 15.5916ZM13.2519 6.91886C13.1484 6.91886 13.0448 6.91886 12.9413 6.94475C12.7601 6.97064 12.5788 6.81531 12.5529 6.63409C12.5271 6.45287 12.6824 6.27164 12.8636 6.24576C12.9931 6.21987 13.1225 6.21987 13.2519 6.21987C15.1418 6.21987 16.6951 7.77319 16.6951 9.66307C16.6951 9.79252 16.6951 9.92196 16.6693 10.0514C16.6434 10.2326 16.4621 10.388 16.2809 10.3621C16.0997 10.3362 15.9444 10.155 15.9703 9.97374C15.9703 9.87018 15.9961 9.76663 15.9961 9.66307C16.022 8.16152 14.7794 6.91886 13.2519 6.91886ZM15.323 9.68896C15.323 9.87018 15.1677 10.0255 14.9865 10.0255C14.8053 10.0255 14.6499 9.87018 14.6499 9.68896C14.6499 8.93819 14.0286 8.31686 13.2778 8.31686C13.0966 8.31686 12.9413 8.16152 12.9413 7.9803C12.9413 7.79908 13.0966 7.64375 13.2778 7.64375C14.391 7.61786 15.323 8.54986 15.323 9.68896ZM17.9637 10.8022C17.9119 10.9834 17.7307 11.1128 17.5236 11.0611C17.3424 11.0093 17.2388 10.8281 17.2906 10.6468C17.3683 10.3362 17.3941 10.0255 17.3941 9.68896C17.3941 7.41075 15.5302 5.54676 13.2519 5.54676C13.1484 5.54676 13.0448 5.54676 12.9413 5.54676C12.7601 5.54676 12.5788 5.41732 12.5788 5.23609C12.5788 5.05487 12.7083 4.87365 12.8895 4.87365C13.0189 4.87365 13.1484 4.84776 13.2519 4.84776C15.9185 4.84776 18.0931 7.02242 18.0931 9.68896C18.0931 10.0514 18.0414 10.4397 17.9637 10.8022Z" fill="white"/>
</svg>
